<svg width="48" height="48" viewBox="0 0 48 48" fill="none" xmlns="http://www.w3.org/2000/svg">
<g id="Group">
<g id="Group_2">
<path id="Vector" d="M47.7253 8.80462L39.1941 0.274594C39.0183 0.0988125 38.7799 0 38.5312 0H10.6875C9.13669 0 7.875 1.26169 7.875 2.8125V4.59975C3.26953 6.40631 0 10.8952 0 16.1335C0 16.6512 0.419813 17.071 0.9375 17.071H12.3835C12.9012 17.071 13.321 16.6512 13.321 16.1335V4.6875C13.321 4.16981 12.9012 3.75 12.3835 3.75C11.48 3.75 10.5991 3.84816 9.75 4.03284V2.8125C9.75 2.29556 10.1706 1.875 10.6875 1.875H37.5938V7.59375C37.5938 9.14456 38.8554 10.4062 40.4062 10.4062H46.125V45.1875C46.125 45.7044 45.7044 46.125 45.1875 46.125H10.6875C10.1706 46.125 9.75 45.7044 9.75 45.1875V37.1562C9.75 36.6385 9.33019 36.2187 8.8125 36.2187C8.29481 36.2187 7.875 36.6385 7.875 37.1562V45.1875C7.875 46.7383 9.13669 48 10.6875 48H45.1875C46.7383 48 48 46.7383 48 45.1875V9.46753C48 9.21891 47.9012 8.98041 47.7253 8.80462ZM11.4459 5.66653V15.196H1.91644C2.36466 10.1478 6.39778 6.11475 11.4459 5.66653ZM40.4062 8.53125C39.8893 8.53125 39.4688 8.11069 39.4688 7.59375V3.20062L44.8001 8.53125H40.4062Z" fill="#7772F1"/>
</g>
</g>
</svg>
