<svg width="48" height="48" viewBox="0 0 48 48" fill="none" xmlns="http://www.w3.org/2000/svg">
<path d="M23.5377 5.52469C23.3634 5.35031 23.1225 5.25 22.875 5.25C22.6284 5.25 22.3866 5.35031 22.2122 5.52469C22.0378 5.69906 21.9375 5.94094 21.9375 6.1875C21.9375 6.43406 22.0377 6.67594 22.2122 6.85031C22.3875 7.02469 22.6284 7.125 22.875 7.125C23.1216 7.125 23.3634 7.02469 23.5377 6.85031C23.713 6.67594 23.8125 6.43406 23.8125 6.1875C23.8125 5.94094 23.713 5.69906 23.5377 5.52469Z" fill="#7772F1"/>
<path d="M47.0625 35.8125H45.5625V10.3125C45.5625 7.521 43.2914 5.25 40.5 5.25H26.8125C26.2948 5.25 25.875 5.66972 25.875 6.1875C25.875 6.70528 26.2948 7.125 26.8125 7.125H40.5C42.2576 7.125 43.6875 8.55488 43.6875 10.3125V13.9249L20.0249 28.9204L12.332 21.2274C12.1561 21.0517 11.9177 20.9528 11.6691 20.9528C11.4204 20.9528 11.182 21.0517 11.0062 21.2274L4.3125 27.921V22.3195L11.6691 14.963L19.2297 22.5237C19.54 22.834 20.0241 22.8874 20.3945 22.6527L35.0692 13.353C35.1169 13.7537 35.4211 14.0929 35.839 14.1657C35.8935 14.1752 35.9476 14.1798 36.0011 14.1798C36.4483 14.1798 36.8442 13.8587 36.9236 13.4031L37.3006 11.2391C37.3481 10.9664 37.2727 10.6868 37.0946 10.4749C36.9165 10.263 36.6538 10.1407 36.3771 10.1407H34.2831C33.7654 10.1407 33.3456 10.5605 33.3456 11.0782C33.3456 11.4385 33.549 11.7509 33.8471 11.9078L20.0249 20.6673L12.332 12.9743C12.1561 12.7986 11.9177 12.6998 11.6691 12.6998C11.4204 12.6998 11.182 12.7986 11.0062 12.9743L4.3125 19.6679V10.3125C4.3125 8.55488 5.74238 7.125 7.5 7.125H18.6562C19.1739 7.125 19.5938 6.70528 19.5938 6.1875C19.5938 5.66972 19.1739 5.25 18.6562 5.25H7.5C4.70859 5.25 2.4375 7.521 2.4375 10.3125V21.9307C2.4375 21.931 2.4375 21.9314 2.4375 21.9317V30.1838C2.4375 30.1841 2.4375 30.1845 2.4375 30.1848V35.8125H0.9375C0.419813 35.8125 0 36.2322 0 36.75V37.9688C0 40.6052 2.14491 42.75 4.78125 42.75H43.2188C45.8551 42.75 48 40.6052 48 37.9688V36.75C48 36.2322 47.5802 35.8125 47.0625 35.8125ZM37.3125 20.1846L43.6875 16.1446V35.8125H37.3125V20.1846ZM29.0625 25.4128L35.4375 21.3728V35.8125H29.0625V25.4128ZM20.8125 30.6411L27.1875 26.6011V35.8125H20.8125V30.6411ZM12.5625 24.1097L18.9375 30.4847V35.8125H12.5625V24.1097ZM4.3125 30.5727L10.6875 24.1977V35.8125H4.3125V30.5727ZM46.125 37.9688C46.125 39.5712 44.8213 40.875 43.2188 40.875H4.78125C3.17869 40.875 1.875 39.5712 1.875 37.9688V37.6875H3.375H44.625H46.125V37.9688Z" fill="#7772F1"/>
</svg>
