<svg width="48" height="48" viewBox="0 0 48 48" fill="none" xmlns="http://www.w3.org/2000/svg">
<g clip-path="url(#clip0_6511_585)">
<path d="M47.7253 8.80463L39.1941 0.274594C39.0183 0.0988125 38.7799 0 38.5312 0H10.6875C9.13669 0 7.875 1.26169 7.875 2.8125V4.59975C3.26953 6.40631 0 10.8952 0 16.1335C0 16.6512 0.419813 17.071 0.9375 17.071H12.3835C12.9012 17.071 13.321 16.6512 13.321 16.1335V4.6875C13.321 4.16981 12.9012 3.75 12.3835 3.75C11.48 3.75 10.5991 3.84816 9.75 4.03284V2.8125C9.75 2.29556 10.1706 1.875 10.6875 1.875H37.5938V7.59375C37.5938 9.14456 38.8554 10.4062 40.4062 10.4062H46.125V45.1875C46.125 45.7044 45.7044 46.125 45.1875 46.125H10.6875C10.1706 46.125 9.75 45.7044 9.75 45.1875V37.1562C9.75 36.6385 9.33019 36.2187 8.8125 36.2187C8.29481 36.2187 7.875 36.6385 7.875 37.1562V45.1875C7.875 46.7383 9.13669 48 10.6875 48H45.1875C46.7383 48 48 46.7383 48 45.1875V9.46753C48 9.21891 47.9012 8.98041 47.7253 8.80463ZM11.4459 5.66653V15.196H1.91644C2.36466 10.1478 6.39778 6.11475 11.4459 5.66653ZM40.4062 8.53125C39.8893 8.53125 39.4688 8.11069 39.4688 7.59375V3.20062L44.8001 8.53125H40.4062Z" fill="#7772F1"/>
<path d="M9.47522 33.0872C9.30094 32.9127 9.05906 32.8125 8.8125 32.8125C8.56594 32.8125 8.32406 32.9127 8.14969 33.0872C7.97531 33.2616 7.875 33.5034 7.875 33.75C7.875 33.9966 7.97522 34.2384 8.14969 34.4127C8.32406 34.5872 8.56594 34.6875 8.8125 34.6875C9.05906 34.6875 9.30094 34.5872 9.47522 34.4127C9.64969 34.2384 9.75 33.9966 9.75 33.75C9.75 33.5034 9.64969 33.2616 9.47522 33.0872Z" fill="#7772F1"/>
<path d="M15.7409 7.1084C15.2232 7.1084 14.8034 7.52821 14.8034 8.0459V18.5543H4.29492C3.77723 18.5543 3.35742 18.9741 3.35742 19.4918C3.35742 26.3201 8.91258 31.8754 15.7409 31.8754C22.5691 31.8754 28.1244 26.3201 28.1244 19.4918C28.1244 12.6636 22.5691 7.1084 15.7409 7.1084ZM16.6784 9.02493C18.873 9.21974 20.8756 10.0926 22.4755 11.4315L16.6784 17.2285V9.02493ZM15.7409 30.0004C10.2624 30.0004 5.74955 25.7864 5.27395 20.4293H15.7409C15.9996 20.4293 16.2338 20.3245 16.4035 20.155C16.4036 20.1549 16.4037 20.1549 16.4039 20.1547L23.8016 12.7571C25.3289 14.5821 26.2494 16.9315 26.2494 19.4918C26.2494 25.2862 21.5353 30.0004 15.7409 30.0004Z" fill="#7772F1"/>
<path d="M41.0685 29.5879C39.5177 29.5879 38.256 30.8496 38.256 32.4004C38.256 32.7891 38.3353 33.1595 38.4785 33.4965L33.0772 38.8977C32.7061 38.7169 32.2895 38.6152 31.8496 38.6152C31.4201 38.6152 31.013 38.7123 30.6486 38.8851L27.062 35.2984C27.1863 34.9811 27.2553 34.6362 27.2553 34.2753C27.2553 32.7245 25.9936 31.4628 24.4428 31.4628C22.892 31.4628 21.6303 32.7245 21.6303 34.2753C21.6303 34.6955 21.7235 35.0941 21.8895 35.4525L18.4493 38.8927C18.0829 38.7174 17.6728 38.619 17.2402 38.619C15.6894 38.619 14.4277 39.8807 14.4277 41.4315C14.4277 42.9823 15.6894 44.244 17.2402 44.244C18.791 44.244 20.0527 42.9823 20.0527 41.4315C20.0527 40.9968 19.9535 40.5849 19.7767 40.2171L23.1977 36.7961C23.5733 36.9825 23.996 37.0878 24.443 37.0878C24.9478 37.0878 25.4215 36.9535 25.8315 36.7196L29.317 40.2052C29.1378 40.575 29.0371 40.9898 29.0371 41.4277C29.0371 42.9785 30.2988 44.2402 31.8496 44.2402C33.4004 44.2402 34.6621 42.9785 34.6621 41.4277C34.6621 41.0004 34.5659 40.5952 34.3946 40.2322L39.7454 34.8814C40.14 35.0927 40.5905 35.2129 41.0685 35.2129C42.6193 35.2129 43.881 33.9512 43.881 32.4004C43.881 30.8496 42.6193 29.5879 41.0685 29.5879ZM17.2401 42.3691C16.7232 42.3691 16.3026 41.9485 16.3026 41.4316C16.3026 40.9147 16.7232 40.4941 17.2401 40.4941C17.4919 40.4941 17.7201 40.5943 17.8887 40.7563C17.8925 40.7603 17.8957 40.7645 17.8996 40.7683C17.9041 40.7728 17.909 40.7766 17.9135 40.7809C18.0767 40.9496 18.1776 41.179 18.1776 41.4316C18.1776 41.9485 17.7571 42.3691 17.2401 42.3691ZM24.4428 35.2128C23.9258 35.2128 23.5053 34.7922 23.5053 34.2753C23.5053 33.7584 23.9258 33.3378 24.4428 33.3378C24.9597 33.3378 25.3803 33.7584 25.3803 34.2753C25.3803 34.7922 24.9597 35.2128 24.4428 35.2128ZM31.8494 42.3652C31.3325 42.3652 30.9119 41.9446 30.9119 41.4277C30.9119 40.9107 31.3325 40.4902 31.8494 40.4902C32.3663 40.4902 32.7869 40.9107 32.7869 41.4277C32.7869 41.9446 32.3663 42.3652 31.8494 42.3652ZM41.0683 33.3378C40.5514 33.3378 40.1308 32.9172 40.1308 32.4003C40.1308 31.8834 40.5515 31.4628 41.0683 31.4628C41.5852 31.4628 42.0058 31.8834 42.0058 32.4003C42.0058 32.9172 41.5852 33.3378 41.0683 33.3378Z" fill="#7772F1"/>
<path d="M36.3816 22.0312H31.4336C30.9159 22.0312 30.4961 22.4511 30.4961 22.9688C30.4961 23.4864 30.9158 23.9062 31.4336 23.9062H36.3816C36.8993 23.9062 37.3191 23.4864 37.3191 22.9688C37.3191 22.4511 36.8993 22.0312 36.3816 22.0312Z" fill="#7772F1"/>
<path d="M41.3131 22.3059C41.1388 22.1316 40.897 22.0312 40.6504 22.0312C40.4038 22.0312 40.162 22.1315 39.9876 22.3059C39.8132 22.4803 39.7129 22.7222 39.7129 22.9688C39.7129 23.2153 39.8131 23.4572 39.9876 23.6315C40.162 23.8058 40.4029 23.9062 40.6504 23.9062C40.897 23.9062 41.1388 23.8059 41.3131 23.6315C41.4875 23.4572 41.5879 23.2153 41.5879 22.9688C41.5879 22.7222 41.4876 22.4803 41.3131 22.3059Z" fill="#7772F1"/>
<path d="M42.8855 13.0312H31.4336C30.9159 13.0312 30.4961 13.4511 30.4961 13.9688C30.4961 14.4864 30.9158 14.9062 31.4336 14.9062H42.8855C43.4032 14.9062 43.823 14.4864 43.823 13.9688C43.823 13.4511 43.4032 13.0312 42.8855 13.0312Z" fill="#7772F1"/>
<path d="M42.8855 17.5312H31.4336C30.9159 17.5312 30.4961 17.9511 30.4961 18.4688C30.4961 18.9864 30.9158 19.4062 31.4336 19.4062H42.8855C43.4032 19.4062 43.823 18.9864 43.823 18.4688C43.823 17.9511 43.4032 17.5312 42.8855 17.5312Z" fill="#7772F1"/>
</g>
<defs>
<clipPath id="clip0_6511_585">
<rect width="48" height="48" fill="white"/>
</clipPath>
</defs>
</svg>
