<svg width="22" height="22" viewBox="0 0 22 22" fill="none" xmlns="http://www.w3.org/2000/svg">
<g id="Group">
<g id="Group_2">
<path id="Vector" d="M11 0.375C9.46711 0.375 7.98766 0.69461 6.60273 1.325C6.21 1.50375 6.03656 1.96703 6.21531 2.35969C6.39406 2.75242 6.85727 2.92578 7.25 2.74711C8.43031 2.20984 9.69195 1.9375 11 1.9375C15.997 1.9375 20.0625 6.00289 20.0625 11C20.0625 15.9971 15.997 20.0625 11 20.0625C6.00297 20.0625 1.9375 15.9971 1.9375 11C1.9375 9.54094 2.27336 8.14828 2.93578 6.86063C3.1332 6.47695 2.98211 6.00586 2.59844 5.80852C2.21484 5.61102 1.74367 5.76219 1.54633 6.14586C0.780078 7.63555 0.375 9.31406 0.375 11C0.375 16.8586 5.14133 21.625 11 21.625C16.8587 21.625 21.625 16.8586 21.625 11C21.625 5.14141 16.8587 0.375 11 0.375Z" fill="#7772F1"/>
</g>
</g>
</svg>
