<svg width="48" height="48" viewBox="0 0 48 48" fill="none" xmlns="http://www.w3.org/2000/svg">
<g id="Group">
<g id="Group_2">
<path id="Vector" d="M43.7812 0H4.21875C1.89253 0 0 1.89253 0 4.21875V47.0625C0 47.5803 0.419719 48 0.9375 48H47.0625C47.5803 48 48 47.5803 48 47.0625V4.21875C48 1.89253 46.1075 0 43.7812 0ZM46.125 46.125H1.875V10.875H37.7812C38.299 10.875 38.7188 10.4553 38.7188 9.9375C38.7188 9.41972 38.299 9 37.7812 9H1.875V4.21875C1.875 2.92641 2.92641 1.875 4.21875 1.875H43.7812C45.0736 1.875 46.125 2.92641 46.125 4.21875V46.125Z" fill="#7772F1"/>
</g>
</g>
</svg>
