<svg xmlns="http://www.w3.org/2000/svg" width="286" height="489" fill="none" viewBox="0 0 286 489">
  <path fill="#B3B7BC" d="M6.783 78.52h70.615l-5.783-12.983H1l5.783 12.984Zm208.601 27.187H286l-5.783-12.984h-70.616l5.783 12.984Z"/>
  <path fill="#00F0B5" d="m150.297 146.564 32.47 32.314s57.476 189.15 48.345 282.265l13.365 12.237-65.743 15.619-43.247-225.584 14.81-116.851Z"/>
  <path fill="#1E212C" d="M170.238 384.121a217.893 217.893 0 0 1-3.758 40.576l-28.847-150.468c20.022 27.1 32.605 66.294 32.605 109.892Z"/>
  <path fill="#00F0B5" d="m167.113 177.385-84.239-4.882V489h66.205l-7-12.541 25.034-299.074Z"/>
  <path fill="#E5E8ED" d="M170.164 27.715v11.249a18.895 18.895 0 0 1-14.387 18.348l-17.905 4.4v-43.98l14.888-3.659a14.052 14.052 0 0 1 17.404 13.642Z"/>
  <path stroke="#1E212C" stroke-linecap="round" stroke-linejoin="round" stroke-width="1.5" d="M170.164 38.964a18.895 18.895 0 0 1-14.387 18.348l-17.905 4.4"/>
  <path fill="#1E212C" d="M151.922 36.732a.864.864 0 1 1 0-1.727.864.864 0 0 1 0 1.727Zm13.261 0a.864.864 0 1 1 .001-1.727.864.864 0 0 1-.001 1.727Z"/>
  <path stroke="#1E212C" stroke-linecap="round" stroke-linejoin="round" stroke-width="1.5" d="M161.295 41.018V27.715h6.666m-17.666 0h6.666"/>
  <path fill="#E5E8ED" d="M140 34.53v4.62a4.513 4.513 0 0 1-4.495-4.922c.253-2.802 4.495-2.51 4.495.303Z"/>
  <path stroke="#1E212C" stroke-linecap="round" stroke-linejoin="round" stroke-width="1.5" d="M140 39.15a4.513 4.513 0 0 1-4.513-4.511m22.161 7.934a2.987 2.987 0 0 1-4.226 0m7.871-1.543-2.915.716m12.47-15.668s-8.219 5.274-23.945-5.884c0 0 .406 12.114-6.29 14.172"/>
  <path stroke="#1E212C" stroke-linecap="round" stroke-linejoin="round" stroke-width="1.5" d="M170.164 29.933s4.844-2.536 4.945-8.115c0 0-14.102-23.635-33.075-10.854 0 0-10.755 2.637-11.567 15.723-.811 13.085 7.406 19.983 7.406 19.983"/>
  <path stroke="#00F0B5" stroke-linecap="round" stroke-linejoin="round" stroke-width="1.5" d="M136.859 10.254c-.405 0-4.78 2.029-6.448 6.289"/>
  <path stroke="#1E212C" stroke-linecap="round" stroke-linejoin="round" stroke-width="1.5" d="M133.633 8.428s-5.096-11.767-15.749-5.68c-10.653 6.086-9.334 23.33-9.334 23.33l15.625 3.55s.092-17.864 5.377-15.967"/>
  <path fill="#E5E8ED" d="M182.766 108.381v70.499l-99.893 24.546V124.91c0-27.841 19.011-52.085 46.053-58.73a43.471 43.471 0 0 1 37.191 8.001 43.453 43.453 0 0 1 16.649 34.2Z"/>
  <path stroke="#1E212C" stroke-linecap="round" stroke-linejoin="round" stroke-width="1.5" d="m142.079 476.459 25.034-299.074m-61.521-99.714s-29.736 17.422-49.216 55.157c0 0 10.777-40.916 3.878-52.277-6.9-11.361-7.712-2.88-7.712-2.88S36.31 65.538 33.468 71.624c-2.84 6.087 7.711 16.23 7.711 16.23s-35.61 58.311-6.9 80.2c35.309 26.919 74.221-29.075 74.221-29.075m60.495-62.331s20.719 26.99 33.503 69.918c0 0 24.959-44.713 37.743-45.322 12.783-.609 4.233 5.478 4.233 5.478s19.508-9.13 23.161-1.826c3.652 7.303-23.161 17.749-23.161 17.749s-1.19 51.634-20.67 68.676c-14.995 13.118-28.543 9.14-39.541-3.047"/>
  <path fill="#9A9CA5" d="M63.32 39.26c-1.138.87-1.293 1.779-1.317 2.035a7.171 7.171 0 0 1-.505.313c.236-.428.455-.863.65-1.305.328-.76.616-1.534.847-2.331.03-.083.05-.174.072-.266a6.48 6.48 0 0 1 .824-1.836c.023-.034.046-.076.077-.11 3.206-1.934 1.583-5.612 1.583-5.612.076.82-.675 1.47-1.43 3-.633 1.296-.377 2.184-.289 2.42-.16.268-.305.503-.435.697.048-.24.088-.48.12-.728.126-.818.186-1.643.199-2.465l.005-.313a4.067 4.067 0 0 0-.002-.312l-.02-.616-.046-.616c-.011-.106-.015-.205-.026-.311l-.035-.303a2.19 2.19 0 0 1 .012-.61l.193-1.181c2.284-3.005-.55-5.812-.55-5.812.363.736-.099 1.623-.25 3.33-.13 1.444.435 2.173.603 2.365-.053.347-.115.645-.171.885l-.031-.188c-.031-.204-.086-.4-.125-.604l-.067-.302a4.122 4.122 0 0 0-.074-.302c-.11-.399-.212-.79-.355-1.18l-.098-.293-.045-.146-.054-.146-.22-.577a21.9 21.9 0 0 0-.445-.988 5.365 5.365 0 0 1-.514-1.857 8.317 8.317 0 0 0-.047-.443c1.159-3.616-2.427-5.287-2.427-5.287.583.564.44 1.564.858 3.219.362 1.41 1.128 1.902 1.342 2.018.088.483.134.884.168 1.17-.008-.007-.009-.015-.017-.032l-.154-.266c-.052-.088-.11-.169-.162-.258l-.332-.514-.355-.498c-.06-.08-.119-.169-.178-.25l-.185-.24a13.48 13.48 0 0 0-.605-.744c-.294-.352-.699-.873-1.05-1.239a2.367 2.367 0 0 1-.414-.578c-1.571-3.096-5.131-2.088-5.131-2.088.806.022 1.35.875 2.745 1.823 1.097.753 1.949.674 2.26.606.041.015.082.022.123.037l.425.422c.56.581 1.088 1.188 1.561 1.846l.178.241c.059.08.11.17.17.25l.339.506.144.233c-.364-.3-.735-.55-1.098-.776-2.041-3.188-5.566-1.367-5.566-1.367.802-.117 1.472.625 3.002 1.322 1.302.589 2.154.289 2.384.19.525.287.962.576 1.21.749.157.11.299.253.385.423l.146.266c.394.702.718 1.448 1.017 2.202l.205.569.053.146.045.147.09.293c.126.382.22.782.314 1.173.028.098.047.196.067.294v.008a9.405 9.405 0 0 0-.792-1.01c-1.042-3.656-4.927-2.966-4.927-2.966.794.13 1.228 1.044 2.49 2.161 1.073.959 1.982.92 2.223.895.292.303.527.575.703.782.244.288.417.644.462 1.029v.008l.085.598.021.147.013.148.026.303.027.303c.011.098.015.205.018.304.007.205.022.402.029.607l.004.609c.004.098-.001.197-.006.304l-.014.305c-.017.436-.05.873-.093 1.302-.092-.358-.209-.7-.324-1.025.307-3.793-3.571-4.566-3.571-4.566.699.412.789 1.42 1.573 2.923.672 1.285 1.528 1.585 1.772 1.642.097.236.184.447.255.633.177.463.235.979.138 1.467v.009a17.612 17.612 0 0 1-.573 2.338 19.656 19.656 0 0 1-.876 2.233 8.918 8.918 0 0 1-.317.62c.05-.43.076-.842.08-1.237 1.64-3.41-1.68-5.584-1.68-5.584.505.64.223 1.612.41 3.308.161 1.442.85 2.044 1.057 2.193l.005.164c.023.92-.22 1.833-.718 2.598l-.008.009a16.386 16.386 0 0 1-1.434 1.898c-.132.144-.256.305-.396.441l-.413.425c-.008-.008-.008 0-.008-.008a9.34 9.34 0 0 0 .322-.71c2.817-2.496.57-5.808.57-5.808.22.79-.407 1.576-.875 3.212-.396 1.395.01 2.22.147 2.437-.082.209-.156.408-.223.575-.17.425-.44.804-.785 1.096l-.007.008a17.377 17.377 0 0 1-1.87 1.428c-.386.252-.773.487-1.177.706.163-.186.318-.373.45-.55 2.724-1.399 1.604-4.494 1.604-4.494.015.674-.638 1.164-1.33 2.372-.594 1.023-.432 1.766-.369 1.961a6.976 6.976 0 0 1-.246.346 2.603 2.603 0 0 1-.972.814h-.008a19.46 19.46 0 0 1-2.171.854h-.008a.489.489 0 0 0-.339.472c.005.37.343.59.653.48a20.52 20.52 0 0 0 2.273-.956c.736-.37 1.44-.797 2.116-1.264.41-.277.803-.578 1.187-.896a3.486 3.486 0 0 1 1.811-.776c3.523 1.246 5.214-2.388 5.214-2.388-.56.586-1.541.422-3.164.822-1.382.343-1.88 1.116-1.993 1.342-.337.052-.625.095-.874.12.21-.205.42-.417.631-.63l.412-.458c.14-.153.263-.313.403-.474a18.527 18.527 0 0 0 1.438-2.014c.008-.016.016-.025.023-.042.214-.344.503-.625.85-.826.056-.035.111-.061.167-.096 3.722-.265 3.876-4.292 3.876-4.292-.265.75-1.232.988-2.567 2.011Zm-59.606-.22c1.209.871 1.375 1.782 1.4 2.038.192.121.368.226.536.314a16.11 16.11 0 0 1-.69-1.307c-.35-.76-.657-1.535-.904-2.334a2.837 2.837 0 0 1-.076-.265 6.342 6.342 0 0 0-.877-1.84c-.025-.034-.049-.076-.082-.11-3.402-1.94-1.689-5.618-1.689-5.618-.079.82.719 1.472 1.521 3.005.674 1.298.405 2.185.311 2.42.17.27.325.505.463.7a9.92 9.92 0 0 1-.129-.729c-.134-.819-.2-1.644-.215-2.467l-.007-.313c-.005-.107-.001-.206.002-.312l.021-.617.047-.615c.012-.107.015-.205.027-.312l.036-.303a2.07 2.07 0 0 0-.013-.61l-.208-1.183c-2.426-3.01.572-5.813.572-5.813-.383.736.108 1.625.272 3.333.14 1.444-.458 2.173-.635 2.364.057.348.123.646.183.887l.032-.189c.033-.204.09-.4.132-.604l.07-.302c.02-.098.05-.204.078-.302.116-.399.224-.79.374-1.18l.103-.292.048-.147.056-.146.233-.576c.148-.332.305-.664.47-.988a5.12 5.12 0 0 0 .54-1.857c.014-.148.027-.296.05-.443-1.237-3.604 2.561-5.277 2.561-5.277-.617.563-.463 1.564-.903 3.22-.381 1.41-1.192 1.9-1.418 2.016-.093.482-.14.884-.176 1.17.009-.008.009-.016.018-.032l.163-.266c.054-.089.116-.169.17-.257l.351-.515.376-.497c.062-.08.125-.169.188-.249l.196-.24a13.6 13.6 0 0 1 .64-.744c.31-.351.738-.871 1.11-1.237.176-.175.328-.367.437-.578 1.66-3.11 5.435-2.086 5.435-2.086-.855.02-1.43.873-2.906 1.818-1.161.75-2.064.67-2.395.602-.043.015-.086.022-.13.037l-.449.42a17.11 17.11 0 0 0-1.651 1.845l-.188.24c-.062.08-.116.17-.179.25l-.359.506-.153.233c.386-.3.78-.55 1.163-.775 2.157-3.185 5.896-1.356 5.896-1.356-.85-.119-1.558.622-3.18 1.316-1.377.587-2.28.285-2.525.186a14.27 14.27 0 0 0-1.28.746c-.167.11-.317.253-.408.423l-.154.266c-.417.702-.758 1.447-1.074 2.201l-.216.569-.056.146-.047.146-.096.293c-.132.383-.231.782-.33 1.174-.029.098-.05.196-.07.294v.008c.269-.37.545-.706.837-1.008 1.097-3.657 5.216-2.958 5.216-2.958-.841.128-1.3 1.042-2.635 2.156-1.134.957-2.098.917-2.353.892-.31.302-.558.573-.744.78-.258.288-.44.644-.488 1.029v.008l-.089.598-.022.147-.013.148-.027.303-.028.303c-.012.099-.015.206-.019.304-.007.206-.022.402-.029.608l-.003.609c-.004.098.002.197.007.304l.015.305c.02.437.056.874.1 1.303.098-.358.221-.7.343-1.025-.333-3.795 3.776-4.561 3.776-4.561-.74.411-.834 1.42-1.662 2.922-.726 1.267-1.633 1.565-1.891 1.622-.102.235-.195.446-.27.633a2.548 2.548 0 0 0-.143 1.467v.009c.152.794.348 1.574.612 2.34.265.766.573 1.508.933 2.236.104.21.216.419.337.62-.053-.43-.082-.841-.086-1.236-1.746-3.416 1.77-5.584 1.77-5.584-.535.64-.235 1.613-.429 3.31-.168 1.441-.897 2.042-1.116 2.19l-.006.165c-.022.92.237 1.834.767 2.6l.008.01c.455.673.972 1.3 1.524 1.902.14.144.272.305.42.442l.439.426c.009-.008.009 0 .009-.008a9.173 9.173 0 0 1-.343-.71c-2.99-2.504-.615-5.813-.615-5.813-.232.79.433 1.578.933 3.215.423 1.397-.007 2.221-.15 2.438.086.209.165.409.236.576.182.426.468.806.834 1.098l.008.008a18.48 18.48 0 0 0 1.985 1.433c.41.252.82.488 1.248.708a9.078 9.078 0 0 1-.476-.55c-2.891-1.406-1.71-4.5-1.71-4.5-.014.673.678 1.166 1.414 2.375.632 1.025.461 1.768.395 1.963.09.127.18.245.262.346.27.347.619.63 1.031.817h.009c.749.33 1.525.62 2.302.86h.009a.496.496 0 0 1 .36.473c-.004.37-.362.588-.691.478a22.576 22.576 0 0 1-2.41-.962 19.31 19.31 0 0 1-2.247-1.268c-.434-.278-.851-.58-1.259-.899a3.822 3.822 0 0 0-1.921-.78c-3.732 1.24-5.53-2.4-5.53-2.4.595.588 1.634.425 3.354.829 1.466.346 1.995 1.12 2.115 1.347.357.053.663.096.927.122-.224-.205-.447-.419-.67-.632l-.438-.459c-.148-.153-.28-.314-.428-.475a18.698 18.698 0 0 1-1.528-2.018c-.008-.017-.017-.025-.025-.042a2.525 2.525 0 0 0-.903-.828c-.058-.035-.117-.062-.176-.097-3.945-.273-4.116-4.302-4.116-4.302.298.767 1.324 1.008 2.741 2.035Z"/>
  <path fill="#00F0B5" d="M32.118 20.83a3 3 0 0 1 3.645-.002l3.205 2.448a3 3 0 0 0 .67.386l3.724 1.547a3 3 0 0 1 1.825 3.156l-.517 3.997a3.001 3.001 0 0 0 0 .774l.523 3.997a3 3 0 0 1-1.821 3.158l-3.722 1.55c-.24.1-.465.23-.67.388l-3.202 2.451a3 3 0 0 1-3.645.002l-3.205-2.447a3 3 0 0 0-.67-.386l-3.724-1.547a3 3 0 0 1-1.825-3.156l.517-3.997a3.002 3.002 0 0 0 0-.774l-.522-3.997a3 3 0 0 1 1.82-3.158l3.723-1.55c.239-.1.464-.23.67-.388l3.201-2.451Z"/>
  <path fill="#fff" d="M32.119 23.411a3 3 0 0 1 3.644-.002l2.17 1.658c.207.157.432.287.671.386l2.522 1.047a3 3 0 0 1 1.825 3.156l-.35 2.707a3.002 3.002 0 0 0 0 .774l.354 2.706a3 3 0 0 1-1.821 3.158l-2.52 1.05c-.24.1-.465.23-.67.387l-2.17 1.66a3 3 0 0 1-3.644.003l-2.17-1.658a3 3 0 0 0-.67-.386l-2.523-1.047a3 3 0 0 1-1.824-3.156l.35-2.707a2.997 2.997 0 0 0 0-.774l-.354-2.706a3 3 0 0 1 1.82-3.158l2.521-1.05c.24-.1.465-.23.67-.387l2.169-1.66Z"/>
  <path fill="#9A9CA5" d="M274.584 69.818c-1.155.847-1.327 1.754-1.356 2.01a6.958 6.958 0 0 1-.511.303c.244-.423.471-.854.674-1.293.343-.752.646-1.521.892-2.314.031-.082.054-.173.077-.264a6.5 6.5 0 0 1 .859-1.82c.024-.034.047-.075.079-.109 3.243-1.872 1.69-5.58 1.69-5.58.06.82-.704 1.456-1.487 2.972-.657 1.283-.419 2.176-.335 2.413-.165.265-.315.498-.449.689.053-.24.098-.478.135-.726a18.05 18.05 0 0 0 .245-2.46l.012-.313a4.07 4.07 0 0 0 .003-.313l-.009-.616-.033-.616c-.01-.106-.011-.205-.021-.312l-.028-.303a2.209 2.209 0 0 1 .023-.609l.216-1.178c2.341-2.96-.44-5.821-.44-5.821.349.743-.129 1.62-.313 3.325-.156 1.44.394 2.18.558 2.375a11.11 11.11 0 0 1-.188.882l-.027-.188c-.027-.205-.079-.402-.114-.607l-.061-.303a3.654 3.654 0 0 0-.069-.303c-.102-.401-.197-.794-.331-1.187l-.093-.294-.043-.148-.05-.147-.21-.58a22.6 22.6 0 0 0-.425-.997 5.356 5.356 0 0 1-.479-1.867 7.355 7.355 0 0 0-.039-.443c1.228-3.593-2.325-5.333-2.325-5.333.572.575.409 1.572.796 3.235.335 1.417 1.092 1.924 1.303 2.044.08.483.118.886.146 1.173-.008-.008-.008-.016-.017-.033l-.148-.269c-.05-.09-.108-.17-.157-.26l-.322-.522-.346-.504c-.057-.081-.115-.171-.173-.252l-.181-.244a13.67 13.67 0 0 0-.591-.756c-.287-.357-.681-.886-1.025-1.259a2.358 2.358 0 0 1-.403-.586c-1.512-3.125-5.091-2.185-5.091-2.185.806.037 1.335.9 2.71 1.875 1.083.773 1.936.711 2.249.65.04.015.081.023.121.038l.417.43a16.859 16.859 0 0 1 1.526 1.876l.173.244c.057.081.107.171.165.252l.329.513.141.237a10.242 10.242 0 0 0-1.083-.798c-1.981-3.226-5.539-1.472-5.539-1.472.804-.102 1.459.653 2.976 1.378 1.29.614 2.147.33 2.38.236a13.6 13.6 0 0 1 1.195.772c.155.113.294.259.377.43l.141.269c.381.71.69 1.461.975 2.221l.194.573.05.147.042.147.085.295c.119.384.205.786.292 1.18.025.097.043.196.06.294v.008a9.308 9.308 0 0 0-.772-1.024c-.972-3.676-4.87-3.06-4.87-3.06.792.145 1.208 1.067 2.449 2.208 1.054.979 1.964.957 2.205.938.286.308.516.584.688.795.238.292.405.651.442 1.037l.001.008.073.6.018.147.01.148.021.303.02.304c.01.099.012.206.013.304.003.206.014.403.017.608l-.007.608c.001.099-.005.198-.012.305l-.019.304a23.07 23.07 0 0 1-.118 1.3c-.086-.36-.196-.704-.305-1.03.379-3.787-3.484-4.634-3.484-4.634.691.425.762 1.435 1.518 2.953.647 1.297 1.497 1.613 1.74 1.675.092.237.176.45.243.638.168.466.216.983.11 1.47v.008a17.507 17.507 0 0 1-.618 2.326c-.263.76-.566 1.496-.918 2.217a8.624 8.624 0 0 1-.329.613c.058-.428.092-.84.103-1.235 1.706-3.378-1.573-5.615-1.573-5.615.493.65.193 1.617.347 3.316.134 1.444.811 2.059 1.015 2.212l.002.164a4.557 4.557 0 0 1-.767 2.584l-.008.009c-.441.663-.94 1.28-1.471 1.87-.134.142-.261.3-.404.434l-.421.417c-.008-.008-.008 0-.008-.008.126-.232.235-.472.336-.704 2.864-2.442.68-5.796.68-5.796.205.794-.436 1.568-.936 3.195-.422 1.387-.031 2.22.101 2.44-.086.206-.164.404-.234.57a2.802 2.802 0 0 1-.805 1.08l-.008.008c-.605.502-1.234.98-1.897 1.392-.391.245-.782.472-1.19.684a8.97 8.97 0 0 0 .459-.541c2.751-1.348 1.691-4.463 1.691-4.463.002.674-.66 1.152-1.375 2.346-.614 1.012-.466 1.757-.407 1.954-.086.124-.173.24-.252.34a2.611 2.611 0 0 1-.987.796h-.008c-.713.314-1.45.588-2.187.813h-.008a.489.489 0 0 0-.348.465.492.492 0 0 0 .644.492 20.566 20.566 0 0 0 2.29-.913c.744-.356 1.454-.77 2.14-1.223.415-.27.814-.563 1.204-.873a3.485 3.485 0 0 1 1.825-.742c3.499 1.313 5.259-2.288 5.259-2.288-.572.576-1.549.393-3.179.762-1.389.316-1.901 1.08-2.019 1.304a16.62 16.62 0 0 1-.876.103c.215-.2.429-.409.643-.618l.421-.45c.142-.15.269-.308.412-.466a18.6 18.6 0 0 0 1.477-1.986c.007-.017.015-.025.023-.041.221-.34.515-.616.866-.81.056-.034.112-.06.168-.093 3.726-.195 3.957-4.217 3.957-4.217-.279.744-1.25.963-2.605 1.961Zm-59.591-1.356c1.192.894 1.34 1.808 1.361 2.064.19.126.363.234.529.325a16.259 16.259 0 0 1-.665-1.32 19.013 19.013 0 0 1-.858-2.35 2.444 2.444 0 0 1-.072-.268 6.349 6.349 0 0 0-.842-1.856c-.024-.034-.047-.076-.079-.111-3.365-2.006-1.582-5.65-1.582-5.65-.095.819.691 1.486 1.464 3.034.648 1.31.362 2.192.264 2.426.165.272.315.51.45.707a10.182 10.182 0 0 1-.115-.73 17.078 17.078 0 0 1-.168-2.471l-.001-.313a3.617 3.617 0 0 1 .008-.312l.033-.616.058-.614c.014-.107.019-.205.033-.311l.042-.303c.028-.204.03-.41-.002-.61l-.185-1.187c-2.368-3.056.683-5.8.683-5.8-.397.728.077 1.625.208 3.337.112 1.446-.499 2.163-.68 2.351.05.349.111.648.167.89l.035-.188c.037-.203.098-.398.143-.601l.076-.3c.022-.098.054-.204.084-.301.124-.397.239-.786.396-1.173l.109-.29.051-.146.059-.145.244-.572c.154-.33.317-.658.487-.978.304-.577.508-1.2.577-1.847.016-.147.033-.295.057-.442-1.167-3.626 2.662-5.227 2.662-5.227-.628.552-.493 1.555-.964 3.201-.408 1.403-1.228 1.878-1.456 1.99-.103.48-.158.88-.199 1.167.009-.008.01-.016.019-.032l.168-.263c.056-.088.12-.167.176-.254l.36-.508.385-.49c.064-.08.128-.166.192-.245l.201-.237c.21-.252.428-.496.654-.73.317-.346.755-.858 1.133-1.217.18-.171.335-.36.449-.569 1.719-3.079 5.473-1.983 5.473-1.983-.855.004-1.447.846-2.94 1.763-1.175.728-2.076.631-2.406.556-.043.014-.086.02-.13.034l-.457.413a17.107 17.107 0 0 0-1.686 1.812l-.192.237c-.064.079-.12.167-.184.245l-.369.5-.157.23c.391-.292.789-.534 1.177-.753 2.218-3.143 5.921-1.242 5.921-1.242-.848-.136-1.57.592-3.204 1.254-1.389.56-2.286.242-2.529.138a14.5 14.5 0 0 0-1.295.722 1.23 1.23 0 0 0-.415.415l-.159.263c-.43.693-.785 1.432-1.116 2.18l-.226.565-.059.145-.05.145-.101.291c-.14.38-.247.778-.353 1.167-.03.097-.053.195-.075.293v.008a9.36 9.36 0 0 1 .856-.992c1.167-3.635 5.271-2.858 5.271-2.858-.843.112-1.319 1.017-2.676 2.106-1.152.935-2.115.876-2.37.846-.314.296-.568.563-.758.767a1.901 1.901 0 0 0-.507 1.019l-.001.008-.1.595-.024.147-.017.148-.033.303-.033.302c-.014.098-.019.205-.025.304-.011.205-.029.401-.04.607l-.015.608c-.006.099-.002.198.001.305l.009.305c.011.437.039.875.076 1.305.105-.357.234-.696.362-1.018-.26-3.801 3.862-4.489 3.862-4.489-.748.397-.861 1.404-1.717 2.89-.751 1.253-1.663 1.534-1.922 1.586-.107.233-.203.442-.281.627a2.54 2.54 0 0 0-.172 1.465v.008c.137.798.318 1.581.568 2.352.249.77.543 1.519.889 2.253.1.211.208.423.326.627a10.65 10.65 0 0 1-.063-1.239c-1.681-3.448 1.875-5.548 1.875-5.548-.546.63-.264 1.608-.491 3.3-.195 1.439-.936 2.025-1.157 2.17l-.009.164c-.04.92.202 1.839.716 2.615l.008.009a16.58 16.58 0 0 0 1.488 1.93c.138.148.266.311.412.45l.43.435c.009-.007.009 0 .009-.007a8.993 8.993 0 0 1-.329-.718c-2.942-2.56-.504-5.823-.504-5.823-.247.786.403 1.586.872 3.233.395 1.404-.05 2.22-.198 2.435.083.21.158.411.226.58.174.429.453.814.813 1.113l.008.009c.622.526 1.271 1.03 1.957 1.47.405.26.811.504 1.235.732-.17-.19-.331-.38-.466-.56-2.864-1.46-1.624-4.532-1.624-4.532-.027.674.656 1.18 1.369 2.403.612 1.037.427 1.776.357 1.97.087.128.175.248.255.351.263.352.607.641 1.016.836h.008c.743.344 1.513.648 2.286.903h.009c.21.07.362.267.35.48-.011.37-.372.582-.7.466a22.606 22.606 0 0 1-2.391-1.008 19.299 19.299 0 0 1-2.222-1.311c-.429-.286-.84-.596-1.241-.922a3.828 3.828 0 0 0-1.906-.817c-3.755 1.168-5.484-2.505-5.484-2.505.584.599 1.626.456 3.338.893 1.459.373 1.973 1.158 2.089 1.386.356.06.661.11.925.14-.22-.21-.439-.427-.659-.644l-.428-.467c-.146-.156-.274-.32-.419-.483a18.736 18.736 0 0 1-1.49-2.047c-.008-.017-.016-.026-.023-.042a2.527 2.527 0 0 0-.887-.846c-.058-.036-.117-.064-.175-.1-3.939-.348-4.033-4.38-4.033-4.38.284.773 1.304 1.033 2.702 2.087Z"/>
  <path fill="#00F0B5" d="M243.738 50.796a3 3 0 0 1 3.644.067l3.158 2.508c.203.161.426.295.663.4l3.694 1.616a2.999 2.999 0 0 1 1.764 3.19l-.594 3.987a2.993 2.993 0 0 0-.014.774l.446 4.006a3 3 0 0 1-1.881 3.123l-3.751 1.48a3.03 3.03 0 0 0-.677.374l-3.248 2.39a3 3 0 0 1-3.644-.067l-3.158-2.509a2.966 2.966 0 0 0-.663-.399l-3.693-1.617a3 3 0 0 1-1.765-3.19l.594-3.987c.038-.256.043-.516.014-.773l-.446-4.006a3 3 0 0 1 1.881-3.123l3.751-1.48c.241-.095.469-.22.677-.374l3.248-2.39Z"/>
  <path fill="#fff" d="M243.688 53.377a3 3 0 0 1 3.644.067l2.139 1.699c.203.161.425.295.663.399l2.501 1.095a2.999 2.999 0 0 1 1.764 3.19l-.402 2.7a2.992 2.992 0 0 0-.014.773l.302 2.713a3 3 0 0 1-1.881 3.123l-2.54 1.002c-.241.095-.468.22-.677.374l-2.2 1.619a3 3 0 0 1-3.644-.067l-2.138-1.7a3.012 3.012 0 0 0-.663-.398l-2.501-1.095a3.001 3.001 0 0 1-1.765-3.19l.402-2.7c.038-.256.043-.516.015-.774l-.302-2.712a3 3 0 0 1 1.88-3.123l2.54-1.002c.241-.095.469-.22.677-.374l2.2-1.619Z"/>
</svg>
