<svg xmlns="http://www.w3.org/2000/svg" width="488" height="404" fill="none" viewBox="0 0 488 404">
  <g class="illustration">
    <path fill="#E5E8ED" d="m291.271 47.2587-9.906 56.7683 67.372 29.544 16.717-95.799-67.372-29.54446-6.811 39.03116Z" class="Path"/>
    <path stroke="#1E212C" stroke-linecap="round" stroke-linejoin="round" stroke-width="1.5" d="M291.277 47.2589s19.293-4.498 26.388-18.2886c0 0 7.622 30.1977 31.232 38.5444" class="Path"/>
    <path fill="#1E212C" d="M327.609 73.8248c1.039.181 2.029-.5141 2.21-1.5525.181-1.0385-.515-2.0271-1.554-2.2082-1.04-.181-2.029.5141-2.21 1.5525-.182 1.0385.514 2.0271 1.554 2.2082Zm-28.907-5.0352c1.04.1811 2.029-.514 2.21-1.5525.182-1.0384-.514-2.0271-1.553-2.2081-1.04-.1811-2.029.514-2.211 1.5525-.181 1.0385.515 2.0271 1.554 2.2081Z" class="Oval"/>
    <path stroke="#1E212C" stroke-linecap="round" stroke-linejoin="round" stroke-width="1.5" d="m305.555 79.6024 5.057-28.9767-14.53-2.531m38.5 6.7065-14.53-2.5309" class="Path"/>
    <path fill="#EDEEEF" d="m354.433 73.5585-1.756 10.0628c5.433.9464 10.605-2.6868 11.552-8.1149.053-.3015.091-.6021.116-.9016.514-6.1991-8.843-7.1742-9.912-1.0463Z" class="Path"/>
    <path stroke="#1E212C" stroke-linecap="round" stroke-linejoin="round" stroke-width="1.5" d="M352.679 83.6214c5.433.9464 10.606-2.6868 11.553-8.1149m-53.569 12.3464c2.64.4599 5.356-.147 7.548-1.6873 2.193-1.5403 3.684-3.8878 4.144-6.526m-40.988 24.3864 67.371 29.545m-43.187-53.944 6.082 2.6674" class="Path"/>
    <path stroke="#1E212C" stroke-linecap="round" stroke-linejoin="round" stroke-width="1.5" d="M289.272 58.7459S270.155-9.4708 327.996 6.7516c0 0 87.123 28.3768 27.364 88.8896" class="Path"/>
    <path fill="#D7DADD" d="M487.166 343.248H21.747c-.2212 0-.4333-.087-.5897-.244-.1564-.156-.2442-.368-.2442-.589 0-.221.0878-.433.2442-.589.1564-.156.3685-.244.5897-.244h465.419c.221 0 .433.088.589.244.157.156.244.368.244.589 0 .221-.087.433-.244.589-.156.157-.368.244-.589.244Z" class="Vector"/>
    <path fill="#fff" d="M120.51 189.486c66.133 0 119.744-40.978 119.744-91.5271S186.643 6.43164 120.51 6.43164C54.377 6.43164.765625 47.4098.765625 97.9589.765625 148.508 54.377 189.486 120.51 189.486Z" class="Vector"/>
    <path fill="#D7DADD" d="M120.562 190.319C54.0851 190.319 0 148.896 0 97.959 0 47.0216 54.0351 5.61523 120.562 5.61523c66.526 0 120.578 41.42307 120.578 92.34377 0 50.921-54.135 92.36-120.578 92.36Zm0-183.03751C55.0024 7.28149 1.66775 47.9547 1.66775 97.959c0 50.004 53.36795 90.694 118.89425 90.694 65.525 0 118.91-40.673 118.91-90.694 0-50.0209-53.385-90.67751-118.91-90.67751Z" class="Vector"/>
    <path fill="#fff" d="M253.581 58.5854c-.563.0168-1.122.095-1.668.2333-6.254 1.6662-8.005 10.2308-.984 12.5302.97.2626 1.984.3178 2.977.1618.992-.1559 1.941-.5195 2.783-1.0668.842-.5473 1.559-1.2662 2.104-2.1094.545-.8433.906-1.792 1.059-2.7842.113-.8821.034-1.7781-.232-2.627-.265-.8489-.71-1.6306-1.306-2.2917-.595-.6612-1.326-1.1862-2.143-1.5394-.817-.3531-1.7-.526-2.59-.5068Z" class="Vector"/>
    <path fill="#B3B7BC" d="M252.781 72.482c-.725-.0009-1.445-.1133-2.135-.3332-1.496-.3782-2.818-1.2545-3.749-2.4842-.931-1.2298-1.414-2.7397-1.371-4.2808.098-1.7271.749-3.377 1.857-4.7062 1.108-1.3291 2.615-2.2671 4.297-2.6754.621-.1594 1.26-.2379 1.901-.2332 1.004-.0201 2.001.1763 2.922.5757.921.3994 1.745.9925 2.417 1.7389.671.7464 1.173 1.6285 1.472 2.5862.299.9578.388 1.9687.261 2.9639-.138 1.1252-.528 2.2051-1.14 3.1598-.612.9546-1.431 1.7596-2.396 2.3555-1.286.8528-2.792 1.3157-4.336 1.333Zm.8-13.0468c-.5-.0048-.999.0568-1.484.1833-1.333.3156-2.53 1.0512-3.413 2.0984s-1.405 2.3503-1.49 3.7168c-.028 1.1805.351 2.3346 1.074 3.269.723.9343 1.745 1.5921 2.895 1.8631.851.2226 1.739.2648 2.608.1239.868-.1409 1.697-.4618 2.434-.942.736-.4802 1.364-1.1092 1.843-1.8464.479-.7372.798-1.5664.937-2.4342.101-.7609.036-1.5345-.19-2.2681-.225-.7336-.607-1.4098-1.119-1.9825-.511-.5727-1.14-1.0283-1.844-1.3357-.704-.3074-1.466-.4594-2.234-.4456h-.017Z" class="Vector"/>
    <path fill="#00F0B5" d="m399.276 229.26 34.472-8.731c-1.301-2.466-22.248-65.267-41.46-77.48-16.494-13.697-49.616-14.997-87.123-16.496-12.006-.702-24.047.473-35.69 3.482-43.745 12.08-74.482 74.065-74.482 74.065l43.095 8.515s-6.855 64.017-12.859 142.064c0 0 68.678 15.447 175.981 9.431 0 0-2.952-123.752-1.934-134.85Z" class="Vector"/>
    <path fill="#1E212C" d="m294.375 148.33-35.656 213.93 72.463 5.232 15.711-231.409-52.518 12.247Z" class="Vector"/>
    <path fill="#1E212C" d="m331.183 368.324-72.447-5.232c-.116-.009-.23-.042-.333-.097-.103-.054-.194-.129-.268-.219-.137-.187-.197-.42-.166-.65l35.656-213.93c.023-.161.095-.31.205-.429.11-.12.254-.202.412-.238l52.534-12.263c.126-.033.257-.033.382-.001.126.032.241.095.335.184.101.082.181.186.233.305.052.119.076.249.068.378l-15.711 231.409c-.007.109-.035.215-.084.312s-.116.184-.199.255c-.084.075-.181.133-.287.17-.106.037-.218.053-.33.046Zm-71.48-6.748 70.713 5.115 15.576-229.476-50.899 11.881-35.39 212.48Zm172.394-72.964c-.18.001-.356-.057-.5-.167l-24.599-18.862c-.175-.138-.29-.338-.321-.558-.031-.22.024-.444.154-.625.137-.17.336-.281.553-.309.218-.028.438.029.614.159l24.616 18.879c.135.108.232.254.28.42.047.165.043.341-.014.504-.057.162-.162.303-.303.403-.14.101-.308.155-.48.156Z" class="Vector"/>
    <path fill="#fff" d="M336.885 150.813s-9.422-9.031-11.924-20.078c-2.502-11.047-1.534-13.43-3.252-13.813-1.718-.383-4.62.783-6.771 4.549-2.151 3.765-1.568 17.012 1.935 22.344 3.502 5.332 20.012 6.998 20.012 6.998Z" class="Vector"/>
    <path fill="#1E212C" d="M336.883 151.628h-.083c-.684-.083-16.945-1.782-20.63-7.381-3.686-5.599-4.32-19.112-1.952-23.211 2.369-4.099 5.504-5.415 7.655-4.999 1.551.333 1.668 1.666 2.118 4.482.284 2.067.701 5.199 1.785 9.998 2.418 10.664 11.591 19.578 11.674 19.662.12.123.201.279.234.447.032.169.015.344-.05.503-.066.145-.171.269-.304.357-.133.088-.287.138-.447.142Zm-15.81-33.941c-1.351 0-3.619 1.033-5.42 4.165-1.801 3.133-1.501 16.296 1.918 21.478 2.301 3.516 11.674 5.549 17.094 6.349-2.869-3.166-8.606-10.348-10.507-18.779-1.101-4.832-1.534-8.014-1.818-10.114-.333-2.416-.45-2.983-.817-3.066-.149-.023-.3-.029-.45-.017v-.016Z" class="Vector"/>
    <path fill="#fff" d="M197.611 205.266s-41.894 102.991-26.184 134.316c15.711 31.326 170.227 45.322 170.227 45.322s19.647 8.332 25.75 9.598c6.104 1.266 29.253 2.616 29.253 2.616s-8.739 1.666-5.687 4.349c3.052 2.683 20.013 2.616 21.831-3.483 1.817-6.098-3.052-30.525-8.339-34.458-5.287-3.932-64.609-18.328-68.962-18.745-4.352-.417-102.132-34.308-102.132-34.308l12.658-95.643" class="Vector"/>
    <path fill="#1E212C" d="M399.324 404c-3.886 0-7.471-.65-8.889-1.867-.35-.236-.621-.572-.779-.964-.157-.392-.194-.822-.105-1.235.242-.523.589-.991 1.02-1.375.43-.384.934-.676 1.482-.858-7.088-.45-20.33-1.399-24.816-2.366-5.937-1.266-23.982-8.831-25.784-9.581-7.971-.733-155.1-14.53-170.777-45.805-6.671-13.213-4.203-39.99 7.155-79.53 8.338-29.36 18.912-55.203 19.012-55.47.084-.205.246-.369.451-.455.205-.086.436-.087.641-.003.206.084.37.246.456.451.086.204.087.435.003.64-.417 1.033-41.577 102.925-26.217 133.634 15.36 30.709 168.009 44.755 169.56 44.889.077-.017.157-.017.233 0 .201.083 19.647 8.331 25.617 9.547 5.971 1.217 28.885 2.583 29.119 2.6.201.011.392.095.536.236.144.141.232.329.248.53.009.202-.052.401-.174.562-.122.161-.296.275-.493.321-2.519.5-5.454 1.666-5.654 2.4 0 .116.15.333.35.499 1.668 1.433 9.673 2.233 15.644.45 1.901-.583 4.303-1.666 4.836-3.532 1.768-6.165-3.335-29.993-7.988-33.558-4.653-3.566-63.258-18.063-68.545-18.579-4.419-.45-98.397-32.975-102.333-34.358-.18-.061-.334-.182-.434-.343-.1-.161-.142-.352-.116-.54l12.658-95.66c.014-.109.05-.215.105-.311.055-.095.128-.179.216-.246.087-.068.187-.117.294-.146.107-.029.218-.036.327-.022.11.014.215.05.311.105.096.055.18.128.247.216.068.087.117.187.146.294.029.106.036.217.022.327l-12.575 94.976c33.972 11.764 97.964 33.708 101.316 34.042 3.352.333 63.658 14.629 69.378 18.912 5.72 4.282 10.373 29.109 8.589 35.357-.584 2.05-2.652 3.666-5.954 4.666-2.712.77-5.519 1.157-8.339 1.15Z" class="Vector"/>
    <path fill="#fff" d="M374.826 235.359s-28.135-71.982-36.04-83.829c-7.905-11.847-42.594-40.773-46.913-37.891-4.32 2.883-3.052 6.099-1.251 8.331 1.801 2.233 11.857 9.148 11.857 9.148s-11.324-5.198-11.674 1.666c-.35 6.865 8.339 10.964 8.339 10.964s-9.523-7.015-9.89.534c-.047 2.201.562 4.366 1.75 6.221 1.187 1.854 2.901 3.314 4.921 4.193 0 0-10.14-8.598-9.172.366 1.667 14.73 31.287 32.326 31.287 32.326l12.574 122.419s4.503 70.999 49.849 68.85c58.188-2.766 75.049-86.645 45.964-157.578" class="Vector"/>
    <path fill="#1E212C" d="M378.362 379.422c-43.762 0-48.632-68.983-48.682-69.682l-12.524-121.97c-3.569-2.166-29.753-18.495-31.321-32.742-.267-2.433.234-3.999 1.485-4.665.759-.363 1.626-.434 2.435-.2-1.051-1.83-1.544-3.927-1.418-6.032-.059-.788.105-1.576.473-2.274.369-.699.928-1.279 1.612-1.675.739-.32 1.555-.424 2.351-.3-1.861-1.949-2.874-4.555-2.818-7.248-.005-.712.169-1.413.508-2.039.338-.626.828-1.157 1.426-1.544 1.789-.817 3.809-.976 5.704-.45-2.695-1.856-5.244-3.917-7.622-6.165-.694-.644-1.22-1.448-1.532-2.341-.312-.894-.402-1.85-.261-2.786.142-.936.51-1.823 1.072-2.585.562-.761 1.302-1.374 2.156-1.785 3.168-2.117 15.843 7.531 23.098 13.48 9.356 7.648 20.697 18.245 25.016 24.643 7.855 11.797 35.023 81.047 36.124 83.996.076.206.067.433-.023.633-.091.199-.256.355-.461.434-.1.042-.208.064-.318.064-.109-.001-.217-.024-.317-.068-.099-.043-.189-.107-.264-.187-.074-.079-.132-.173-.168-.276-.284-.716-28.202-72.015-35.974-83.663-3.619-5.431-13.509-15.196-24.632-24.293-13.459-11.014-20.013-14.064-21.114-13.331-.626.333-1.175.794-1.609 1.355-.434.56-.744 1.206-.909 1.895-.029.694.083 1.387.329 2.037.247.651.623 1.244 1.105 1.745 1.417 1.666 8.922 7.065 11.674 8.998.169.121.287.301.33.504.044.204.009.416-.096.596-.1.183-.266.322-.464.387-.199.065-.415.052-.604-.038-1.834-.849-7.088-2.716-9.373-1.333-.365.244-.661.577-.86.968-.198.391-.293.827-.274 1.265-.2 3.866 2.836 6.832 5.187 8.548.958.485 1.878 1.042 2.752 1.666.158.126.265.305.301.504.036.199-.002.403-.106.577-.104.173-.267.302-.459.364-.193.062-.401.052-.587-.028-.982-.48-1.925-1.037-2.818-1.667-1.668-.883-3.653-1.483-4.753-.966-.684.317-1.068 1.166-1.134 2.516-.079 1.313.119 2.628.581 3.859.463 1.232 1.18 2.352 2.104 3.289 1.298.757 2.531 1.621 3.685 2.583.15.129.25.307.28.503.031.195-.009.395-.113.563-.104.17-.265.297-.455.358s-.395.053-.579-.024c-1.375-.624-2.629-1.487-3.702-2.55-1.518-.85-2.952-1.366-3.703-.966-.75.4-.8 1.383-.617 3.016 1.551 14.146 30.587 31.525 30.87 31.659.114.066.211.157.283.267.073.11.119.235.134.366l12.575 122.419c0 .734 4.903 70.233 48.965 68.1 18.262-.866 33.439-9.997 43.929-26.46 19.879-31.176 20.413-83.413 1.317-129.968-.078-.203-.075-.43.008-.631.084-.202.243-.364.443-.452.206-.079.435-.077.639.007.205.084.37.242.461.443 19.28 47.038 18.696 99.875-1.467 131.501-10.774 16.912-26.434 26.327-45.246 27.226l-2.035.05Z" class="Vector"/>
    <path fill="#fff" d="M373.376 232.592s22.698 61.651 28.518 81.979l-28.518-81.979Z" class="Vector"/>
    <path fill="#1E212C" d="M401.896 315.405c-.182.003-.358-.054-.503-.163-.145-.108-.25-.262-.298-.436-5.754-20.079-28.268-81.314-28.502-81.93-.041-.104-.06-.215-.058-.326.003-.111.028-.221.074-.322.046-.102.112-.193.194-.269.081-.076.178-.134.282-.172.105-.038.217-.054.328-.049.111.006.22.034.321.083.1.049.189.117.263.201.073.084.129.182.164.287.217.617 22.765 61.902 28.535 82.047.058.212.031.438-.075.63-.106.193-.282.337-.492.403l-.233.016ZM249.713 173.29c0 1.75-3.502 34.308-3.502 34.308l3.502-34.308Z" class="Vector"/>
    <path fill="#1E212C" d="M246.209 208.415h-.084c-.218-.025-.418-.136-.556-.307-.137-.172-.201-.391-.178-.61.968-9.031 3.486-32.808 3.486-34.208 0-.221.088-.433.244-.589.157-.156.369-.244.59-.244.221 0 .433.088.59.244.156.156.244.368.244.589 0 1.766-3.336 33.059-3.486 34.392-.025.206-.126.395-.283.531-.157.135-.36.207-.567.202ZM99.6821 111.539c-.9672-12.4467 3.9359-20.628 17.7619-30.5255 12.458-8.7645 16.01-13.3301 15.476-20.2784-.65-8.3312-8.188-12.9134-19.429-12.047-13.8922 1.0831-21.764 10.7141-21.5472 26.6601l-30.4031.1c-1.3342-30.4758 18.5621-51.9371 50.0323-54.3699 27.985-2.1661 49.716 13.1801 51.5 36.241 1.101 14.0799-5.003 24.6106-20.63 35.8745-12.625 9.3972-15.41 13.0972-14.859 20.2452l.55 7.148-27.585 2.183-.8669-11.231Zm0 25.461 32.5549-2.533 2.451 31.659-32.638 2.499L99.6821 137Z" class="Vector"/>
    <path fill="#fff" d="M270.407 79.0977c4.786.9665 5.303-7.2148.25-6.2984-.748.0998-1.436.4598-1.943 1.0167-.508.5568-.803 1.2748-.833 2.0274-.029.7527.207 1.4917.669 2.087.462.5953 1.12 1.0087 1.857 1.1673Z" class="Vector"/>
    <path fill="#B3B7BC" d="M271.177 79.9801c-.314-.0012-.627-.0347-.934-.1-.911-.1447-1.74-.6143-2.331-1.3219-.592-.7076-.907-1.6053-.888-2.5272.007-.9817.36-1.9296.998-2.6765.637-.7469 1.519-1.2448 2.488-1.4058.722-.185 1.484-.1436 2.182.1187.699.2623 1.299.7328 1.72 1.3476.467.7559.703 1.6314.68 2.5193-.024.8879-.306 1.7496-.813 2.4795-.345.4991-.81.9039-1.352 1.1775-.541.2736-1.143.4072-1.75.3888Zm-.517-1.6663c.429.1248.887.1097 1.307-.0431.419-.1528.78-.4354 1.028-.8067.296-.4559.462-.984.48-1.5273.017-.5433-.114-1.0811-.38-1.5552-.245-.3356-.589-.5865-.984-.7179-.394-.1314-.82-.1368-1.218-.0153-.585.1007-1.116.4021-1.503.8522-.386.4501-.604 1.0208-.615 1.6139-.016.5352.168 1.0574.516 1.4643.349.4068.837.669 1.369.7351Z" class="Vector"/>
    <path fill="#D7DADD" d="M107.086 291.594c.212-2.814-.464-5.623-1.934-8.032-1.443-1.629-2.801-3.331-4.07-5.099-1.6674-3.332-.517-7.114-.917-10.697-.4012-3.088-1.9127-5.924-4.2527-7.981-2.1181-1.9-4.8365-3.199-6.8711-5.182-3.3355-3.233-4.2695-7.798-6.154-11.847-2.8644-5.909-7.5375-10.753-13.342-13.83 3.619 6.448-4.6197 14.646-.8839 21.045 1.1841 2.016 3.4355 3.499 4.3028 5.648 2.1013 5.182-4.8699 10.797-2.6518 15.946 1.1174 2.566 4.2361 4.049 5.6704 6.482 1.9512 3.332.4169 7.265.5837 10.981.2168 5.115 3.7358 9.68 7.9051 13.23 2.6017 2.199 5.4869 4.115 8.3388 6.098 3.3355 2.383 4.7864 4.899 7.7387 1.066 4.027-5.094 6.317-11.341 6.537-17.828Zm7.505 2.416c-1.084-3.966-1.852-8.248 0-11.98 2.068-4.233 7.188-7.215 7.788-11.781.4-2.999-1.318-6.032-.65-8.981.667-2.949 3.335-4.999 5.653-7.148 5.074-4.824 8.181-11.353 8.723-18.329 3.427 3.571 6.244 7.68 8.338 12.164.994 2.2 1.404 4.619 1.191 7.024-.214 2.405-1.043 4.714-2.408 6.706-.847.907-1.555 1.935-2.102 3.049-1.017 2.916 1.802 5.632 3.336 8.331.861 1.56 1.224 3.345 1.043 5.116-.182 1.772-.901 3.446-2.06 4.798-2.952 3.333-8.639 4.533-10.007 8.498-.364 1.477-.538 2.995-.517 4.516-.432 2.756-1.689 5.317-3.607 7.345-1.917 2.029-4.404 3.43-7.133 4.019-3.502.733-3.336-.484-4.053-3.083-1.067-3.399-2.568-6.782-3.535-10.264Zm-11.107-28.459c-2.485-7.598-3.486-15.546-6.0876-23.111-2.2466-5.949-4.9624-11.71-8.122-17.229l10.6403 3.966c3.3353 1.283 7.1043 2.782 8.7223 5.732 2.802 5.148-2.235 11.747.7 16.829 1.285 1.666 2.696 3.231 4.22 4.682 3.135 3.899 2.652 9.264.934 13.796-.734 1.95-3.969 12.047-6.855 9.248-1.15-1.133-1.25-5.315-1.667-6.848-.801-2.366-1.718-4.699-2.485-7.065Z" class="Vector"/>
    <path fill="#D7DADD" d="M101.947 335.866c-1.868-13.746-3.4852-25.677-3.5019-25.877l-1.6678.217c0 .2 1.6678 11.997 3.4687 25.66h1.701Zm14.377.001c2.285-17.762 4.653-30.943 5.987-32.409l-1.234-1.116c-1.851 2.033-4.353 17.445-6.421 33.525h1.668Zm-2.032-.001c-1.818-32.108-5.003-63.967-5.003-64.384l-1.668.167c0 .417 3.336 32.192 5.003 64.217h1.668Z" class="Vector"/>
    <path fill="#D7DADD" d="M85.4053 316.788h47.1637l-3.335 35.425c-.567 6.131-7.438 10.897-15.71 10.897h-9.123c-8.3388 0-15.1432-4.766-15.7269-10.897l-3.2688-35.425Z" class="Vector"/>
  </g>
</svg>
