<svg xmlns="http://www.w3.org/2000/svg" width="373" height="506" fill="none" viewBox="0 0 373 506">
  <g class="illustration">
    <g class="group">
      <path fill="#E5E8ED" d="M316.083 155.645c-.003 5.559 1.616 10.997 4.657 15.647 3.041 4.649 7.373 8.306 12.461 10.521 5.088 2.215 10.712 2.891 16.179 1.946 5.467-.946 10.539-3.472 14.592-7.268 4.052-3.796 6.91-8.696 8.22-14.098 1.309-5.402 1.015-11.069-.848-16.306-1.862-5.236-5.212-9.812-9.636-13.166-4.425-3.354-9.731-5.339-15.266-5.71v28.434h-30.359Z" class="Vector"/>
      <path fill="#00F0B5" d="M313.001 152.335h30.358V123.87c-.611-.049-1.259-.067-1.895-.067-3.739 0-7.441.738-10.895 2.172-3.454 1.434-6.593 3.536-9.236 6.185-2.643 2.65-4.739 5.795-6.169 9.257-1.429 3.461-2.165 7.171-2.163 10.918Z" class="Vector"/>
    </g>
    <g class="group">
      <path fill="#9A9CA5" d="m242.058 28.5652-10.467-6.6172 58.498-6.4734-23.61 31.7915-8.554-6.0898-12.761 5.1787-3.106-17.7898Zm3.202 12.0357.382-8.1517-.096-.0479L274.7 21.0849l-29.966 9.1586-1.434-.9111 1.96 11.2685Zm-10.419-17.8857 10.036 6.3295 38.234-11.7-48.27 5.3705Zm52.476-5.3705L247.84 32.641l18.4 13.1386 21.077-28.4349Zm-40.576 15.8717-.573 11.5083 10.705-4.3156-10.132-7.1927Z" class="Vector"/>
      <g class="Group">
        <path fill="#00F0B5" d="M216.526 69.1238c2.607 0 5.024-.5224 7.015-1.8998 2.701-1.8523 4.171-4.417 4.787-7.1242 1.991.38 4.171.2375 6.541-.7599 6.92-2.9446 10.191-10.5438 10.333-10.8287l-.995-.4275c-.048.095-3.223 7.5042-9.717 10.2588-2.133.9024-4.124 1.0449-5.925.7125.474-3.2772-.284-6.5543-1.612-8.834-1.469-2.4223-3.507-3.3722-5.356-2.4223-1.99 1.0449-2.512 3.4196-1.232 6.1268 1.138 2.4223 3.65 4.9395 6.968 5.9369-.569 2.4697-1.896 4.7969-4.314 6.4592-8.579 5.8894-26.875-5.3194-27.065-5.4143l-.569.9024c.474.3799 11.85 7.3141 21.141 7.3141Zm6.446-20.6126c1.469 0 2.607 1.6623 2.939 2.2797 1.232 2.0423 1.896 5.0344 1.469 7.9791-2.939-.9024-5.167-3.1821-6.162-5.3194-.806-1.6623-.995-3.7996.758-4.702.38-.19.711-.2374.996-.2374Z" class="Vector"/>
      </g>
    </g>
    <g class="group">
      <path fill="#D7DADD" d="M222.676 493.77V351.173l-38.79-36.478-4.234 190.306h51.85l-8.826-11.231Z" class="Path"/>
      <path fill="#E5E8ED" d="m212.719 222.019-64.585-4.433-11.743 82.915V505h59.987l-6.343-11.389 22.684-271.592Z" class="Path"/>
      <path fill="#1E212C" d="M182.589 372.994c13.581-2.151 26.981-5.321 40.087-9.485l-39.456-18.876-.631 28.361Z" class="Path"/>
      <path fill="#1E212C" d="M136.392 322.229v52.842c22.443 2.284 46.884-1.64 64.007-5.525l1.34-16.054-65.347-31.263Z" class="Path"/>
      <path stroke="#1E212C" stroke-linecap="round" stroke-linejoin="round" stroke-width="1.5" d="m196.378 505-6.343-11.389 22.684-271.591" class="Path"/>
      <path fill="#00F0B5" d="M138.629 159.354v64.021l90.512 22.291v-71.302c0-25.282-17.226-47.298-41.728-53.332-11.751-2.894-24.177-.215-33.699 7.265-9.523 7.481-15.085 18.932-15.085 31.057Z" class="Path"/>
      <path fill="#E5E8ED" d="M156.554 86.1028v10.215c0 7.8982 5.381 14.7762 13.036 16.6622l16.223 3.995V77.0366l-13.489-3.3221c-3.799-.9355-7.816-.0694-10.894 2.3488-3.078 2.4182-4.876 6.1201-4.876 10.0395Z" class="Path"/>
      <path stroke="#1E212C" stroke-linecap="round" stroke-linejoin="round" stroke-width="1.5" d="M156.554 96.3184c0 7.8986 5.381 14.7766 13.036 16.6616l16.223 3.996" class="Path"/>
      <path fill="#1E212C" d="M173.083 94.2904c.432 0 .782-.3509.782-.7839 0-.4329-.35-.7838-.782-.7838-.432 0-.782.3509-.782.7838 0 .433.35.7839.782.7839Zm-12.016 0c.433 0 .783-.3509.783-.7839 0-.4329-.35-.7838-.783-.7838-.432 0-.782.3509-.782.7838 0 .433.35.7839.782.7839Z" class="Oval"/>
      <path stroke="#1E212C" stroke-linecap="round" stroke-linejoin="round" stroke-width="1.5" d="M164.592 98.1825V86.1016h-6.04m16.003.0009h-6.039" class="Path"/>
      <path fill="#E5E8ED" d="M183.886 92.2934v4.1952c2.258 0 4.089-1.8345 4.089-4.0975 0-.1257-.006-.25-.017-.3729-.229-2.5444-4.072-2.2795-4.072.2752Z" class="Path"/>
      <path stroke="#1E212C" stroke-linecap="round" stroke-linejoin="round" stroke-width="1.5" d="M183.886 96.4881c2.258 0 4.089-1.8345 4.089-4.0975m-20.081 7.2051c.507.5093 1.196.7943 1.914.7943s1.407-.285 1.915-.7943m-7.133-1.4023 2.642.6506m-10.678-16.0992s8.561-1.0965 10.679-5.2507c0 0 2.682 4.3295 6.631 3.9611 0 0 2.295 4.6979 6.34 3.8688 0 0-.314 4.4107 3.682 5.3428" class="Path"/>
      <path stroke="#1E212C" stroke-linecap="round" stroke-linejoin="round" stroke-width="1.5" d="M156.556 90.6671s-17.168-10.1328-1.172-21.0026c15.996-10.8697 26.66-.7369 26.66-.7369s10.297 2.8923 10.481 8.7233c0 0 4.596 5.0942 3.125 9.8842 0 0 5.753 15.1069-9.718 19.8969" class="Path"/>
      <path stroke="#00F0B5" stroke-linecap="round" stroke-linejoin="round" stroke-width="1.5" d="M185.931 109.642c2.047-.244 3.999-1.005 5.673-2.21" class="Path"/>
      <path stroke="#1E212C" stroke-linecap="round" stroke-linejoin="round" stroke-width="1.5" d="M185.813 113.235v13.52c-.05 5.063 3.578 9.413 8.559 10.264 1.875.289 3.741.008 5.23-1.399 4.872-4.606 2.482-15.568-1.747-18.239.198-3.087-1.519-5.979-4.321-7.277" class="Path"/>
      <path fill="#00F0B5" d="M138.63 223.375 67.1279 345.092s86.8431 32.412 162.0131 18.416V231.236" class="Path"/>
      <path stroke="#1E212C" stroke-linecap="round" stroke-linejoin="round" stroke-width="1.5" d="M67.1279 345.094s86.8431 32.412 162.0131 18.416m-16.422-228.344s26 22.607 29.309 51.9c0 0 4.917-76.319 6.572-79.635 1.655-3.316 4.412 12.441 4.412 12.441s20.409 6.904 9.929 21.827c0 0 28.375 88.431-33.801 97.275m-72.586-112.709s-21.764 11.014-39.047 50.808c0 0-28.6829-46.491-48.9078-53.46-20.225-6.968-24.2699-7.78-25.0054-6.637-.7355 1.143 10.2963 9.249 10.2963 9.249s-5.5159 17.222 11.3996 20.586c0 0 2.6068 73.741 34.7663 84.058 32.16 10.317 61.01-32.056 61.01-32.056" class="Path"/>
    </g>
    <g class="group">
      <path fill="#D7DADD" d="M295.606 281.86c-1.71 0-3.395-.422-4.903-1.229-1.509-.808-2.796-1.976-3.746-3.401-.951-1.424-1.536-3.062-1.704-4.768-.168-1.705.087-3.426.742-5.009.654-1.584 1.688-2.981 3.01-4.068 1.323-1.088 2.892-1.831 4.57-2.165 1.677-.335 3.411-.249 5.048.249 1.636.498 3.125 1.392 4.334 2.604 1.454 1.458 2.444 3.314 2.845 5.335.401 2.021.195 4.115-.592 6.019-.787 1.903-2.119 3.53-3.829 4.675-1.709 1.145-3.719 1.757-5.775 1.758Zm0-17.735c-1.687-.001-3.322.585-4.626 1.657-1.304 1.072-2.197 2.564-2.526 4.222-.33 1.657-.075 3.378.72 4.869.796 1.491 2.082 2.659 3.641 3.305 1.558.647 3.293.732 4.907.241 1.614-.492 3.008-1.529 3.944-2.934.937-1.406 1.358-3.094 1.191-4.776-.166-1.682-.909-3.254-2.103-4.448-.674-.681-1.476-1.22-2.36-1.587-.884-.367-1.831-.553-2.788-.549Z" class="Vector"/>
      <path fill="#D7DADD" d="M311.555 289.484c-.21.002-.418-.038-.611-.12-.193-.082-.367-.202-.512-.355l-9.678-10.172c-.158-.143-.285-.316-.373-.51-.088-.194-.135-.403-.139-.616-.003-.213.038-.424.119-.621.082-.196.204-.374.357-.521.153-.147.335-.261.535-.335.199-.074.412-.105.624-.093.212.013.419.069.609.165.189.097.357.231.492.395l9.689 10.173c.211.217.354.492.409.791.056.298.022.606-.097.885s-.318.517-.571.683c-.254.166-.55.254-.853.251Z" class="Vector"/>
    </g>
    <g class="group">
      <path fill="#787A80" d="M119.98 63.115 36.5501 76.8134c-.1347.0221-.2727-.0103-.3836-.0902-.1109-.0798-.1856-.2005-.2077-.3355L25.8176 14.3743c-.0221-.135.0103-.2733.09-.3844.0796-.1111.2001-.186.3348-.2081L109.672.0834262c.134-.0193829.271.0141322.381.0934878.111.079356.186.198388.21.332155L120.405 62.5225c.022.135-.011.2733-.09.3844-.08.1111-.2.1859-.335.2081ZM36.8917 75.7118l82.4133-13.5315-9.974-60.99534L26.9169 14.7165l9.9748 60.9953Z" class="Vector"/>
      <path fill="#787A80" d="m43.4842 63.1411-.1016.0167c-7.3235.962-10.4623-5.6631-10.4943-5.731-.0289-.0639-.0451-.1329-.0474-.203-.0023-.0701.0091-.1401.0338-.2057.0246-.0657.0619-.1259.1097-.1772.0478-.0512.1053-.0925.169-.1215.0638-.029.1326-.0452.2026-.0475.07-.0024.1398.0091.2053.0338.0656.0247.1257.062.1768.11.0512.0479.0924.1055.1213.1694.1144.253 2.8697 6.0001 9.4279 5.1429l.0304-.005c3.2108-.5272 4.0665-9.5227 4.8043-17.5161.7334-8.2749 1.5385-16.1121 4.7142-17.4281.6244-.2901 1.3015-.4489 1.9895-.4666.688-.0177 1.3723.1062 2.0106.3639 3.2513 1.3794 5.2215 6.4086 7.5585 12.214 1.2285 3.3107 2.6694 6.5383 4.3137 9.6626 2.5705 4.617 6.3807 7.1173 9.5113 6.227 3.8775-1.1072 5.9591-7.1362 5.5418-16.1317-1.1793-25.65 7.0874-29.84051 10.6708-30.44978l.1321-.02169c8.9825-1.47477 14.4165 2.59887 19.3675 14.49867.026.0644.039.1332.039.2028 0 .0695-.014.1382-.041.2023-.054.1295-.157.2321-.287.2853-.13.0532-.275.0526-.404-.0017-.13-.0543-.232-.1577-.285-.2877-4.791-11.4974-9.739-15.27458-18.2535-13.87654l-.122.02002C87.6184 10.7625 83.949 21.8195 84.7773 39.0066c.4494 9.6385-1.8443 15.901-6.2911 17.1643-3.5761 1.0367-7.88-1.6752-10.6863-6.7136-1.6604-3.1497-3.1192-6.4021-4.3677-9.7373-2.13-5.3689-4.1373-10.4339-7.0082-11.6562-.5129-.2049-1.0626-.3011-1.6144-.2825-.5519.0186-1.0939.1517-1.5919.3908-2.6181 1.0885-3.3904 9.3176-4.072 16.5699-.917 9.131-1.6886 17.7468-5.6615 18.3991Z" class="Vector"/>
      <path fill="#D7DADD" d="m108.083 39.1637-11.6546 1.9136c-.1347.0221-.2727-.0103-.3836-.0901s-.1856-.2006-.2076-.3356c-.0221-.135.0102-.2732.0899-.3843.0796-.1112.2001-.186.3348-.2081l11.6541-1.9136c.135-.0221.273.0103.384.0901.111.0799.185.2006.208.3356.022.135-.011.2733-.09.3844-.08.1111-.2.1859-.335.208Zm.785 4.8145-11.6544 1.9135c-.1347.0222-.2728-.0103-.3836-.0901-.1109-.0798-.1856-.2005-.2077-.3355-.0221-.135.0103-.2733.0899-.3844.0797-.1111.2002-.186.3349-.2081l11.6539-1.9135c.135-.0221.273.0103.384.0901.111.0798.186.2005.208.3355.022.135-.011.2733-.09.3844-.08.1111-.2.186-.335.2081Zm-5.047 5.7525-5.8223.956c-.1347.0221-.2727-.0103-.3836-.0902-.1109-.0798-.1856-.2005-.2076-.3355-.0221-.135.0102-.2733.0899-.3844.0796-.1111.2001-.1859.3349-.2081l5.8217-.9559c.135-.0221.273.0103.384.0901.111.0799.186.2005.208.3355.022.1351-.011.2733-.09.3844-.08.1111-.2.186-.335.2081ZM47.4812 17.3942l-11.6543 1.9135c-.1348.0222-.2728-.0103-.3836-.0901-.1109-.0798-.1856-.2005-.2077-.3355-.0221-.135.0103-.2733.0899-.3844.0797-.1111.2001-.1859.3349-.2081l11.6543-1.9135c.1348-.0221.2728.0103.3836.0901.1109.0798.1856.2005.2077.3355.0194.1347-.0141.2716-.0933.382-.0792.1105-.198.1859-.3315.2105Zm.7969 4.8672-11.6544 1.9135c-.1347.0222-.2727-.0103-.3836-.0901-.1108-.0798-.1856-.2005-.2076-.3355-.0221-.135.0102-.2733.0899-.3844.0797-.1111.2001-.186.3349-.2081l11.6543-1.9135c.1344-.0194.271.0141.3812.0935.1102.0793.1855.1984.2101.3321.0221.135-.0103.2733-.09.3844-.0796.1111-.2001.186-.3348.2081Zm-5.051 5.731-5.8221.956c-.1347.0221-.2727-.0103-.3836-.0902-.1109-.0798-.1856-.2005-.2077-.3355-.0221-.135.0103-.2733.09-.3844.0796-.1111.2001-.1859.3348-.208l5.8221-.956c.1348-.0221.2727.0103.3836.0901.1109.0799.1856.2006.2077.3356.0221.135-.0103.2732-.0899.3843-.0797.1112-.2002.186-.3349.2081Z" class="Vector"/>
    </g>
    <g class="group">
      <path fill="#00F0B5" d="M45.8706 271.012-.00385832 254.771 11.9805 220.783l.8322.295L1.12293 254.23l45.04227 15.946-.2946.836Zm-26.7969-28.636-5.393-1.909-5.70797 16.187 5.39307 1.91 5.7079-16.188Z" class="Vector"/>
      <path fill="#00F0B5" d="m32.5659 239.214-5.393-1.909-8.1968 23.245 5.3931 1.91 8.1967-23.246Zm13.8467-.754-5.3931-1.909-9.9697 28.274 5.393 1.909 9.9698-28.274Z" class="Vector"/>
    </g>
  </g>
</svg>
