<svg xmlns="http://www.w3.org/2000/svg" width="451" height="391" fill="none" viewBox="0 0 451 391">
  <path fill="#fff" d="M291.5 201c-.4-3.2-26.167-6.333-39-7.5 2-.8.167-11.667-1-17 1.167 0 3.7-.2 4.5-1 .8-.8.333-2 0-2.5 1.667-.167 5.5-.7 7.5-1.5 1.6-.4-.333-3.833-1.5-5.5.667-.5 2.1-1.8 2.5-3 .5-1.5-4.5-5-3.5-5 .8 0 1.667-1.667 2-2.5l9-2c1 0 4.5.1 10.5.5 16.4.8 46.5 8.667 59.5 12.5 3 1.5 8.8 9.5 8 29.5-.8 20-20.333 65.667-30 86l-47.5-29c5.333-12 16.6-37.4 19-43 0-5 .5-5 0-9Z"/>
  <path fill="#fff" d="M187.002 161.5c-4.4-10 1.833-14.833 5.5-16 5.5 21 35.498 28.5 56.998 32 7 16 0 36 0 43.5-.4 8.8-52.5 70-78.5 99.5l-54-32c28.333-27.833 85.4-84.9 87-90.5 2-7-11.498-24-16.998-36.5Z"/>
  <path fill="#1E212C" d="m315.531 279.969.042.041c.206.207.494.372.783.455-2.68 2.974-3.298 7.519-1.319 11.155l.082.124c.289.496.577.95.948 1.363a111.737 111.737 0 0 1 2.433 3.099c-.371-.041-.701.041-1.031.207-.659-.868-1.402-1.777-2.144-2.727a10.775 10.775 0 0 1-.989-1.405l-.083-.124c-2.226-3.884-1.608-8.924 1.278-12.188Zm-51.082-19.17c3.999-1.942 8.122-3.595 12.699-4.834.206.165.453.289.701.372.165.041.329.041.494.041a.905.905 0 0 0 .33.207c.041 0 .083.041.124.041-4.989 1.281-9.772 2.933-13.977 4.999-.907.455-1.814.909-2.68 1.405-.124-.289-.371-.537-.618-.744.989-.496 1.937-.991 2.927-1.487Zm20.285 6.032c.082-1.157.495-1.983 1.195-2.479 1.155-.868 2.804-.496 2.845-.496l.206-.909c-.082 0-2.061-.454-3.587.661-.907.661-1.443 1.735-1.566 3.14l.907.083Zm-35.336 83.461c3.134-.042 11.751-.868 19.255-7.355 7.751-6.734 12.203-17.394 13.152-31.772l-.949-.082c-.948 14.088-5.277 24.583-12.822 31.111-8.163 7.106-17.646 7.189-19.501 7.148-4-13.965-1.526-25.699 7.256-34.913 6.597-6.941 14.513-9.709 14.595-9.751l-.288-.908c-.083.041-8.205 2.892-14.967 9.998-6.267 6.569-12.616 18.138-7.38 36.152l.083.331.329.041h1.237Z"/>
  <path fill="#1E212C" d="m249.154 344.344.948-.124c-1.814-13.345 4.082-22.559 9.359-27.971 5.731-5.867 11.998-8.594 12.039-8.635l-.371-.868c-.083.041-6.473 2.81-12.328 8.801-5.442 5.577-11.503 15.08-9.647 28.797Z"/>
  <path fill="#1E212C" d="m252.45 346.698.907-.206c-2.762-11.651 2.639-21.939 2.721-22.022l-.824-.454c-.083.082-5.649 10.659-2.804 22.682Zm7.957-4.34c12.163-4.091 16.616-22.394 16.781-23.179l-.908-.206c-.041.165-4.535 18.592-16.162 22.517l.289.868Zm37.23-31.854-31.623-20.203 4.576 9.337.124.083 14.554 9.255h.124l12.245 1.528Zm-29.314-17.642 25.273 16.155-8.04-.991-14.265-9.049-2.968-6.115Zm-105.009 23.677c.041.041.082.083.165.124.165.083.289.165.453.289a.579.579 0 0 0 .248.083c-2.804 3.016-3.381 7.685-1.319 11.362l.082.124c.289.454.618.95.989 1.363a49.928 49.928 0 0 1 2.474 3.058c-.371 0-.701.082-.989.247-.701-.867-1.402-1.776-2.185-2.685a14.274 14.274 0 0 1-.99-1.364l-.082-.123c-2.433-4.008-1.814-9.131 1.154-12.478Zm-51.579-18.098c3.999-2.024 8.122-3.759 12.74-5.082.371.29.742.537 1.072.868-4.783 1.322-9.359 3.016-13.4 5.082-.907.454-1.814.95-2.68 1.446a2.722 2.722 0 0 0-.618-.744c.948-.578 1.938-1.074 2.886-1.57Zm20.407 5.661c.083-1.157.454-1.983 1.155-2.479 1.154-.867 2.803-.578 2.845-.537l.206-.909c-.083 0-2.103-.413-3.587.744-.907.702-1.402 1.735-1.526 3.181h.907Zm-35.045 84.032c3.133-.124 11.709-1.033 19.131-7.685 7.627-6.858 11.874-17.601 12.616-31.979l-.949-.041c-.742 14.13-4.865 24.666-12.327 31.318-8.04 7.23-17.523 7.478-19.378 7.478-4.206-13.882-1.98-25.657 6.679-35.036 6.514-7.024 14.348-9.957 14.43-9.999l-.329-.909c-.083.042-8.164 3.016-14.802 10.247-6.143 6.652-12.327 18.344-6.761 36.275l.082.331h.33c.041 0 .495.041 1.278 0Z"/>
  <path fill="#1E212C" d="m96.727 382.182.948-.124c-2.02-13.303 3.711-22.641 8.906-28.095 5.648-5.949 11.833-8.8 11.915-8.841l-.371-.868c-.082.041-6.432 2.933-12.163 9.007-5.401 5.66-11.296 15.246-9.235 28.921Z"/>
  <path fill="#1E212C" d="m100.067 384.457.907-.248c-2.968-11.61 2.268-21.98 2.35-22.063l-.824-.455c-.042.166-5.484 10.825-2.433 22.766Zm7.875-4.462c12.08-4.297 16.245-22.683 16.41-23.468l-.907-.207c-.042.207-4.206 18.675-15.791 22.766l.288.909Zm37.804-32.475-31.953-19.708 4.7 9.297.124.082 14.678 9.007h.123l12.328 1.322Zm-29.603-17.105 25.521 15.742-8.081-.868-14.389-8.8-3.051-6.074Zm-.081-42.263c.866-.744 85.592-74.494 86.211-91.103.247-6.404-3.752-12.23-7.999-18.386-6.803-9.874-13.853-20.079-3.545-33.714l.742.579c-9.895 13.097-3.051 23.013 3.545 32.598 4.33 6.28 8.411 12.23 8.164 18.964-.619 16.568-78.377 84.699-86.046 91.351l52.65 31.772c4.948-5.495 77.264-86.227 80.645-101.886 5.195-23.963.082-41.482.041-41.688l.907-.289c.041.124 1.938 6.61 2.268 17.022 4.123.454 31.499 3.429 37.271 6.776 1.649.95 1.608 4.173-.123 10.164-1.32 4.503-3.587 10.494-6.721 17.807-4.824 11.197-10.348 22.187-11.462 24.377l47.002 28.962c6.267-11.775 15.337-32.763 21.769-53.546 5.277-17.187 10.637-40.283 6.143-53.008-1.402-3.967-3.752-6.652-6.926-7.974-23.419-9.71-69.307-13.346-69.761-13.387l.083-.95c.453.041 46.507 3.677 70.049 13.428 3.463 1.446 5.978 4.296 7.462 8.552 4.618 12.932-.783 36.276-6.102 53.587-6.514 21.113-15.791 42.391-22.057 54.125l-.248.454-48.238-29.706-.371-.248.206-.372c.082-.124 6.267-12.271 11.627-24.707 9.647-22.394 8.287-26.195 7.256-26.773-5.484-3.181-32.406-6.156-36.777-6.611.165 6.735-.33 14.957-2.309 24.17-3.545 16.362-77.965 99.077-81.139 102.589l-.248.289-54.422-32.846.453-.372ZM320.23 116.647c13.564-4.835 23.088-16.031 28.654-24.542 6.638-10.206 10.638-21.113 11.627-27.434 1.072-6.818.165-7.603-.041-7.727-.371-.165-1.155.537-1.608 1.075l-.412.537c-2.763 9.585-9.648 19.584-9.689 19.708l-.701-.537c.082-.083 7.05-10.288 9.689-19.832.577-2.108.907-3.76 1.03-5.04.124-3.017-.535-4.009-1.03-4.298a1.422 1.422 0 0 0-.742-.206h-.042c-.329 0-.618.082-.907.165-.907.29-1.814.95-2.309 1.363.042.661 0 1.405-.164 2.231-.825 4.834-4.536 12.602-11.503 24.294l-.743-.495c5.484-9.173 12.328-21.485 11.462-26.65-.371-1.239-.948-1.941-1.649-2.107h-.124c-1.113-.04-2.35.868-3.092 1.53-.206.164-.371.33-.536.536l-.041.041c-.66.662-1.196 1.281-1.526 1.736-1.566 6.982-10.225 22.27-10.596 22.93l-.742-.495c.083-.166 8.205-14.461 10.266-21.692l.248-1.032c.082-.414.165-.785.206-1.116.082-.909 0-1.735-.412-2.024-.33-.207-1.402-.372-4.453 2.52-2.309 2.148-4.783 6.693-7.669 11.94-4.411 8.057-9.936 18.056-17.729 25.245-5.153 4.71-11.42 6.073-18.099 3.429-.371-.413-.248-.62-.206-.826 0-.083.041-.166.041-.248 6.39 2.561 12.822 1.446 17.729-3.058 7.709-7.065 13.152-17.022 17.563-24.996 2.928-5.33 5.443-9.916 7.875-12.189a20.92 20.92 0 0 1 2.02-1.694c.248-.206 2.35-1.983 3.629-1.115.618.413.865 1.322.742 2.727.206-.207.412-.413.618-.661.041-.041.412-.455.99-.91 1.113-.908 2.432-1.652 3.628-1.445.66.082 1.237.413 1.649 1.033.33.413.536.95.66 1.528.33-.247.742-.537 1.237-.785.041-.04.494-.289 1.113-.454.041 0 .082 0 .082-.041.041 0 .083-.042.165-.042.083 0 .165-.041.206-.041h.042c.082 0 .164 0 .247-.041h.289c.536 0 1.113.124 1.566.537.99.826 1.32 2.479 1.072 5.04a23.312 23.312 0 0 1-.412 3.43v.04c.495-.37 1.072-.619 1.649-.33.783.372 1.649 1.653.536 8.718 0 .083-.041.165-.041.248-.99 5.99-4.659 16.692-11.792 27.558-5.648 8.635-15.296 19.997-29.108 24.914-6.72 2.396-13.235 3.47-19.336 3.181a34.614 34.614 0 0 1-6.35-.826c.041-.372-.082-.744-.288-1.074 7.545 1.776 16.285 1.032 25.562-2.231Z"/>
  <path fill="#00F0B5" d="M211.797 115.119c.495-2.52 1.278-4.958 2.474-7.189 0 0 .123-4.297 3.504-9.461 1.649.537 3.298 1.115 4.948 1.652-.413 1.653-.907 3.306-1.031 4.958 0 .248 0 .455.082.661-.288.909-.371 1.818-.412 2.81-.041.868-.247 1.735-.371 2.644a1.95 1.95 0 0 0-.412.827c-.042.206-.042.413-.083.578 0 .165 0 .33.041.496a24.285 24.285 0 0 0-.288 1.942c-.124 1.363-.412 2.644-.619 4.007-.206.331-.329.703-.371 1.198-.041 2.232-.742 4.421-.989 6.652v.372c0 .042-.041.083-.041.166a42.982 42.982 0 0 0-.619 3.181 4.399 4.399 0 0 0-1.031-.372 38.86 38.86 0 0 1-1.195-1.529c-.99-1.404-1.526-3.264-2.392-4.751a12.456 12.456 0 0 1-.329-1.322c-.495-2.149-.619-4.091-.536-6.28a3.414 3.414 0 0 0-.33-1.24Z"/>
  <path fill="#00F0B5" d="M181.331 110.325c16.698-46.026 64.977-43.423 64.977-43.423 3.546 9.42 9.401 1.446 9.401 1.446 30.757 4.834 49.393 22.517 49.393 22.517l-8.988 29.872-14.637-4.503-6.143 36.771-12.616 2.355s.082-1.57-4-4.049c-4.081-2.479-21.027-8.676-21.027-8.676s-18.924-8.718-21.81-13.717c-.99-1.736-.536-8.098.618-15.866l-4.081.744-31.087-3.471Z"/>
  <path fill="#1E212C" d="m183.722 110.574.949.124c-2.144 9.958-.207 21.072 5.648 32.31 7.009 13.428 19.584 21.402 28.902 25.74 11.132 5.206 22.552 7.478 28.902 7.395 6.885-.041 7.503-1.156 7.586-1.404.124-.414-.701-1.116-1.319-1.488l-.619-.372c-9.895-1.198-20.862-6.652-20.986-6.693l.413-.826c.123.041 11.297 5.578 21.109 6.652 2.185.248 3.876.289 5.154.165 2.968-.372 3.834-1.239 4.082-1.859.082-.248.123-.537.082-.827v-.041a4.623 4.623 0 0 0-.33-.909c-.453-.867-1.237-1.735-1.731-2.19-.66.166-1.402.248-2.227.248-4.865 0-13.152-2.52-25.851-7.808l.371-.868c9.937 4.132 23.171 9.131 28.119 7.354 1.154-.62 1.773-1.322 1.814-2.107v-.165c-.124-1.157-1.278-2.314-2.02-2.975-.206-.165-.413-.33-.578-.496-.041-.041-.082-.041-.082-.041-.742-.578-1.484-1.033-1.979-1.281-7.133-.413-23.625-6.817-24.325-7.106l.329-.868c.165.083 15.585 6.074 23.048 6.941l1.072.083c.453.041.824.041 1.154 0 .907-.083 1.732-.331 1.897-.785.165-.372.123-1.529-3.216-4.256-2.515-2.024-7.38-3.842-13.029-5.949-8.658-3.223-19.419-7.231-27.788-14.172-5.525-4.586-7.875-10.949-6.391-18.427l2.061-8.759.908.207-2.021 8.676c-1.237 6.941.907 13.304 6.02 17.518 8.246 6.859 18.924 10.825 27.5 14.006 5.731 2.149 10.678 3.967 13.317 6.115.783.661 1.443 1.24 1.979 1.818.247.207 2.309 2.149 1.732 3.595-.289.743-1.155 1.157-2.557 1.28.248.166.495.331.743.538.041.041.494.371 1.071.867 1.114.992 2.062 2.273 2.021 3.553.041.703-.206 1.364-.742 1.942a3.92 3.92 0 0 1-1.402.992c.288.289.659.702.989 1.157.042.041.371.496.66 1.115 0 .042.041.083.041.083.041.041.041.083.083.165.041.083.041.165.082.207v.041c.041.083.041.165.083.248 0 .041 0 .083.041.124 0 .041.041.124.041.165.083.579.041 1.157-.247 1.736-.66 1.198-2.227 1.859-4.783 2.024a22 22 0 0 1-3.463.165h-.041c.412.455.783 1.033.618 1.653-.206.868-1.361 2.024-8.493 2.107h-.248c-6.06 0-17.192-1.942-29.108-7.52-9.441-4.42-22.222-12.518-29.355-26.194-3.463-6.652-5.607-13.304-6.349-19.749-.413-4.462-.248-8.759.659-12.974Z"/>
  <path fill="#00F0B5" d="m309.736 333.291.475.397-40.333 48.554-.475-.396 40.333-48.555Zm-21.93 8.586.475.396-40.333 48.555-.475-.397 40.333-48.554Zm-28.168-99.504.475.397-40.333 48.554-.475-.396 40.333-48.555Zm-90.418-40.047.475.397-40.333 48.554-.475-.396 40.333-48.555Zm1.023-70.015.476.396-40.333 48.555-.476-.397 40.333-48.554Zm-8.406 24.148.475.396-40.332 48.555-.476-.397 40.333-48.554Zm39.434-94.211.475.397-40.333 48.554-.475-.396 40.333-48.555ZM92.786 290.26l.476.396-40.333 48.555-.476-.397 40.333-48.554Zm135.11 47.32.475.397-40.333 48.554-.475-.397 40.333-48.554ZM367.067 66.157c1.691-2.355 2.309-4.503 1.815-6.362-.578-2.231-2.557-3.182-2.639-3.182l-.412.868s1.69.785 2.143 2.603c.413 1.57-.164 3.43-1.649 5.536l.742.537Z"/>
  <path fill="#00F0B5" d="M370.862 66.118c1.649-3.016 2.061-5.785 1.278-8.14-1.031-3.181-3.834-4.503-3.958-4.544l-.412.867c.041 0 2.556 1.24 3.463 4.008.701 2.107.288 4.627-1.237 7.396l.866.413ZM337.878 45.17s.206-1.86 1.731-2.892c1.32-.91 3.258-.992 5.773-.248l.247-.91c-2.804-.825-4.989-.701-6.556.373-1.896 1.28-2.143 3.47-2.143 3.553l.948.124-.454-.041.454.041Z"/>
  <path fill="#00F0B5" d="M334.211 44.384c0-.042.33-2.81 2.639-4.587 1.772-1.363 4.246-1.776 7.38-1.28l.165-.95c-3.381-.579-6.102-.083-8.123 1.446-2.638 2.024-2.968 5.123-3.009 5.247l.948.124ZM247.38 275.757l78.624 50.613s8.287-14.833-10.06-33.466l-51.495-32.103c-6.968 2.107-14.142 6.652-17.069 14.956ZM94.916 313.642l79.449 49.332s8.04-14.957-10.596-33.301l-51.99-31.235c-7.009 2.189-14.1 6.858-16.863 15.204Z"/>
  <path fill="#D7DADD" d="m268.913 39.828 4.063 23.3-27.633 12.126-6.856-39.32 27.632-12.125 2.794 16.02Z"/>
  <path stroke="#1E212C" stroke-linecap="round" stroke-linejoin="round" stroke-width="1.5" d="M268.912 39.827s-7.913-1.846-10.823-7.507c0 0-3.126 12.395-12.81 15.82"/>
  <path fill="#1E212C" d="M254.011 50.733a.785.785 0 1 1-.269-1.546.785.785 0 0 1 .269 1.546Zm11.855-2.067a.783.783 0 1 1-.269-1.543.783.783 0 0 1 .269 1.543Z"/>
  <path stroke="#1E212C" stroke-linecap="round" stroke-linejoin="round" stroke-width="1.5" d="M263.054 53.104 260.98 41.21l5.959-1.04m-15.786 2.754 5.959-1.039"/>
  <path fill="#EDEEEF" d="m243.011 50.625.72 4.13a4.096 4.096 0 0 1-4.785-3.7c-.211-2.545 3.626-2.945 4.065-.43Z"/>
  <path stroke="#1E212C" stroke-linecap="round" stroke-linejoin="round" stroke-width="1.5" d="M243.729 54.753a4.095 4.095 0 0 1-4.738-3.331m21.973 5.071a4.145 4.145 0 0 1-4.796-3.371m16.811 10.007-27.632 12.126m17.71-22.142-2.495 1.095"/>
  <path stroke="#1E212C" stroke-linecap="round" stroke-linejoin="round" stroke-width="1.5" d="M269.736 44.541s7.84-27.998-15.883-21.34c0 0-35.733 11.647-11.223 36.483"/>
  <path fill="#fff" d="m45.919 202.512-43.43-4.051-1.053 11.295 43.43 4.051 1.053-11.295Z"/>
  <path fill="#B3B7BC" d="m44.844 214.14-43.437-4.051a.344.344 0 0 1-.303-.366l1.052-11.295a.335.335 0 0 1 .366-.303l43.437 4.052a.333.333 0 0 1 .303.365l-1.053 11.295a.335.335 0 0 1-.365.303Zm-43.04-4.689 42.768 3.99.993-10.653-42.769-3.99-.992 10.653Z"/>
  <path fill="#B3B7BC" d="m69.89 204.747-35.398-3.302-1.052 11.295 35.398 3.302 1.052-11.295Z"/>
  <path fill="#B3B7BC" d="m68.813 216.377-35.418-3.304a.337.337 0 0 1-.303-.366l1.053-11.295a.337.337 0 0 1 .365-.303l35.418 3.304a.337.337 0 0 1 .303.366l-1.052 11.295a.343.343 0 0 1-.366.303Zm-35.008-3.94 34.75 3.241.992-10.653-34.75-3.241-.992 10.653Z"/>
  <path fill="#fff" d="M42.206 190.773 7.41 187.527l-1.052 11.295 34.796 3.246 1.052-11.295Z"/>
  <path fill="#B3B7BC" d="m41.124 202.378-34.796-3.246a.335.335 0 0 1-.303-.365l1.05-11.269a.337.337 0 0 1 .365-.303l34.796 3.246a.337.337 0 0 1 .303.366l-1.052 11.295a.343.343 0 0 1-.363.276Zm-34.4-3.883 34.128 3.183.988-10.599-34.129-3.184-.987 10.6Z"/>
  <path fill="#B3B7BC" d="m65.47 192.943-23.263-2.17-1.052 11.295 23.262 2.17 1.052-11.295Z"/>
  <path fill="#B3B7BC" d="m64.387 204.544-23.263-2.17a.335.335 0 0 1-.303-.365l1.05-11.268a.337.337 0 0 1 .365-.304l23.263 2.17a.337.337 0 0 1 .303.366l-1.052 11.295a.335.335 0 0 1-.363.276Zm-22.866-2.807 22.614 2.109.987-10.599-22.614-2.11-.987 10.6Z"/>
  <path fill="#fff" d="M48.42 199.54a2.478 2.478 0 0 0 .46-4.935 2.477 2.477 0 0 0-.46 4.935Zm-6.456-14.531-30.62-2.857-.53 5.685 30.62 2.856.53-5.684Z"/>
  <path fill="#B3B7BC" d="m41.4 191.032-30.62-2.856a.333.333 0 0 1-.302-.366l.53-5.69a.337.337 0 0 1 .365-.304l30.62 2.857a.333.333 0 0 1 .303.365l-.53 5.691a.333.333 0 0 1-.12.227.332.332 0 0 1-.245.076Zm-30.223-3.494 29.952 2.794.468-5.022-29.952-2.794-.468 5.022Z"/>
  <path fill="#B3B7BC" d="m60.587 186.749-29.13-2.718-.53 5.684 29.13 2.718.53-5.684Z"/>
  <path fill="#B3B7BC" d="m60.024 192.772-29.13-2.717a.337.337 0 0 1-.303-.366l.53-5.691a.337.337 0 0 1 .366-.303l29.129 2.718a.338.338 0 0 1 .303.365l-.53 5.691a.34.34 0 0 1-.365.303Zm-28.733-3.355 28.46 2.655.469-5.022-28.462-2.655-.467 5.022Z"/>
  <path fill="#fff" d="M39.229 210.072a2.478 2.478 0 0 0 .46-4.936 2.478 2.478 0 0 0-.46 4.936Zm25.161-5.529-21.224-1.98a.34.34 0 0 1-.303-.365.337.337 0 0 1 .366-.304l21.224 1.98a.337.337 0 0 1-.062.669Zm-4.367-11.772-17.849-1.665a.333.333 0 0 1-.303-.365.337.337 0 0 1 .365-.304l17.85 1.665a.337.337 0 0 1 .303.366.34.34 0 0 1-.366.303Zm12.223-174.08L142.078.999 154.999 52 85.167 69.693z"/>
  <path fill="#00F0B5" d="m89.987 58.43-.084.023c-6.092 1.383-9.254-3.955-9.286-4.01a.453.453 0 0 1 .668-.581.452.452 0 0 1 .116.133c.116.205 2.885 4.833 8.341 3.597l.026-.007c2.662-.695 2.68-8.343 2.676-15.137-.029-7.031.037-13.7 2.608-15.057a4.249 4.249 0 0 1 3.361-.399c2.846.908 4.898 4.992 7.32 9.702a69.509 69.509 0 0 0 4.388 7.806c2.526 3.69 5.93 5.5 8.497 4.504 3.179-1.236 4.461-6.48 3.406-14.029-2.998-21.524 3.637-25.702 6.607-26.496l.109-.029c7.45-1.945 12.344 1.063 17.444 10.704a.449.449 0 0 1-.53.635.447.447 0 0 1-.262-.22c-4.934-9.315-9.396-12.111-16.457-10.267l-.101.026c-5.772 1.508-7.998 11.113-5.958 25.533 1.132 8.088-.31 13.545-3.956 14.957-2.931 1.154-6.767-.795-9.524-4.822a71.125 71.125 0 0 1-4.44-7.864c-2.213-4.358-4.3-8.47-6.813-9.275a3.37 3.37 0 0 0-2.692.342c-2.12 1.122-2.127 8.117-2.134 14.283-.058 7.767-.035 15.088-3.33 15.948Z"/>
  <path fill="#787A80" d="m154.411 52.423-69.19 18.07a.435.435 0 0 1-.532-.312L71.301 18.71a.438.438 0 0 1 .312-.532l69.19-18.07a.445.445 0 0 1 .532.312l13.387 51.47a.435.435 0 0 1-.311.532Zm-68.99 17.115 68.349-17.85-13.168-50.624-68.348 17.85 13.168 50.624Z"/>
  <path fill="#D7DADD" d="m142.517 33.168-9.665 2.524a.434.434 0 0 1-.531-.313.435.435 0 0 1 .311-.532l9.666-2.524a.435.435 0 0 1 .485.643.434.434 0 0 1-.266.202Zm1.039 4-9.665 2.524a.434.434 0 0 1-.531-.313.435.435 0 0 1 .311-.532l9.666-2.524a.435.435 0 0 1 .485.643.434.434 0 0 1-.266.202Zm-3.805 5.243-4.829 1.261a.435.435 0 0 1-.485-.643.434.434 0 0 1 .266-.202l4.828-1.26a.435.435 0 0 1 .531.312.437.437 0 0 1-.311.533ZM89.78 19.562l-9.666 2.524a.434.434 0 0 1-.531-.312.437.437 0 0 1 .311-.533l9.665-2.524a.434.434 0 0 1 .483.642.444.444 0 0 1-.263.203Zm1.05 4.039-9.665 2.525a.434.434 0 0 1-.532-.313.438.438 0 0 1 .312-.532l9.665-2.525a.443.443 0 0 1 .531.313.438.438 0 0 1-.311.532Zm-3.806 5.229-4.828 1.26a.434.434 0 0 1-.531-.312.437.437 0 0 1 .311-.533l4.829-1.26a.434.434 0 0 1 .53.312.437.437 0 0 1-.31.532Zm285.734 348.486h12.549v-12.537h-12.549z"/>
  <path fill="#D7DADD" d="m369.317 365.725 9.714-9.705 9.715 9.705h-19.429Z"/>
  <path fill="#B3B7BC" d="M393.488 377.582h17.299v-17.283h-17.299z"/>
  <path fill="#B3B7BC" d="m388.746 361.603 13.393-13.38 13.392 13.38h-26.785Z"/>
  <path fill="#00F0B5" d="M421.637 377.445h22.269v-22.248h-22.269z"/>
  <path fill="#00F0B5" d="m415.532 356.876 17.24-17.224 17.24 17.224h-34.48Z"/>
  <circle cx="418" cy="113" r="10" fill="#fff"/>
  <path fill="#787A80" d="m414.002 126.315-4.675-2.543-3.229 5.945 4.674 2.543 3.23-5.945Z"/>
  <path fill="#787A80" d="M399.6 153.599a1.381 1.381 0 0 1-.638-.173l-4.198-2.28a1.428 1.428 0 0 1-.57-1.92l10.385-19.109a1.426 1.426 0 0 1 1.918-.57l4.193 2.279a1.428 1.428 0 0 1 .57 1.92l-10.375 19.11a1.427 1.427 0 0 1-1.285.743Zm6.252-23.759a.933.933 0 0 0-.619.215.966.966 0 0 0-.237.287l-10.384 19.104a.954.954 0 0 0 .382 1.282l4.193 2.279a.947.947 0 0 0 1.28-.377l10.384-19.094a.95.95 0 0 0-.381-1.282l-4.193-2.28a.9.9 0 0 0-.425-.134Zm11.523-2.709a13.949 13.949 0 0 1-9.39-3.929 13.973 13.973 0 0 1-1.045-18.94 13.947 13.947 0 0 1 18.787-2.517 13.97 13.97 0 0 1-4.053 24.81 13.81 13.81 0 0 1-4.299.576Zm.726-27.364a13.544 13.544 0 0 0-4.165.551 13.377 13.377 0 0 0-7.689 5.998 13.39 13.39 0 0 0 3.79 17.771 13.371 13.371 0 0 0 18.001-2.382 13.391 13.391 0 0 0-.954-18.145 13.374 13.374 0 0 0-8.983-3.793Zm-.642 23.86a10.362 10.362 0 0 1-4.69-1.258 10.435 10.435 0 0 1-4.714-13.037 10.42 10.42 0 0 1 18.394-1.873 10.441 10.441 0 0 1-1.994 13.72 10.421 10.421 0 0 1-6.996 2.448Zm-4.456-1.676a9.938 9.938 0 0 0 14.23-5.776 9.954 9.954 0 0 0 .051-5.769 9.942 9.942 0 0 0-14.154-5.986 9.955 9.955 0 0 0-4.11 4.052 9.962 9.962 0 0 0 3.983 13.479Z"/>
</svg>
