<svg xmlns="http://www.w3.org/2000/svg" width="398" height="397" fill="none" viewBox="0 0 398 397">
  <g class="illustration">
    <g class="group">
      <rect width="195.33" height="209.432" fill="#fff" class="Rectangle" rx="3" transform="matrix(-1 0 0 1 389.337 13.1328)"/>
      <path stroke="#1E212C" stroke-width="1.5" d="M194.007 13.1328V222.565h195.33" class="Path"/>
      <path fill="#00F0B5" d="M335.602 6.49316h-87.8607v15.4465h87.8607z" class="Rectangle"/>
      <path fill="#00F0B5" d="M291.671 12.7959c-3.292 0-5.96-2.6642-5.96-5.95069 0-3.28647 2.668-5.950679 5.96-5.950679s5.961 2.664209 5.961 5.950679c0 3.28649-2.669 5.95069-5.961 5.95069Z" class="Oval"/>
      <path fill="#D7DADD" d="M335.602 6.49316h-87.8607v15.4465h87.8607z" class="Rectangle"/>
      <path stroke="#1E212C" stroke-width="1.5" d="M247.741 6.49219V21.9387h87.861" class="Path"/>
      <path fill="#D7DADD" d="M291.671 12.7959c-3.292 0-5.96-2.6642-5.96-5.95069 0-3.28647 2.668-5.950679 5.96-5.950679s5.961 2.664209 5.961 5.950679c0 3.28649-2.669 5.95069-5.961 5.95069Z" class="Oval"/>
      <path stroke="#fff" stroke-width="1.5" d="M291.671 222.564v166.139m105.72 0H185.952" class="Path"/>
      <path fill="#00F0B5" d="M22.726 380.291V367.5l11.8275 10.823 3.9421-33.946 31.0464 22.139 3.9421-14.759 10.8412 10.823v-17.711l13.3054 15.743 11.8273-35.422 14.784 36.431 21.683-27.083 16.262 36.898v-17.712l9.363 17.22 6.407-23.123 17.74 27.55 27.104-33.946 8.377 33.454 7.885-9.347 5.914 23.171H17.3054l-1.9708-8.904 7.3914.492Z" class="Path"/>
      <path stroke="#fff" stroke-width="1.5" d="M257.812 388.704H2.50024" class="Path"/>
      <path fill="#D7DADD" d="m81.9212 152.4 56.1248-3.684 14.535 57.232 33.371 181.607H140.53l5.29-9.464L81.9212 152.4Z" class="Path"/>
      <path fill="#B3B7BC" d="m74.6183 377.536-2.7603-103.34 44.165 8.268-10.254 105.091H68.0234l6.5949-10.019Z" class="Path"/>
      <path fill="#1E212C" d="m88.1555 277.247 27.8675 5.217-1.23 12.605c-23.1896-3.123-39.1603-9.34-39.1603-9.34l12.5228-8.482Zm55.3605-37.497s7.026 2.163 16.323 5.693l8.98 48.873c-16.371 2.982-32.313 2.972-46.251 1.646l-9.984-35.261 30.932-20.951Z" class="Path"/>
      <path fill="#00F0B5" d="m143.515 153.527 55.273 114.423s-65.555 34.444-130.7647 15.844V165.303l75.4917-11.776Z" class="Path"/>
      <path fill="#D7DADD" d="M122.95 39.4536v8.4886c0 6.5637-4.488 12.2794-10.873 13.846l-13.5307 3.3201V31.9196l11.2507-2.7606c3.168-.7774 6.518-.0577 9.086 1.9518 2.567 2.0095 4.067 5.0858 4.067 8.3428Z" class="Path"/>
      <path stroke="#1E212C" stroke-width="1.5" d="M122.95 47.9424c0 6.5637-4.488 12.2794-10.873 13.846l-13.5307 3.3201" class="Path"/>
      <path fill="#1E212C" d="M109.165 46.2579c-.361 0-.653-.2917-.653-.6514 0-.3598.292-.6514.653-.6514.36 0 .652.2916.652.6514 0 .3597-.292.6514-.652.6514Zm10.022 0c-.36 0-.652-.2917-.652-.6514 0-.3598.292-.6514.652-.6514.361 0 .653.2916.653.6514 0 .3597-.292.6514-.653.6514Z" class="Oval"/>
      <path stroke="#1E212C" stroke-width="1.5" d="M116.247 49.493V39.4541h5.037m-13.348.0009h5.038" class="Path"/>
      <path fill="#E5E8ED" d="M100.154 44.5975v3.4861c-.9043 0-1.7718-.3587-2.4114-.9973-.6396-.6385-.9989-1.5046-.9989-2.4076 0-.1045.0046-.2078.0139-.31.1911-2.1143 3.3964-1.8942 3.3964.2288Z" class="Path"/>
      <path stroke="#1E212C" stroke-width="1.5" d="M100.154 48.0837c-.9043 0-1.7718-.3588-2.4114-.9973-.6396-.6386-.9989-1.5046-.9989-2.4077" class="Path"/>
      <path stroke="#1E212C" stroke-linecap="round" stroke-linejoin="round" stroke-width="1.5" d="M113.492 50.666c-.882.8805-2.312.8805-3.194 0" class="Path"/>
      <path stroke="#1E212C" stroke-linecap="round" stroke-width="1.5" d="m116.247 49.5011-2.203.5406" class="Path"/>
      <path stroke="#fff" stroke-width="1.5" d="m118.535 59.9377.387.1761c2.51 1.1433 5.433.9099 7.728-.6171 2.295-1.527 3.637-4.1303 3.546-6.8825-.442-12.6632-3.426-30.2319-16.703-28.9746 0 0-13.488-3.086-18.8939 9.3148-5.4057 12.4009 1.2251 18.3716 3.948 19.7495" class="Path"/>
      <path stroke="#fff" stroke-width="1.5" d="M123.237 42.89s-10.185-1.7833-11.341-8.5961c0 0-5.046 8.4381-12.0871 9.252" class="Path"/>
      <path fill="#D7DADD" d="M143.516 100.326v53.201l-75.4923 18.524v-59.252c0-21.0091 14.3669-39.3042 34.8033-44.3187 9.801-2.4048 20.165-.1784 28.107 6.0379 7.942 6.2163 12.582 15.7325 12.582 25.8078Z" class="Path"/>
      <path stroke="#1E212C" stroke-width="1.5" d="M198.788 267.949s-65.555 34.445-130.7647 15.845" class="Path"/>
      <path stroke="#fff" stroke-width="1.5" d="M88.2826 74.8887S51.2941 100.711 51.1552 139.165c-.2017 55.88 86.7328 5.511 89.5458-3.675l2.814-9.185s11.613-4.775 8.853-6.521c-2.761-1.747-84.345 15.553-84.345 15.553" class="Path"/>
      <path stroke="#fff" stroke-width="1.5" d="M130.2 74.8887s21.248 15.1321 29.989 54.6313c0 0 14.262-19.725 19.322-27.316 5.061-7.5903 9.201-2.5381 9.201-2.5381s5.89-8.7266 10.076-5.0522c4.186 3.6743-7.011 66.6883-47.878 74.2213" class="Path"/>
      <path stroke="#00F0B5" stroke-width="1.5" d="m147.431 124.59 85.6-42.0705" class="Path"/>
    </g>
    <g class="group">
      <path fill="#D7DADD" d="M309.06 57.9199c-23.549 0-42.64 19.059-42.64 42.5691 0 23.511 19.091 42.57 42.64 42.57 23.55 0 42.641-19.059 42.641-42.57H309.06V57.9199Z" class="Path"/>
      <path stroke="#1E212C" stroke-width="1.5" d="M266.42 100.489c0 23.511 19.091 42.57 42.64 42.57 23.55 0 42.641-19.059 42.641-42.57" class="Path"/>
      <path fill="#1E212C" d="M351.701 100.489h-42.64l34.318 25.266c5.418-7.312 8.336-16.17 8.322-25.266Z" class="Path"/>
      <path fill="#00F0B5" d="M309.061 45.0459V100.49h55.536c0-14.7051-5.851-28.8074-16.266-39.2051-10.415-10.3976-24.541-16.239-39.27-16.239Z" class="Path"/>
      <path stroke="#1E212C" stroke-width="1.5" d="M309.061 100.49h55.536" class="Path"/>
    </g>
    <g class="group">
      <path fill="#D7DADD" d="M306.49 200.676h26.5544v-26.5102H306.49z" class="Rectangle"/>
      <path fill="#D7DADD" d="m299.21 176.164 20.557-20.524 20.558 20.524H299.21Z" class="Path"/>
    </g>
    <g class="group">
      <path fill="#9A9CA5" d="M258.677 200.714h23.0147v-22.9763H258.677z" class="Rectangle"/>
      <path fill="#9A9CA5" d="m252.366 179.468 17.818-17.787 17.817 17.787h-35.635Z" class="Path"/>
    </g>
    <g class="group">
      <path fill="#1E212C" d="M221.229 200.894h15.6383v-15.6123H221.229z" class="Rectangle"/>
      <path fill="#1E212C" d="m216.942 186.458 12.107-12.087 12.106 12.087h-24.213Z" class="Path"/>
    </g>
  </g>
</svg>
