<svg xmlns="http://www.w3.org/2000/svg" width="570" height="379" fill="none" viewBox="0 0 570 379">
  <path fill="#fff" d="M342.966 113.502v217.519c0 8.044-9.034 14.58-20.213 14.58H21.111c-11.15 0-20.228-6.536-20.228-14.58V113.502c0-8.044 9.079-14.58 20.228-14.58h301.642c11.193 0 20.213 6.536 20.213 14.58Z" opacity=".6"/>
  <path fill="#787A80" d="M322.653 346.339H21.01c-11.563 0-20.967-6.876-20.967-15.319V113.486c0-8.443 9.404-15.303 20.967-15.303h301.643c11.548 0 20.952 6.86 20.952 15.303V331.02c0 8.517-9.404 15.319-20.952 15.319ZM21.01 99.661c-10.75 0-19.488 6.196-19.488 13.825V331.02c0 7.63 8.738 13.84 19.488 13.84h301.643c10.734 0 19.473-6.21 19.473-13.84V113.486c0-7.629-8.739-13.825-19.473-13.825H21.01Z"/>
  <path fill="#D7DADD" d="M342.766 113.502v11.445H.742v-11.445c0-8.044 9.079-14.58 20.228-14.58h301.642c11.135 0 20.154 6.536 20.154 14.58Z"/>
  <path fill="#787A80" d="M342.764 125.685H.739a.738.738 0 0 1-.739-.739v-11.46c0-8.443 9.404-15.303 20.967-15.303H322.61c11.548 0 20.952 6.86 20.952 15.303v11.46a.735.735 0 0 1-.497.701.753.753 0 0 1-.301.038Zm-341.3-1.479h340.575v-10.72c0-7.629-8.739-13.825-19.474-13.825H20.923c-10.75 0-19.489 6.196-19.489 13.825l.03 10.72Z"/>
  <path fill="#D7DADD" d="M321.025 179.921H201.699v119.324h119.326V179.921Z"/>
  <path fill="#00F0B5" d="M165.237 182.894H32.5v2.957h132.737v-2.957Zm-44.447 8.841H32.5v2.958h88.29v-2.958Z"/>
  <path fill="#9A9CA5" d="M174.849 200.562H32.5v2.958h142.349v-2.958Zm-17.227 8.842H32.5v2.958h125.122v-2.958Zm-105.295 9.434H33.504v1.479h18.823v-1.479Zm15.911 0h-10.41v1.479h10.41v-1.479Zm14.86 0H73.043v1.479h10.055v-1.479Z"/>
  <path fill="#00F0B5" d="M136.611 236.271H32.5v2.957h104.111v-2.957Zm21.011 8.841H32.5v2.958h125.122v-2.958Z"/>
  <path fill="#9A9CA5" d="M116.191 253.94H32.5v2.958h83.691v-2.958Zm26.024 8.842H32.5v2.958h109.715v-2.958Zm-99.307 9.434h-9.404v1.479h9.404v-1.479Zm25.33 0H47.715v1.479h20.523v-1.479Zm11.607 0h-6.802v1.479h6.802v-1.479Z"/>
  <path fill="#00F0B5" d="M148.913 289.648H32.5v2.958h116.413v-2.958Zm16.324 8.842H32.5v2.958h132.737v-2.958Z"/>
  <path fill="#9A9CA5" d="M123.392 307.319H32.5v2.958h90.892v-2.958Zm-16.014 8.827H32.5v2.957h74.878v-2.957Zm-49.403 9.447H33.504v1.479h24.471v-1.479Zm20.099 0h-13.84v1.479h13.84v-1.479Z"/>
  <path fill="#00F0B5" d="M23.536 116.799a4.879 4.879 0 1 0 0-9.758 4.879 4.879 0 0 0 0 9.758Z"/>
  <path fill="#fff" d="M38.212 116.799a4.879 4.879 0 1 0 0-9.758 4.879 4.879 0 0 0 0 9.758Zm14.664 0a4.879 4.879 0 1 0 0-9.758 4.879 4.879 0 0 0 0 9.758Z"/>
  <path fill="#F9F9F9" d="M363.935 221.146H242.523v90.062h121.412v-90.062Z"/>
  <path fill="#1E212C" d="M363.94 311.946H242.528a.74.74 0 0 1-.739-.739v-90.062a.738.738 0 0 1 .739-.74H363.94a.755.755 0 0 1 .739.74v90.062a.74.74 0 0 1-.739.739Zm-120.672-1.478H363.2v-88.584H243.268v88.584Z"/>
  <path fill="#00F0B5" d="M255.523 294.218h-.148c-10.601-.34-13.514-10.439-13.544-10.543a.768.768 0 0 1 .838-.959.766.766 0 0 1 .641.56c.103.384 2.676 9.153 12.169 9.463h.044c4.673 0 7.97-12.524 10.868-23.658 2.958-11.533 5.915-22.43 10.721-23.554a7.213 7.213 0 0 1 5.692.784c4.288 2.705 5.915 10.276 7.881 19.029a117.44 117.44 0 0 0 3.874 14.668c2.573 7.127 7.394 11.548 12.037 11.016 5.752-.665 10.099-8.709 11.592-21.529 4.273-36.551 16.96-40.558 22.18-40.588h.192c13.071 0 19.828 7.024 24.087 25.004a.76.76 0 0 1-1.479.34c-4.125-17.374-10.261-23.865-22.652-23.865h-.178c-10.129 0-17.891 14.786-20.701 39.287-1.597 13.736-6.299 22.061-12.894 22.815-5.308.636-10.779-4.2-13.588-11.977a120.381 120.381 0 0 1-3.933-14.786c-1.775-8.088-3.446-15.718-7.231-18.113a5.738 5.738 0 0 0-4.569-.592c-3.963.932-6.964 12.391-9.611 22.49-3.416 12.701-6.506 24.708-12.288 24.708Z"/>
  <path fill="#B3B7BC" d="M271.789 230.445h-16.96a.739.739 0 1 1 0-1.478h16.96a.739.739 0 0 1 .739.739.75.75 0 0 1-.739.739Zm0 7.068h-16.96a.74.74 0 0 1 0-1.479h16.96a.756.756 0 0 1 .739.74.74.74 0 0 1-.739.739Zm-8.487 6.936h-8.473a.743.743 0 0 1-.523-.216.743.743 0 0 1 0-1.046.743.743 0 0 1 .523-.216h8.473c.196 0 .384.078.523.216a.743.743 0 0 1 0 1.046.743.743 0 0 1-.523.216Z"/>
  <path fill="#424551" d="M116.381 153.894v4.241h-1.369v-10.164h2.872c.643 0 1.199.066 1.667.199.468.127.854.314 1.156.56.308.246.535.544.681.894.147.345.22.733.22 1.163 0 .359-.057.695-.17 1.007a2.664 2.664 0 0 1-.497.844 2.877 2.877 0 0 1-.787.631 3.839 3.839 0 0 1-1.05.398c.171.099.322.243.454.432l2.965 4.036h-1.22c-.25 0-.435-.097-.553-.29l-2.639-3.632a.726.726 0 0 0-.262-.241c-.095-.052-.237-.078-.426-.078h-1.042Zm0-1h1.44c.401 0 .754-.048 1.056-.142.308-.1.563-.237.766-.412.208-.179.364-.392.469-.638.104-.246.156-.518.156-.816 0-.605-.201-1.061-.603-1.369-.398-.307-.991-.461-1.781-.461h-1.503v3.838Zm15.229-4.923v1.121h-4.88v3.376h3.951v1.078h-3.951v3.469h4.88v1.12h-6.263v-10.164h6.263Zm10.491 8.065c.076 0 .144.031.206.092l.539.589a4.348 4.348 0 0 1-1.518 1.128c-.591.269-1.305.404-2.142.404-.733 0-1.397-.125-1.993-.376a4.426 4.426 0 0 1-1.525-1.064 4.85 4.85 0 0 1-.979-1.646 6.122 6.122 0 0 1-.348-2.106c0-.766.123-1.469.369-2.107a4.876 4.876 0 0 1 1.05-1.646 4.662 4.662 0 0 1 1.61-1.064 5.483 5.483 0 0 1 2.078-.383c.747 0 1.391.116 1.93.348a4.892 4.892 0 0 1 1.447.943l-.447.632a.544.544 0 0 1-.114.12.325.325 0 0 1-.184.043.386.386 0 0 1-.199-.064l-.241-.17a5.886 5.886 0 0 0-.333-.213 2.885 2.885 0 0 0-.454-.213 3.618 3.618 0 0 0-.61-.163 4.065 4.065 0 0 0-.802-.071c-.544 0-1.042.095-1.496.284-.45.184-.837.449-1.164.794a3.682 3.682 0 0 0-.766 1.263 4.886 4.886 0 0 0-.269 1.667c0 .633.09 1.198.269 1.695.185.496.433.917.745 1.263.317.34.69.6 1.121.78.43.179.893.269 1.39.269.303 0 .575-.016.816-.049.241-.038.463-.095.666-.171.208-.075.4-.17.575-.283.18-.119.359-.258.539-.419.08-.071.158-.106.234-.106Zm10.158-8.065v1.121h-4.88v3.376h3.951v1.078h-3.951v3.469h4.88v1.12h-6.263v-10.164h6.263Zm4.037 0c.123 0 .212.016.269.05a.62.62 0 0 1 .206.184l5.887 7.661a4.603 4.603 0 0 1-.028-.355 8.052 8.052 0 0 1-.007-.341v-7.199h1.205v10.164h-.695a.62.62 0 0 1-.276-.056.711.711 0 0 1-.213-.192l-5.88-7.653a10.914 10.914 0 0 1 .028.659v7.242h-1.206v-10.164h.71Zm18.283 0v1.156h-3.284v9.008h-1.376v-9.008h-3.298v-1.156h7.958Zm8.394 6.362v3.802h-1.369v-10.164h3c.643 0 1.201.076 1.674.227.478.146.873.357 1.185.631.312.274.544.605.695.993.156.388.234.821.234 1.298 0 .473-.083.906-.248 1.298a2.776 2.776 0 0 1-.731 1.015 3.387 3.387 0 0 1-1.184.666c-.473.156-1.015.234-1.625.234h-1.631Zm0-1.092h1.631a3.14 3.14 0 0 0 1.036-.156c.303-.104.556-.248.759-.433.203-.189.357-.413.461-.673a2.3 2.3 0 0 0 .156-.859c0-.648-.201-1.154-.603-1.518-.397-.364-1-.546-1.809-.546h-1.631v4.185Zm17.95-.184c0 .761-.121 1.461-.362 2.099a4.817 4.817 0 0 1-1.021 1.639c-.44.458-.97.815-1.589 1.071a5.378 5.378 0 0 1-2.043.376 5.378 5.378 0 0 1-2.043-.376 4.63 4.63 0 0 1-1.581-1.071 4.804 4.804 0 0 1-1.022-1.639 5.896 5.896 0 0 1-.362-2.099c0-.762.121-1.459.362-2.093a4.783 4.783 0 0 1 1.022-1.645 4.566 4.566 0 0 1 1.581-1.079 5.285 5.285 0 0 1 2.043-.383c.747 0 1.428.128 2.043.383a4.561 4.561 0 0 1 1.589 1.079c.439.458.78 1.007 1.021 1.645.241.634.362 1.331.362 2.093Zm-1.412 0c0-.625-.085-1.185-.255-1.681a3.52 3.52 0 0 0-.724-1.256 3.111 3.111 0 0 0-1.135-.794 3.84 3.84 0 0 0-1.489-.277c-.544 0-1.038.092-1.482.277a3.171 3.171 0 0 0-1.142.794 3.52 3.52 0 0 0-.724 1.256 5.166 5.166 0 0 0-.255 1.681c0 .624.085 1.184.255 1.681.17.492.412.91.724 1.255a3.22 3.22 0 0 0 1.142.788 3.93 3.93 0 0 0 1.482.269c.548 0 1.045-.09 1.489-.269a3.158 3.158 0 0 0 1.135-.788c.312-.345.554-.763.724-1.255.17-.497.255-1.057.255-1.681Zm9.843-3.497a.6.6 0 0 1-.135.163.315.315 0 0 1-.184.05c-.081 0-.175-.041-.284-.121a3.578 3.578 0 0 0-.404-.262c-.161-.1-.357-.19-.589-.27a2.508 2.508 0 0 0-.83-.121 2.4 2.4 0 0 0-.815.128c-.237.08-.435.192-.596.333-.156.142-.275.31-.355.504-.08.189-.12.395-.12.617 0 .284.068.52.205.709.142.185.326.343.553.476.232.132.492.248.781.347.293.095.591.194.893.298.308.104.606.222.894.355.293.128.553.291.78.489.232.199.416.442.554.731.141.288.212.643.212 1.064 0 .444-.075.863-.227 1.255a2.871 2.871 0 0 1-.666 1.015 3.083 3.083 0 0 1-1.071.681 3.923 3.923 0 0 1-1.44.248 4.462 4.462 0 0 1-1.802-.355c-.539-.241-1-.565-1.383-.972l.397-.652a.497.497 0 0 1 .135-.128.325.325 0 0 1 .184-.057c.1 0 .213.055.341.164.128.104.286.219.475.347.194.128.426.246.695.355.274.104.608.156 1 .156.327 0 .617-.045.873-.135.255-.09.47-.215.645-.376.18-.165.317-.362.412-.589.094-.227.141-.48.141-.759 0-.307-.07-.558-.212-.751a1.68 1.68 0 0 0-.546-.497 3.73 3.73 0 0 0-.781-.333 50.821 50.821 0 0 0-.893-.284 9.96 9.96 0 0 1-.894-.341 2.904 2.904 0 0 1-.773-.496 2.329 2.329 0 0 1-.554-.759c-.137-.307-.205-.686-.205-1.135 0-.359.068-.707.205-1.043.142-.335.346-.633.61-.893.265-.26.592-.468.979-.625a3.63 3.63 0 0 1 1.348-.234c.567 0 1.085.09 1.553.27.468.18.877.44 1.227.78l-.333.653Zm10.586-1.589v1.156h-3.284v9.008h-1.376v-9.008h-3.298v-1.156h7.958Zm7.999 1.589a.6.6 0 0 1-.135.163.313.313 0 0 1-.184.05c-.081 0-.175-.041-.284-.121a3.578 3.578 0 0 0-.404-.262c-.161-.1-.357-.19-.589-.27a2.508 2.508 0 0 0-.83-.121 2.4 2.4 0 0 0-.815.128c-.237.08-.435.192-.596.333-.156.142-.274.31-.355.504-.08.189-.12.395-.12.617 0 .284.068.52.205.709.142.185.327.343.554.476.231.132.491.248.78.347.293.095.591.194.893.298.308.104.606.222.894.355.293.128.553.291.78.489.232.199.416.442.554.731.141.288.212.643.212 1.064 0 .444-.075.863-.227 1.255a2.871 2.871 0 0 1-.666 1.015 3.083 3.083 0 0 1-1.071.681 3.923 3.923 0 0 1-1.44.248 4.465 4.465 0 0 1-1.802-.355c-.539-.241-1-.565-1.383-.972l.397-.652a.497.497 0 0 1 .135-.128.325.325 0 0 1 .184-.057c.1 0 .213.055.341.164.128.104.286.219.475.347.194.128.426.246.695.355.275.104.608.156 1 .156.327 0 .617-.045.873-.135.255-.09.47-.215.645-.376.18-.165.317-.362.412-.589.094-.227.141-.48.141-.759 0-.307-.07-.558-.212-.751a1.67 1.67 0 0 0-.546-.497 3.73 3.73 0 0 0-.781-.333 50.821 50.821 0 0 0-.893-.284 9.96 9.96 0 0 1-.894-.341 2.904 2.904 0 0 1-.773-.496 2.312 2.312 0 0 1-.553-.759c-.138-.307-.206-.686-.206-1.135 0-.359.068-.707.206-1.043.141-.335.345-.633.61-.893a2.96 2.96 0 0 1 .978-.625 3.63 3.63 0 0 1 1.348-.234c.567 0 1.085.09 1.553.27.468.18.878.44 1.227.78l-.333.653Z"/>
  <path fill="#1E212C" d="m291.262 69.062-32.686-11.467 7.406-21.227 32.687 11.467-7.407 21.227Zm-30.967-12.293 30.053 10.554 6.515-18.681-30.053-10.553-6.515 18.68Z"/>
  <path fill="#1E212C" d="m269.362 44.502-.44 1.263 21.893 7.642.44-1.262-21.893-7.643Zm-2.117 6.746-.44 1.263 21.892 7.645.44-1.263-21.892-7.645Z"/>
  <path fill="#00F0B5" d="M98.179 39.557a20.897 20.897 0 0 0 8.19 8.687 20.817 20.817 0 0 0 11.594 2.772 20.736 20.736 0 0 0 18.322-13.598 20.863 20.863 0 0 0 .72-11.911 20.91 20.91 0 0 0-5.922-10.37 20.846 20.846 0 0 0-10.622-5.429 20.75 20.75 0 0 0-11.839 1.293l9.362 18.57-19.805 9.986Z"/>
  <path fill="#D7DADD" d="m95.074 38.414 19.806-9.987-9.373-18.59c-.416.17-.845.37-1.259.58a20.733 20.733 0 0 0-6.393 5.002 20.792 20.792 0 0 0-3.988 7.078 20.866 20.866 0 0 0-.977 8.075c.207 2.731.95 5.396 2.184 7.842Z"/>
  <path fill="#fff" stroke="#424551" d="m174.321 330.684-.177-.468-.467.176-39.505 14.869-.468.176.176.468 11.895 31.605.176.468.468-.176 39.505-14.868.468-.177-.176-.468-11.895-31.605Z"/>
  <path fill="#fff" d="m185.904 362.884-39.505 14.868a.458.458 0 0 1-.576-.261l-11.896-31.606a.446.446 0 0 1 .261-.576l39.505-14.868a.446.446 0 0 1 .576.261l11.896 31.605a.457.457 0 0 1-.261.577Zm-39.402 13.873 38.668-14.553-11.58-30.768-38.668 14.553 11.58 30.768Z"/>
  <path fill="#424551" d="M143.47 370.473a.442.442 0 0 1-.481-.111.445.445 0 0 1-.087-.486l8.052-17.805a4.204 4.204 0 0 1 5.856-1.944l14.887 8.195a.46.46 0 0 1 .222.592.456.456 0 0 1-.11.137.458.458 0 0 1-.156.082.43.43 0 0 1-.342-.042l-14.899-8.17a3.224 3.224 0 0 0-2.637-.244 3.273 3.273 0 0 0-1.969 1.78l-8.079 17.815a.424.424 0 0 1-.257.201Z"/>
  <path fill="#424551" d="M182.024 352.546a.457.457 0 0 1-.183.029.46.46 0 0 1-.178-.049l-7.697-3.888a3.267 3.267 0 0 0-2.639-.139 3.261 3.261 0 0 0-1.899 1.857l-2.374 5.839a.428.428 0 0 1-.095.146.438.438 0 0 1-.486.104.454.454 0 0 1-.282-.41c0-.058.01-.117.032-.171l2.347-5.829a4.23 4.23 0 0 1 .96-1.434 4.233 4.233 0 0 1 1.454-.929 4.2 4.2 0 0 1 3.325.193l7.693 3.878a.453.453 0 0 1 .256.423.445.445 0 0 1-.289.4l.055-.02Z"/>
  <path fill="#fff" d="M163.387 344.865a2.335 2.335 0 1 0-1.646-4.37 2.335 2.335 0 0 0 1.646 4.37Z"/>
  <path fill="#424551" d="M163.54 345.257a2.79 2.79 0 1 1-1.983-5.216 2.79 2.79 0 0 1 1.983 5.216Zm-1.647-4.378a1.901 1.901 0 0 0-1.237 1.712 1.901 1.901 0 0 0 1.113 1.794 1.894 1.894 0 0 0 2.631-1.304 1.9 1.9 0 0 0-.077-1.101 1.891 1.891 0 0 0-2.417-1.064l-.013-.037Z"/>
  <path fill="#00F0B5" d="m449.856 174.348 46.49-17.312 15.453 117.515 58.092 52.66-28.903 48.544-8.013-18.497c-121.049-30.906-83.119-182.91-83.119-182.91Z"/>
  <path fill="#424551" d="M452.327 282.396c5.9-29.001 21.716-49.764 40.304-49.764 4.982 0 9.765 1.497 14.212 4.239l4.954 37.678 23.052 20.896c.365 3.936.557 7.973.557 12.09 0 18.094-3.664 34.69-9.763 47.637-42.126-13.175-63.301-41.96-73.316-72.776Z" opacity=".8"/>
  <path fill="#00F0B5" d="M461.306 159.851s-8.665 141.431 15.809 208.393l-5.112 7.511h43.53s4.756-179.892 4.756-218.719l-58.983 2.815Z"/>
  <path fill="#D7DADD" d="M475.769 50.425v18.38l22.77 5.597V43.385l-22.77-5.597v12.638Z"/>
  <path fill="#1E212C" d="M488.629 56.784a.608.608 0 1 1 0-1.217.608.608 0 0 1 0 1.217Zm-9.355 0a.61.61 0 1 1 0-1.218.61.61 0 0 1 0 1.218Z"/>
  <path fill="#1E212C" fill-rule="evenodd" d="M482.5 50.426a.48.48 0 0 0-.48-.48h-4.7a.48.48 0 0 0 0 .96h4.22v8.902a.48.48 0 1 0 .96 0v-9.382Zm7.754.001a.48.48 0 0 0-.48-.48h-4.7a.48.48 0 0 0 0 .96h4.7a.48.48 0 0 0 .48-.48Z" clip-rule="evenodd"/>
  <path fill="#EDEEEF" d="M497.036 55.232v3.258a3.183 3.183 0 0 0 3.17-3.472c-.179-1.976-3.17-1.77-3.17.214Z"/>
  <path fill="#1E212C" fill-rule="evenodd" d="M500.216 54.826a.48.48 0 0 0-.48.48 2.703 2.703 0 0 1-2.703 2.703.48.48 0 0 0 0 .96 3.662 3.662 0 0 0 3.662-3.663.48.48 0 0 0-.479-.48Zm-12.922 3.592a.48.48 0 0 0-.48.48 2.741 2.741 0 0 1-2.741 2.74.48.48 0 0 0 0 .962 3.7 3.7 0 0 0 3.7-3.702.48.48 0 0 0-.479-.48ZM475.3 68.69a.48.48 0 0 0 .352.58l22.769 5.597a.48.48 0 1 0 .229-.933l-22.77-5.597a.48.48 0 0 0-.58.352Zm6.249-8.99a.481.481 0 0 0 .352.58l2.056.506a.48.48 0 1 0 .228-.933l-2.055-.505a.48.48 0 0 0-.581.352Z" clip-rule="evenodd"/>
  <path fill="#D7DADD" d="M520.289 107.317v49.72l-70.437 17.312v-55.375c0-19.635 13.405-36.734 32.473-41.42a30.65 30.65 0 0 1 37.964 29.763Z"/>
  <path fill="#1E212C" fill-rule="evenodd" d="M461.334 159.37a.48.48 0 0 0-.508.45l.479.029.479.03a.48.48 0 0 0-.45-.509Zm-.029.479.479.031-.006.101-.018.304a580.039 580.039 0 0 0-.3 5.795 992.971 992.971 0 0 0-.647 16.929c-.43 14.299-.748 34.062-.302 55.916.893 43.73 4.847 95.754 17.053 129.152a.48.48 0 1 1-.901.33c-12.267-33.564-16.218-85.736-17.111-129.462-.447-21.874-.128-41.654.302-55.965.215-7.156.458-12.945.647-16.945a621.759 621.759 0 0 1 .301-5.806l.018-.305.006-.102c0-.001 0-.002.479.027ZM474.62 42.728a.48.48 0 0 0-.346.584c.617 2.431 2.174 3.774 4.126 4.389 1.918.603 4.207.505 6.364.133 2.167-.373 4.254-1.032 5.793-1.594a39.827 39.827 0 0 0 1.934-.763c.338 3.381 1.158 5.483 1.942 6.766.417.682.822 1.13 1.134 1.41.156.141.288.24.385.306l.119.075c.015.008.028.016.038.02l.013.008.004.002.003.001c.001.001.001.001.215-.429l-.214.43a.48.48 0 0 0 .433-.857m-.004-.002h.002l.002.002c.001 0 .001 0 0 0a2.523 2.523 0 0 1-.354-.269c-.242-.219-.588-.594-.958-1.199-.739-1.209-1.581-3.348-1.862-7.01a.48.48 0 0 0-.682-.399l-.002.001-.008.004-.032.015-.129.058a39.222 39.222 0 0 1-2.307.928c-1.51.551-3.538 1.19-5.627 1.55-2.1.361-4.211.432-5.914-.104-1.67-.526-2.957-1.633-3.484-3.709a.48.48 0 0 0-.584-.347m18.087 1.604Z" clip-rule="evenodd"/>
  <path fill="#1E212C" fill-rule="evenodd" d="m500.857 39.587-2.086 13.978a.48.48 0 1 0 .949.142l2.146-14.378a.48.48 0 0 0-.319-.525l-.156.454.156-.454-.005-.002-.013-.004-.049-.017a53.632 53.632 0 0 0-.914-.294 75.217 75.217 0 0 0-2.624-.764c-2.198-.598-5.202-1.317-8.419-1.797-3.212-.48-6.66-.723-9.738-.36-3.068.364-5.845 1.341-7.622 3.376a.478.478 0 0 0-.101.187l.462.13-.462-.13v.001l-.001.002-.001.005-.004.015-.013.053a8.03 8.03 0 0 0-.149.882c-.067.586-.103 1.413.014 2.384.235 1.947 1.088 4.464 3.531 6.767a.48.48 0 1 0 .658-.7c-2.255-2.124-3.024-4.422-3.236-6.183a9.395 9.395 0 0 1-.014-2.16 7.235 7.235 0 0 1 .115-.706c1.555-1.72 4.017-2.623 6.936-2.968 2.959-.35 6.312-.118 9.484.355 3.168.473 6.134 1.182 8.309 1.774a74.658 74.658 0 0 1 3.166.938Zm3.36 40.81a.481.481 0 0 0 .244.634l.034-.077-.034.077h.001l.005.002.021.01.088.04c.078.037.195.091.349.165a46 46 0 0 1 1.335.667 76.486 76.486 0 0 1 4.801 2.726 91.598 91.598 0 0 1 14.76 11.297c10.85 10.234 21.998 25.995 23.276 48.156.317 5.495-.817 10.062-3.035 13.809-2.22 3.749-5.542 6.705-9.642 8.948-8.212 4.493-19.501 6.101-31.09 5.495-11.582-.605-23.401-3.419-32.641-7.709-4.62-2.145-8.58-4.652-11.541-7.424-2.962-2.772-4.902-5.787-5.537-8.949a.48.48 0 0 0-.239-.326l-.001-.001-.023-.012-.071-.04-.194-.109a36.7 36.7 0 0 1-3.637-2.309 14.053 14.053 0 0 1-1.159-.929c-.332-.302-.568-.565-.696-.776a.592.592 0 0 1-.097-.222c.028-.023.133-.094.442-.144.404-.065 1.795-.123 3.984-.171 2.166-.046 5.068-.082 8.453-.109 6.769-.054 15.46-.071 24.042-.071a8475.71 8475.71 0 0 1 31 .06l2.128.008.751.003.003-.48-.002.48a.479.479 0 0 0 .357-.803l-18.904-20.89a.48.48 0 1 0-.711.645l18.174 20.083-1.793-.007-7.624-.024c-6.326-.018-14.797-.036-23.379-.036s-17.277.018-24.05.071c-3.386.027-6.293.063-8.466.11-2.15.047-3.628.104-4.115.183-.474.076-.933.246-1.145.647-.223.423-.054.863.133 1.169.2.326.514.661.87.985.361.329.79.666 1.239.994.9.656 1.908 1.29 2.687 1.759.39.234.725.428.962.564l.186.106c.73 3.337 2.787 6.445 5.777 9.243 3.056 2.86 7.11 5.419 11.792 7.593 9.364 4.348 21.306 7.187 32.995 7.798 11.682.61 23.172-1.001 31.6-5.612 4.22-2.309 7.683-5.376 10.007-9.301 2.326-3.929 3.495-8.689 3.168-14.354-1.297-22.48-12.61-38.457-23.576-48.8a92.569 92.569 0 0 0-14.916-11.416 76.943 76.943 0 0 0-4.863-2.761 49.406 49.406 0 0 0-1.722-.851c-.041-.02-.073-.033-.094-.043l-.025-.011-.006-.003h-.002c0-.001-.001-.001-.172.385l.171-.386a.48.48 0 0 0-.633.244Z" clip-rule="evenodd"/>
  <path fill="#1E212C" fill-rule="evenodd" d="M464.898 86.47a.479.479 0 0 0-.675-.064l.305.37-.305-.37-.001.001-.004.003-.012.01-.047.04-.18.154c-.157.137-.387.34-.68.608a59.186 59.186 0 0 0-2.451 2.39c-2.049 2.107-4.83 5.235-7.773 9.324-5.712 7.935-12.036 19.498-14.772 34.249l-.167-.306a450.81 450.81 0 0 0-2.209-3.992 419.965 419.965 0 0 0-7.032-12.113c-2.668-4.404-5.494-8.819-7.963-12.137-1.233-1.658-2.387-3.056-3.395-4.044-.504-.494-.983-.897-1.427-1.18-.436-.276-.888-.47-1.326-.47-.989 0-2.254-.047-3.628-.1l-.911-.033c-1.712-.063-3.522-.117-5.094-.08-1.547.035-2.945.157-3.783.489-.402.159-.847.433-.947.932-.1.496.196.951.574 1.33 1.517 1.517 3.829 2.474 5.707 3.052.948.292 1.804.492 2.423.62l.186.037c-.096.127-.198.27-.304.426-.442.656-.953 1.583-1.167 2.617-.217 1.046-.133 2.22.648 3.307.73 1.016 2.025 1.895 4.091 2.546l-.004.343c-.006.461-.008 1.136.003 1.994.022 1.715.096 4.161.307 7.089.422 5.854 1.39 13.649 3.577 21.39 2.186 7.736 5.6 15.457 10.941 21.127 5.356 5.687 12.634 9.293 22.474 8.798a.48.48 0 0 0-.049-.96c-9.541.481-16.552-3.002-21.727-8.497-5.191-5.512-8.551-13.067-10.716-20.729-2.163-7.657-3.124-15.382-3.543-21.198a120.768 120.768 0 0 1-.305-7.032c-.01-.85-.008-1.517-.003-1.971.002-.228.006-.401.008-.518l.003-.132.001-.033v-.007l.001-.002-.48-.016.48.016a.482.482 0 0 0-.346-.477c-2.162-.628-3.336-1.46-3.934-2.292-.588-.818-.664-1.701-.488-2.551.179-.862.616-1.67 1.024-2.274.202-.3.392-.543.53-.711.07-.083.126-.147.164-.19l.043-.047.01-.011.002-.002a.482.482 0 0 0-.279-.808l-.068.476.068-.476h-.003l-.011-.002-.048-.007-.189-.031a25.509 25.509 0 0 1-3.038-.73c-1.843-.567-3.966-1.469-5.311-2.814a1.413 1.413 0 0 1-.281-.361.324.324 0 0 1-.03-.082l-.001-.015v-.003l.001-.001.004-.008a.229.229 0 0 1 .045-.049c.055-.048.152-.108.309-.17.656-.26 1.887-.387 3.453-.422 1.54-.036 3.324.017 5.037.08.304.01.605.022.902.034 1.374.052 2.663.1 3.672.1.17 0 .436.082.811.321.367.233.792.586 1.271 1.055.956.936 2.075 2.288 3.297 3.93 2.441 3.282 5.248 7.666 7.911 12.062a416.612 416.612 0 0 1 7.016 12.085 434.76 434.76 0 0 1 2.969 5.392l.053.099.001.001.423-.227-.423.227a.48.48 0 0 0 .896-.147c2.56-15.219 9.021-27.113 14.844-35.204 2.911-4.045 5.662-7.138 7.682-9.217a58.235 58.235 0 0 1 2.412-2.35 34.967 34.967 0 0 1 .831-.738l.043-.036.01-.008.002-.002" clip-rule="evenodd"/>
</svg>
