<svg width="40" height="40" viewBox="0 0 40 40" fill="none" xmlns="http://www.w3.org/2000/svg">
<g id="Group">
<g id="Group_2">
<path id="Vector" d="M37.791 22.0345C39.2374 19.7423 39.9998 17.1036 39.9998 14.3749C39.9998 6.44859 33.5512 0 25.6248 0C22.9698 0 20.3758 0.729766 18.1233 2.11039C17.7554 2.33586 17.6399 2.8168 17.8655 3.18469C18.0909 3.5525 18.5718 3.66805 18.9398 3.4425C20.9465 2.21258 23.2582 1.5625 25.6249 1.5625C32.6897 1.5625 38.4373 7.31008 38.4373 14.3749C38.4373 16.9372 37.6837 19.4099 36.2577 21.5258C36.0685 21.8064 36.0847 22.1692 36.2793 22.4298L37.1354 25.6248L33.6991 24.704C33.4741 24.6437 33.2338 24.6869 33.044 24.822C30.8691 26.3695 28.3037 27.1874 25.6249 27.1874C24.0989 27.1874 22.6063 26.9209 21.1868 26.3964C20.1875 22.7163 17.2838 19.8126 13.6038 18.8134C13.0792 17.3938 12.8125 15.9015 12.8125 14.375C12.8125 11.982 13.4762 9.64836 14.7318 7.62625C14.9594 7.25969 14.8467 6.77805 14.4802 6.55039C14.1138 6.32281 13.632 6.43539 13.4043 6.80203C11.9948 9.07188 11.2499 11.6905 11.2499 14.375C11.2499 15.7802 11.4516 17.1601 11.8493 18.4906C11.4978 18.4559 11.1416 18.4377 10.7812 18.4377C4.83641 18.4377 0 23.2742 0 29.2189C0 31.3524 0.616875 33.4005 1.78734 35.1659L0.95125 38.2866C0.878984 38.5563 0.956094 38.8439 1.15344 39.0413C1.35078 39.2387 1.63836 39.3157 1.90805 39.2435L5.10609 38.3866C6.80922 39.4431 8.76359 40 10.7812 40C12.8347 40 14.8321 39.4203 16.5575 38.3236C16.9216 38.0921 17.0291 37.6093 16.7977 37.2452C16.5662 36.881 16.0833 36.7735 15.7193 37.0049C14.2448 37.9422 12.5373 38.4375 10.7812 38.4375C8.95305 38.4375 7.18609 37.9033 5.67148 36.8925C5.48453 36.7677 5.25289 36.7295 5.03562 36.7877L2.81063 37.3839L3.38984 35.2223C3.45023 34.9969 3.40672 34.7563 3.27117 34.5663C2.15328 32.9995 1.56242 31.1503 1.56242 29.2188C1.56242 24.1355 5.69797 20.0001 10.7811 20.0001C15.8642 20.0001 19.9998 24.1356 19.9998 29.2188C19.9998 30.3044 19.8132 31.3668 19.4451 32.3766C19.2973 32.782 19.5061 33.2304 19.9115 33.3782C20.3168 33.5259 20.7653 33.3172 20.913 32.9118C21.3439 31.73 21.5623 30.4875 21.5623 29.2188C21.5623 28.8584 21.5442 28.5023 21.5095 28.1509C22.8402 28.5484 24.2202 28.7498 25.6249 28.7498C28.5058 28.7498 31.2702 27.9064 33.6441 26.3068L38.038 27.4841C38.3078 27.5564 38.5953 27.4793 38.7927 27.282C38.9901 27.0846 39.0672 26.797 38.9949 26.5273L37.791 22.0345Z" fill="#7772F1"/>
</g>
</g>
</svg>
