<svg width="40" height="40" viewBox="0 0 40 40" fill="none" xmlns="http://www.w3.org/2000/svg">
<rect width="40" height="40" fill="#E5E5E5"/>
<g id="Case Studies" clip-path="url(#clip0_0_1)">
<rect width="1920" height="4584" transform="translate(-385 -2081)" fill="white"/>
<g id="Case studies grid">
<g id="case-card/large" filter="url(#filter0_dddd_0_1)">
<rect x="-40" y="-228" width="600" height="442" rx="4" fill="white"/>
<g id="features" clip-path="url(#clip1_0_1)">
<g id="feature" clip-path="url(#clip2_0_1)">
<g id="circle" clip-path="url(#clip3_0_1)">
<circle id="ellipse" opacity="0.3" cx="20" cy="20" r="18" stroke="#5A87FC" stroke-width="4"/>
<path id="ellipse_2" d="M20 36C28.8366 36 36 28.8366 36 20C36 11.1634 28.8366 4 20 4V0C31.0457 0 40 8.9543 40 20C40 31.0457 31.0457 40 20 40C8.9543 40 0 31.0457 0 20C0 18.2735 0.218765 16.5981 0.630087 15L4.5 16.0158C4.17357 17.2896 4 18.6245 4 20C4 28.8366 11.1634 36 20 36Z" fill="#5A87FC"/>
</g>
</g>
</g>
<rect x="-39.5" y="-227.5" width="599" height="441" rx="3.5" stroke="#E5E8ED"/>
</g>
</g>
</g>
<defs>
<filter id="filter0_dddd_0_1" x="-100" y="-228" width="720" height="582" filterUnits="userSpaceOnUse" color-interpolation-filters="sRGB">
<feFlood flood-opacity="0" result="BackgroundImageFix"/>
<feColorMatrix in="SourceAlpha" type="matrix" values="0 0 0 0 0 0 0 0 0 0 0 0 0 0 0 0 0 0 127 0" result="hardAlpha"/>
<feMorphology radius="4" operator="erode" in="SourceAlpha" result="effect1_dropShadow_0_1"/>
<feOffset dy="4"/>
<feGaussianBlur stdDeviation="2"/>
<feColorMatrix type="matrix" values="0 0 0 0 0.117647 0 0 0 0 0.129412 0 0 0 0 0.172549 0 0 0 0.03 0"/>
<feBlend mode="normal" in2="BackgroundImageFix" result="effect1_dropShadow_0_1"/>
<feColorMatrix in="SourceAlpha" type="matrix" values="0 0 0 0 0 0 0 0 0 0 0 0 0 0 0 0 0 0 127 0" result="hardAlpha"/>
<feMorphology radius="6" operator="erode" in="SourceAlpha" result="effect2_dropShadow_0_1"/>
<feOffset dy="12"/>
<feGaussianBlur stdDeviation="5"/>
<feColorMatrix type="matrix" values="0 0 0 0 0.603922 0 0 0 0 0.611765 0 0 0 0 0.647059 0 0 0 0.04 0"/>
<feBlend mode="normal" in2="effect1_dropShadow_0_1" result="effect2_dropShadow_0_1"/>
<feColorMatrix in="SourceAlpha" type="matrix" values="0 0 0 0 0 0 0 0 0 0 0 0 0 0 0 0 0 0 127 0" result="hardAlpha"/>
<feMorphology radius="10" operator="erode" in="SourceAlpha" result="effect3_dropShadow_0_1"/>
<feOffset dy="30"/>
<feGaussianBlur stdDeviation="12"/>
<feColorMatrix type="matrix" values="0 0 0 0 0.603922 0 0 0 0 0.611765 0 0 0 0 0.647059 0 0 0 0.05 0"/>
<feBlend mode="normal" in2="effect2_dropShadow_0_1" result="effect3_dropShadow_0_1"/>
<feColorMatrix in="SourceAlpha" type="matrix" values="0 0 0 0 0 0 0 0 0 0 0 0 0 0 0 0 0 0 127 0" result="hardAlpha"/>
<feMorphology radius="20" operator="erode" in="SourceAlpha" result="effect4_dropShadow_0_1"/>
<feOffset dy="80"/>
<feGaussianBlur stdDeviation="40"/>
<feColorMatrix type="matrix" values="0 0 0 0 0.603922 0 0 0 0 0.611765 0 0 0 0 0.647059 0 0 0 0.08 0"/>
<feBlend mode="normal" in2="effect3_dropShadow_0_1" result="effect4_dropShadow_0_1"/>
<feBlend mode="normal" in="SourceGraphic" in2="effect4_dropShadow_0_1" result="shape"/>
</filter>
<clipPath id="clip0_0_1">
<rect width="1920" height="4584" fill="white" transform="translate(-385 -2081)"/>
</clipPath>
<clipPath id="clip1_0_1">
<rect width="223" height="48" fill="white" transform="translate(0 -4)"/>
</clipPath>
<clipPath id="clip2_0_1">
<rect width="139" height="48" fill="white" transform="translate(0 -4)"/>
</clipPath>
<clipPath id="clip3_0_1">
<rect width="40" height="40" fill="white"/>
</clipPath>
</defs>
</svg>
