<svg width="40" height="40" viewBox="0 0 40 40" fill="none" xmlns="http://www.w3.org/2000/svg">
<circle opacity="0.12" cx="20" cy="20" r="20" fill="white"/>
<path fill-rule="evenodd" clip-rule="evenodd" d="M21.9993 25.5837C22.5827 26.0003 23.3327 25.667 23.3327 24.917V21.167L20.2493 24.2503L21.9993 25.5837Z" fill="white"/>
<path fill-rule="evenodd" clip-rule="evenodd" d="M27.2494 14.417C26.916 14.0837 26.416 14.0837 26.0827 14.417L23.3327 17.167V15.0837C23.3327 14.417 22.4993 14.0003 21.9993 14.417L19.666 16.3337C19.3327 16.5003 18.9993 16.667 18.5827 16.667H16.666C15.7493 16.667 14.9993 17.417 14.9993 18.3337V21.667C14.9993 22.5837 15.7493 23.3337 16.666 23.3337H17.166L14.416 26.0837C14.0827 26.417 14.0827 26.917 14.416 27.2503C14.7493 27.5837 15.2493 27.5837 15.5827 27.2503L27.2494 15.5837C27.5827 15.2503 27.5827 14.7503 27.2494 14.417Z" fill="white"/>
</svg>
