<svg width="48" height="48" viewBox="0 0 48 48" fill="none" xmlns="http://www.w3.org/2000/svg">
<g clip-path="url(#clip0_6511_1735)">
<path d="M29.2821 34.1271C29.2416 33.4564 28.9475 32.8151 28.454 32.3217L24.8931 28.7601C25.4684 28.5781 25.9875 28.2649 26.4103 27.8421L26.5008 27.7515C28.0701 26.1822 27.9442 23.5031 26.2203 21.7791C25.3999 20.9588 24.3389 20.4704 23.2325 20.4036C22.0827 20.3341 21.0233 20.7231 20.2479 21.4986L20.1574 21.5891C19.7344 22.012 19.4211 22.5313 19.2391 23.1067L15.6777 19.5453C14.6283 18.4959 12.9841 18.4325 12.0123 19.404L8.78457 22.6318C8.3896 23.0268 8.22535 23.6009 8.34517 24.1674C8.47548 24.7835 8.90513 25.2872 9.49454 25.5149C9.86663 25.6587 10.204 25.8802 10.4972 26.1734L10.5995 26.2757C11.0954 26.7716 11.3902 27.402 11.4293 28.0507C11.4659 28.6567 11.2708 29.2057 10.8801 29.5965C10.4893 29.9872 9.94013 30.1828 9.33432 30.1456C8.68557 30.1065 8.05511 29.8117 7.55926 29.3158L7.45698 29.2135C7.16383 28.9204 6.94229 28.583 6.79848 28.211C6.57076 27.6215 6.06705 27.1918 5.45092 27.0615C4.88439 26.9417 4.31027 27.1059 3.91521 27.5009L0.69115 30.7251C-0.28038 31.6968 -0.217098 33.3409 0.832431 34.3905L4.3938 37.9519C3.81836 38.134 3.29908 38.4473 2.87618 38.8701L2.78552 38.9608C1.21634 40.5301 1.34224 43.2091 3.06621 44.9332C3.98149 45.8484 5.16555 46.3133 6.31014 46.3131C7.3217 46.3131 8.30242 45.9499 9.03854 45.2137L9.1292 45.1231C9.5521 44.7002 9.86532 44.181 10.0474 43.6054L13.6087 47.1669C14.1022 47.6604 14.7435 47.9544 15.4143 47.995C15.4657 47.9981 15.5169 47.9997 15.568 47.9997C16.2155 47.9997 16.8304 47.7521 17.2743 47.3082L20.3443 44.2381C20.5828 44.8181 20.9338 45.342 21.3884 45.7967L21.4907 45.899C23.2146 47.6229 25.8938 47.7488 27.4631 46.1796C29.0324 44.6103 28.9065 41.9311 27.1825 40.2072L27.0802 40.1049C26.6255 39.6502 26.1017 39.2993 25.5216 39.0608L28.5953 35.9871C29.0743 35.5081 29.3246 34.8303 29.2821 34.1271ZM27.2696 34.6613L24.0419 37.889C23.647 38.284 23.4827 38.858 23.6025 39.4246C23.7327 40.0407 24.1624 40.5444 24.7519 40.7722C25.1239 40.916 25.4614 41.1376 25.7545 41.4308L25.8568 41.5331C26.8497 42.526 26.9756 44.0156 26.1374 44.8538C25.2993 45.692 23.8094 45.5661 22.8167 44.5732L22.7144 44.4709C22.4212 44.1778 22.1996 43.8404 22.0558 43.4684C21.8281 42.8789 21.3243 42.4492 20.7081 42.319C20.1415 42.1992 19.5675 42.3635 19.1726 42.7584L15.9486 45.9825C15.8188 46.1123 15.648 46.1312 15.5274 46.1235C15.3175 46.1109 15.1015 46.008 14.9347 45.8413L13.5061 44.4126L16.6173 41.3014C16.9834 40.9353 16.9834 40.3417 16.6173 39.9755C16.2512 39.6093 15.6576 39.6094 15.2914 39.9755L12.1802 43.0867L11.2094 42.1159C10.8544 41.7609 10.3868 41.5688 9.91548 41.5688C9.75254 41.5688 9.58904 41.5919 9.42966 41.639C8.85329 41.8097 8.43432 42.2634 8.30898 42.8526C8.23023 43.2226 8.06007 43.5405 7.8032 43.7973L7.71254 43.8879C6.87442 44.7261 5.38455 44.6002 4.39183 43.6073C3.39893 42.6144 3.27302 41.1248 4.11114 40.2866L4.2018 40.1959C4.45867 39.9391 4.77649 39.7689 5.14652 39.6902C5.73583 39.5648 6.18948 39.1457 6.3602 38.5693C6.54376 37.9493 6.36095 37.2675 5.8833 36.7898L2.15824 33.0645C1.99146 32.8978 1.88862 32.6817 1.87587 32.4718C1.86855 32.3513 1.88721 32.1805 2.01687 32.0507L5.08689 28.9806C5.32539 29.5606 5.67639 30.0845 6.13098 30.5392L6.23326 30.6415C7.95732 32.3655 10.6364 32.4913 12.2058 30.9221C13.775 29.3528 13.6492 26.6737 11.9251 24.9497L11.8228 24.8474C11.3681 24.3927 10.8443 24.0418 10.2642 23.8033L13.3379 20.7296C13.5745 20.4932 14.0388 20.5579 14.3517 20.8709L18.077 24.5961C18.5546 25.0738 19.2365 25.2565 19.8565 25.073C20.4329 24.9023 20.8519 24.4486 20.9773 23.8593C21.056 23.4893 21.2261 23.1715 21.4831 22.9147L21.5737 22.824C21.9645 22.4333 22.5133 22.2383 23.1195 22.2749C23.7682 22.314 24.3987 22.6088 24.8945 23.1047C25.8874 24.0977 26.0134 25.5874 25.1751 26.4254L25.0846 26.5161C24.8277 26.7729 24.5099 26.9431 24.1399 27.0218C23.5506 27.1472 23.0969 27.5661 22.9262 28.1426C22.7426 28.7626 22.9253 29.4445 23.4031 29.9223L27.1283 33.6475C27.295 33.8142 27.3979 34.0302 27.4106 34.2401C27.4179 34.3607 27.3993 34.5315 27.2696 34.6613Z" fill="#7772F1"/>
<path d="M19.0241 37.5706C18.8498 37.3962 18.6079 37.2959 18.3613 37.2959C18.1148 37.2959 17.8729 37.3962 17.6985 37.5706C17.5241 37.745 17.4238 37.9868 17.4238 38.2334C17.4238 38.48 17.5241 38.7218 17.6985 38.8962C17.8729 39.0706 18.1138 39.1709 18.3613 39.1709C18.6079 39.1709 18.8498 39.0706 19.0241 38.8962C19.1985 38.7218 19.2988 38.48 19.2988 38.2334C19.2988 37.9868 19.1985 37.745 19.0241 37.5706Z" fill="#7772F1"/>
<path d="M38.9323 11.9065C38.758 11.7321 38.5161 11.6318 38.2695 11.6318C38.023 11.6318 37.7811 11.7321 37.6067 11.9065C37.4323 12.0809 37.332 12.3228 37.332 12.5693C37.332 12.8159 37.4323 13.0578 37.6067 13.2321C37.7811 13.4065 38.023 13.5068 38.2695 13.5068C38.5161 13.5068 38.758 13.4065 38.9323 13.2321C39.1067 13.0578 39.207 12.8159 39.207 12.5693C39.207 12.3228 39.1067 12.0809 38.9323 11.9065Z" fill="#7772F1"/>
<path d="M45.9514 21.5466C45.442 21.0373 44.8258 20.6476 44.1634 20.4151L47.3063 17.2723C47.7852 16.7934 48.0355 16.1154 47.9931 15.4123C47.9526 14.7415 47.6585 14.1002 47.165 13.6067L43.6739 10.1151C44.1661 9.92715 44.6137 9.63878 44.9829 9.2695L45.0735 9.17884C46.6427 7.60956 46.5169 4.93047 44.7928 3.20642C43.069 1.48254 40.3898 1.35664 38.8204 2.92582L38.7297 3.01648C38.3605 3.38585 38.072 3.83351 37.884 4.32588L34.3886 0.830514C33.339 -0.219015 31.6948 -0.282389 30.7231 0.689234L27.5803 3.8321C27.3478 3.16967 26.9581 2.55345 26.4488 2.04411L26.3465 1.94182C24.6226 0.217859 21.9434 0.0920471 20.3741 1.66123C18.8049 3.23051 18.9307 5.90969 20.6546 7.63347L20.7571 7.73594C21.2663 8.24519 21.8825 8.63481 22.5451 8.8674L19.4021 12.0103C18.4305 12.9819 18.4938 14.6261 19.5437 15.6759L23.2722 19.4016C23.75 19.8794 24.4321 20.062 25.0518 19.8785C25.6282 19.7078 26.0472 19.254 26.1726 18.6648C26.2513 18.2949 26.4214 17.9771 26.6784 17.7202L26.769 17.6295C27.1598 17.2388 27.7097 17.0435 28.3148 17.0804C28.9635 17.1195 29.5939 17.4143 30.0899 17.9102C30.5858 18.4062 30.8804 19.0365 30.9196 19.6853C30.9563 20.2914 30.7612 20.8404 30.3704 21.2311L30.2799 21.3217C30.023 21.5786 29.7052 21.7487 29.3353 21.8275C28.746 21.9528 28.2923 22.3718 28.1216 22.9482C27.938 23.568 28.1206 24.2498 28.5982 24.7275L32.32 28.4522C32.8713 29.0035 33.5867 29.2827 34.2826 29.2827C34.9114 29.2827 35.5242 29.0547 35.9855 28.5935L39.1284 25.4506C39.3609 26.113 39.7505 26.7293 40.2597 27.2385L40.3621 27.3409C42.0862 29.0649 44.7653 29.1907 46.3345 27.6215C47.9037 26.0522 47.7779 23.373 46.0539 21.6491L45.9514 21.5466ZM45.0084 26.2954C44.1702 27.1336 42.6805 27.0077 41.6876 26.0148L41.5854 25.9125C41.2587 25.586 41.014 25.1912 40.8776 24.7709C40.6793 24.1604 40.1681 23.688 39.5436 23.538C38.9606 23.3981 38.3686 23.5582 37.9602 23.9666L34.6594 27.2674C34.5296 27.3971 34.3586 27.4159 34.2383 27.4084C34.0284 27.3957 33.8124 27.2928 33.6459 27.1263L30.0877 23.5654C30.6632 23.3833 31.1825 23.07 31.6054 22.6472L31.696 22.5566C32.4715 21.7811 32.8603 20.721 32.791 19.572C32.7241 18.4655 32.2357 17.4044 31.4155 16.5842C30.5953 15.7641 29.5342 15.2755 28.4277 15.2086C27.2781 15.1396 26.2185 15.5281 25.4431 16.3035L25.3525 16.3942C24.9296 16.8172 24.6163 17.3365 24.4343 17.9119L20.8694 14.3497C20.7026 14.183 20.5997 13.9669 20.587 13.757C20.5797 13.6365 20.5983 13.4656 20.728 13.3359L24.0289 10.0351C24.4373 9.62668 24.5974 9.03475 24.4575 8.45162C24.3074 7.82706 23.835 7.31594 23.2246 7.11775C22.8044 6.98125 22.4096 6.73647 22.0832 6.41003L21.9807 6.30757C20.9878 5.31466 20.8619 3.82507 21.7001 2.98685C22.5381 2.14864 24.028 2.27445 25.0208 3.26745L25.1231 3.36973C25.4497 3.69626 25.6945 4.09104 25.831 4.51132C26.0293 5.12182 26.5404 5.59422 27.165 5.74413C27.748 5.8841 28.3399 5.72388 28.7483 5.3156L32.049 2.01476C32.2857 1.77842 32.7498 1.84301 33.0628 2.15604L36.7054 5.79869C37.1671 6.26041 37.8299 6.44875 38.4349 6.28975C38.9964 6.14238 39.4246 5.72116 39.5802 5.16307C39.669 4.84507 39.829 4.56888 40.0556 4.3422L40.1463 4.25154C40.9843 3.41332 42.4742 3.53913 43.467 4.53213C44.4599 5.52504 44.5858 7.01463 43.7476 7.85284L43.657 7.9435C43.4303 8.17028 43.1541 8.33022 42.8362 8.41891C42.2781 8.57462 41.8569 9.00278 41.7095 9.56425C41.5507 10.1693 41.7388 10.832 42.2005 11.2938L45.8391 14.9324C46.0059 15.099 46.1087 15.3151 46.1214 15.525C46.1288 15.6455 46.1101 15.8164 45.9804 15.9462L44.4759 17.4507L41.369 14.3437C41.0028 13.9776 40.4093 13.9776 40.0432 14.3437C39.6771 14.7098 39.677 15.3034 40.0432 15.6695L43.15 18.7765L42.6794 19.2471C42.2711 19.6555 42.1109 20.2474 42.2509 20.8304C42.4009 21.455 42.8733 21.9661 43.4837 22.1644C43.904 22.3009 44.2987 22.5457 44.6253 22.8723L44.7276 22.9746C45.7208 23.9676 45.8466 25.4574 45.0084 26.2954Z" fill="#7772F1"/>
</g>
<defs>
<clipPath id="clip0_6511_1735">
<rect width="48" height="48" fill="white"/>
</clipPath>
</defs>
</svg>
