<svg width="30" height="36" viewBox="0 0 30 36" fill="none" xmlns="http://www.w3.org/2000/svg">
<g id="Pin">
<g id="Vector">
<path fill-rule="evenodd" clip-rule="evenodd" d="M14.9987 10.9163C13.1578 10.9163 11.6654 12.4087 11.6654 14.2497C11.6654 16.0906 13.1578 17.583 14.9987 17.583C16.8396 17.583 18.332 16.0906 18.332 14.2497C18.332 12.4087 16.8396 10.9163 14.9987 10.9163ZM8.33203 14.2497C8.33203 10.5678 11.3168 7.58301 14.9987 7.58301C18.6806 7.58301 21.6654 10.5678 21.6654 14.2497C21.6654 17.9316 18.6806 20.9163 14.9987 20.9163C11.3168 20.9163 8.33203 17.9316 8.33203 14.2497Z" fill="#7772F1"/>
<path fill-rule="evenodd" clip-rule="evenodd" d="M14.9987 3.41634C8.96613 3.41634 4.16536 8.14311 4.16536 13.8651C4.16536 18.5297 6.96872 23.2411 10.0331 26.9467C11.5374 28.7659 13.0461 30.2728 14.1795 31.3249C14.4827 31.6063 14.7582 31.8545 14.9987 32.0667C15.2392 31.8545 15.5147 31.6063 15.8179 31.3249C16.9513 30.2728 18.46 28.7659 19.9643 26.9467C23.0287 23.2411 25.832 18.5297 25.832 13.8651C25.832 8.14311 21.0313 3.41634 14.9987 3.41634ZM14.9987 34.2497C13.9673 35.5589 13.9669 35.5586 13.9665 35.5583L13.9624 35.555L13.9529 35.5475L13.9206 35.5217C13.8932 35.4998 13.8543 35.4684 13.8047 35.4279C13.7054 35.3469 13.563 35.2292 13.3837 35.0771C13.0251 34.773 12.5179 34.3307 11.9117 33.7679C10.7013 32.6443 9.08495 31.0308 7.4643 29.071C4.27868 25.2187 0.832031 19.7377 0.832031 13.8651C0.832031 6.20473 7.22415 0.0830078 14.9987 0.0830078C22.7733 0.0830078 29.1654 6.20473 29.1654 13.8651C29.1654 19.7377 25.7187 25.2187 22.5331 29.071C20.9124 31.0308 19.2961 32.6443 18.0857 33.7679C17.4795 34.3307 16.9723 34.773 16.6137 35.0771C16.4344 35.2292 16.292 35.3469 16.1927 35.4279C16.1431 35.4684 16.1042 35.4998 16.0768 35.5217L16.0445 35.5475L16.035 35.555L16.032 35.5574C16.0316 35.5577 16.0301 35.5589 14.9987 34.2497ZM14.9987 34.2497L16.0301 35.5589C15.4251 36.0355 14.5715 36.0349 13.9665 35.5583L14.9987 34.2497Z" fill="#7772F1"/>
</g>
</g>
</svg>
