<svg width="30" height="30" viewBox="0 0 30 30" fill="none" xmlns="http://www.w3.org/2000/svg">
<g id="Group">
<g id="Group_2">
<path id="Vector" d="M29.2821 16.1271C29.2416 15.4564 28.9475 14.8151 28.454 14.3217L24.8931 10.7601C25.4684 10.5781 25.9875 10.2649 26.4103 9.84215L26.5008 9.75149C28.0701 8.18221 27.9442 5.50312 26.2203 3.77906C25.3999 2.95885 24.3389 2.47041 23.2325 2.40357C22.0827 2.3341 21.0233 2.72307 20.2479 3.49857L20.1574 3.58913C19.7344 4.01203 19.4211 4.53131 19.2391 5.10675L15.6777 1.54529C14.6283 0.495853 12.9841 0.432478 12.0123 1.40401L8.78457 4.63181C8.3896 5.02678 8.22535 5.60091 8.34517 6.16744C8.47548 6.78347 8.90513 7.28718 9.49454 7.5149C9.86663 7.65871 10.204 7.88025 10.4972 8.1734L10.5995 8.27568C11.0954 8.77162 11.3902 9.40199 11.4293 10.0507C11.4659 10.6567 11.2708 11.2057 10.8801 11.5965C10.4893 11.9872 9.94013 12.1828 9.33432 12.1456C8.68557 12.1065 8.05511 11.8117 7.55926 11.3158L7.45698 11.2135C7.16383 10.9204 6.94229 10.583 6.79848 10.211C6.57076 9.62146 6.06705 9.1918 5.45092 9.06149C4.88439 8.94168 4.31027 9.10593 3.91521 9.5009L0.69115 12.7251C-0.28038 13.6968 -0.217098 15.3409 0.832431 16.3905L4.3938 19.9519C3.81836 20.134 3.29908 20.4473 2.87618 20.8701L2.78552 20.9608C1.21634 22.5301 1.34224 25.2091 3.06621 26.9332C3.98149 27.8484 5.16555 28.3133 6.31014 28.3131C7.3217 28.3131 8.30242 27.9499 9.03854 27.2137L9.1292 27.1231C9.5521 26.7002 9.86532 26.181 10.0474 25.6054L13.6087 29.1669C14.1022 29.6604 14.7435 29.9544 15.4143 29.995C15.4657 29.9981 15.5169 29.9997 15.568 29.9997C16.2155 29.9997 16.8304 29.7521 17.2743 29.3082L20.3443 26.2381C20.5828 26.8181 20.9338 27.342 21.3884 27.7967L21.4907 27.899C23.2146 29.6229 25.8938 29.7488 27.4631 28.1796C29.0324 26.6103 28.9065 23.9311 27.1825 22.2072L27.0802 22.1049C26.6255 21.6502 26.1017 21.2993 25.5216 21.0608L28.5953 17.9871C29.0743 17.5081 29.3246 16.8303 29.2821 16.1271ZM27.2696 16.6613L24.0419 19.889C23.647 20.284 23.4827 20.858 23.6025 21.4246C23.7327 22.0407 24.1624 22.5444 24.7519 22.7722C25.1239 22.916 25.4614 23.1376 25.7545 23.4308L25.8568 23.5331C26.8497 24.526 26.9756 26.0156 26.1374 26.8538C25.2993 27.692 23.8094 27.5661 22.8167 26.5732L22.7144 26.4709C22.4212 26.1778 22.1996 25.8404 22.0558 25.4684C21.8281 24.8789 21.3243 24.4492 20.7081 24.319C20.1415 24.1992 19.5675 24.3635 19.1726 24.7584L15.9486 27.9825C15.8188 28.1123 15.648 28.1312 15.5274 28.1235C15.3175 28.1109 15.1015 28.008 14.9347 27.8413L13.5061 26.4126L16.6173 23.3014C16.9834 22.9353 16.9834 22.3417 16.6173 21.9755C16.2512 21.6093 15.6576 21.6094 15.2914 21.9755L12.1802 25.0867L11.2094 24.1159C10.8544 23.7609 10.3868 23.5688 9.91548 23.5688C9.75254 23.5688 9.58904 23.5919 9.42966 23.639C8.85329 23.8097 8.43432 24.2634 8.30898 24.8526C8.23023 25.2226 8.06007 25.5405 7.8032 25.7973L7.71254 25.8879C6.87442 26.7261 5.38455 26.6002 4.39183 25.6073C3.39893 24.6144 3.27302 23.1248 4.11114 22.2866L4.2018 22.1959C4.45867 21.9391 4.77649 21.7689 5.14652 21.6902C5.73583 21.5648 6.18948 21.1457 6.3602 20.5693C6.54376 19.9493 6.36095 19.2675 5.8833 18.7898L2.15824 15.0645C1.99146 14.8978 1.88862 14.6817 1.87587 14.4718C1.86855 14.3513 1.88721 14.1805 2.01687 14.0507L5.08689 10.9806C5.32539 11.5606 5.67639 12.0845 6.13098 12.5392L6.23326 12.6415C7.95732 14.3655 10.6364 14.4913 12.2058 12.9221C13.775 11.3528 13.6492 8.67374 11.9251 6.94968L11.8228 6.8474C11.3681 6.39272 10.8443 6.04181 10.2642 5.80331L13.3379 2.72963C13.5745 2.49319 14.0388 2.55788 14.3517 2.87091L18.077 6.59606C18.5546 7.07381 19.2365 7.25653 19.8565 7.07296C20.4329 6.90234 20.8519 6.44859 20.9773 5.85928C21.056 5.48934 21.2261 5.17153 21.4831 4.91466L21.5737 4.824C21.9645 4.43335 22.5133 4.23834 23.1195 4.27491C23.7682 4.314 24.3987 4.60875 24.8945 5.10469C25.8874 6.09768 26.0134 7.58737 25.1751 8.4254L25.0846 8.51606C24.8277 8.77293 24.5099 8.94309 24.1399 9.02184C23.5506 9.14718 23.0969 9.56615 22.9262 10.1426C22.7426 10.7626 22.9253 11.4445 23.4031 11.9223L27.1283 15.6475C27.295 15.8142 27.3979 16.0302 27.4106 16.2401C27.4179 16.3607 27.3993 16.5315 27.2696 16.6613Z" fill="#7772F1"/>
</g>
</g>
</svg>
