<svg xmlns="http://www.w3.org/2000/svg" width="591" height="526" fill="none" viewBox="0 0 591 526">
  <path fill="#B3B7BC" d="m73.691 305.62 81.57 73.306L191.464 526l59.017-14.326-9.886-10.534s-2.27-221.18-98.044-256.695"/>
  <rect width="92.02" height="33.109" x="28.629" y="303.758" fill="#00F0B5" rx="16.555"/>
  <path stroke="#1E212C" stroke-linecap="round" stroke-linejoin="round" stroke-width="1.5" d="M104.148 336.866h-59.02"/>
  <path fill="#D7DADD" d="M79.387 63.769v27.264l33.663 8.302v-46.01l-33.663-8.302V63.77Z"/>
  <path stroke="#fff" stroke-linecap="round" stroke-linejoin="round" stroke-width="1.5" d="M83.252 77.61c-.3.375-.38.88-.213 1.33.167.449.558.777 1.028.863 1.884.657 5.248-2.822 7.537-.449 0 0 .905-2.868 7-.38 6.096 2.486 4.416-1.937 4.416-1.937"/>
  <path fill="#1E212C" d="M98.404 73.203c.497 0 .9-.405.9-.903a.902.902 0 0 0-.9-.903c-.497 0-.9.404-.9.903 0 .498.403.903.9.903Zm-13.824 0c.498 0 .9-.405.9-.903a.902.902 0 0 0-.9-.903.902.902 0 0 0 0 1.806Z"/>
  <path stroke="#1E212C" stroke-linecap="round" stroke-linejoin="round" stroke-width="1.5" d="M88.633 77.687V63.77h-6.95m18.414 0h-6.949"/>
  <path fill="#E5E8ED" d="M110.836 70.9v4.834c2.598 0 4.705-2.114 4.705-4.72 0-.145-.007-.289-.019-.43-.264-2.931-4.686-2.626-4.686.317Z"/>
  <path stroke="#1E212C" stroke-linecap="round" stroke-linejoin="round" stroke-width="1.5" d="M110.836 75.733a4.713 4.713 0 0 0 4.705-4.72m-13.287 25.66 10.796 2.662M88.637 77.697l3.039.75"/>
  <path stroke="#fff" stroke-linecap="round" stroke-linejoin="round" stroke-width="1.5" d="M79.387 74.646s-7.822 16.766 4.291 22.073c12.113 5.306 29.399-8.085 27.155-23.516M78.129 56.286s2.687 4.997 12.026 5.205v-3.083a25.094 25.094 0 0 0 13.782 3.715v-2.441s5.817 6.555 1.163 11.714"/>
  <path stroke="#1E212C" stroke-linecap="round" stroke-linejoin="round" stroke-width="1.5" d="M92.313 83.071a3.542 3.542 0 0 0 3.535-3.548"/>
  <path stroke="#fff" stroke-linecap="round" stroke-linejoin="round" stroke-width="1.5" d="M79.391 69.923s-13.6-23.559 1.217-26.424c14.817-2.865 24.971 3.82 24.971 3.82s22.408 4.56 7.476 21.223"/>
  <path fill="#00F0B5" d="M51.164 148.158v73.753l104.137 25.679v-82.14c0-29.126-19.818-54.489-48.009-61.44a45.196 45.196 0 0 0-38.772 8.37c-10.956 8.618-17.356 21.81-17.356 35.778Z"/>
  <path fill="#D7DADD" d="M51.169 221.91S33.074 347.69 166.345 327.636l.635 105.726h64.464l-9.887-8.629s57.116-157.906-66.251-177.143"/>
  <path stroke="#1E212C" stroke-linecap="round" stroke-linejoin="round" stroke-width="1.5" d="M166.976 433.361h64.464M51.169 221.91S33.074 347.69 166.345 327.636l.635 105.726"/>
  <path stroke="#fff" stroke-linecap="round" stroke-linejoin="round" stroke-width="1.5" d="M1 433.139h154.257M74.69 336.754v96.199m-.999-324.094s-43.156 24.895-37.656 84.747c5.5 59.851 100.215 22.497 126.051 3.82 0 0 13.987-10.27 10.602-27.028l8.118-5.498-2.192-4.828-96.925 15.061 3.794-23.55"/>
  <path fill="#1E212C" d="M55.11 222.374c7.577 11.722 29.704 16.751 53.583 11.252 21.476-4.945 37.97-16.932 42.328-29.38-24.842 13.536-70.124 29.335-95.91 18.128Z"/>
  <path stroke="#fff" stroke-linecap="round" stroke-linejoin="round" stroke-width="1.5" d="m121.227 109.256 64.151 29.591s14.807-58.675 32.154-61.81c17.346-3.135 17.221-1.304 17.221-1.304l-.984 4.605-8.248 2.733s3.857 19.085-6.297 19.602c0 0 31.531 115.52-65.466 100.042"/>
  <path fill="#B3B7BC" d="m486.796 225.83-162.163-55.29 20.665-83.615 174.303 6.345-32.805 132.56Z"/>
  <path fill="#E5E8ED" d="M398.092 350.232 218.199 224.696l106.434-54.27 162.163 55.403-88.704 124.403Z"/>
  <path fill="#1E212C" d="M396.796 304.347 264.39 219.202l1.524-.566 131.56 84.578-.678 1.133Zm18.633-24.643-131.278-72.002 1.299-.793 130.995 71.605-1.016 1.19Zm18.125-22.037-128.793-60.275 1.242-.85 128.285 60.049-.734 1.076Zm18.465-22.773-129.415-49.625 1.356-.85 129.075 49.229-1.016 1.246Z"/>
  <path fill="#1E212C" d="m270.542 237.443-1.468-.793 79.218-45.886 1.638.566-79.388 46.113Zm33.939 22.661-1.412-.737 71.427-59.822 1.468.453-71.483 60.106Zm35.17 23.793-1.242-.793 67.135-72.342 1.412.34-67.305 72.795Zm36.085 23.905-.96-.793 67.248-82.085 1.242.453-67.53 82.425Z"/>
  <path fill="#fff" d="M527.845 88.85a1.14 1.14 0 0 0-.622-.17l-161.88-5.155h-.057l-19.988 3.4 5.59.226 14.455-2.323 159.961 5.099-5.647 3.342-.395 1.7 7.397-4.532-36.25 147.856-3.5-12.633-159.397-54.271-1.637.85 160.13 54.724 3.67 13.992-92.6 130.578 2.033-22.773-1.016 1.473-2.089 22.943-175.771-131.201-.678-16.315-1.355-.963.791 17.958 177.013 132.39 95.027-133.807 37.097-151.594c.056-.284-.057-.567-.282-.794Z"/>
  <path fill="#fff" d="M369.356 156.508a22.235 22.235 0 0 1-4.407-1.72 20.126 20.126 0 0 1-3.79-2.5 20.518 20.518 0 0 1-3.041-2.968 16.647 16.647 0 0 1-2.206-3.573l11.973-7.499a11.568 11.568 0 0 0 2.373 3.916 8.76 8.76 0 0 0 4.127 2.565 4.83 4.83 0 0 0 2.159.08c.362-.062.7-.218.98-.453.28-.235.49-.54.61-.882.165-.352.207-.747.121-1.124a2.845 2.845 0 0 0-.679-1.175c-.5-.58-1.062-1.105-1.677-1.566-.723-.614-1.655-1.339-2.8-2.206a21.714 21.714 0 0 1-2.989-2.776 11.162 11.162 0 0 1-2.149-3.317 10.81 10.81 0 0 1-.704-4.115 14.608 14.608 0 0 1 1.278-5.162 18.221 18.221 0 0 1 4.393-6.484 18.255 18.255 0 0 1 5.735-3.611 17.772 17.772 0 0 1 6.306-1.182 23.097 23.097 0 0 1 6.066.738 18.713 18.713 0 0 1 6.991 3.751 17.445 17.445 0 0 1 4.897 6.673l-11.932 6.907a7.394 7.394 0 0 0-2.017-3.657 6.763 6.763 0 0 0-3.03-1.857 5.372 5.372 0 0 0-2.468-.18 2.057 2.057 0 0 0-1.498 1.261c-.166.271-.24.588-.209.903.032.315.165.612.382.845.734.729 1.53 1.394 2.381 1.987a51.145 51.145 0 0 1 3.598 2.911 15.944 15.944 0 0 1 3.144 3.676 11.605 11.605 0 0 1 1.555 4.684 12.548 12.548 0 0 1-1.133 5.965 19.572 19.572 0 0 1-4.297 6.442 18.634 18.634 0 0 1-5.713 3.837 18.075 18.075 0 0 1-6.307 1.51c-2.03.1-4.063-.117-6.023-.644Zm39.323-39.081 26.299 7.331-5.092 12.274-14.245-3.955-1.565 3.769 13.335 3.713-4.676 11.503-13.5-3.73-1.695 4.113 15.122 4.198-5.092 12.274-27.209-7.573 18.318-43.917Zm21.905 30.378a30.647 30.647 0 0 1 5.72-9.011 27.201 27.201 0 0 1 7.51-5.937 24.234 24.234 0 0 1 17.812-1.999 20.677 20.677 0 0 1 7.822 3.92 17.022 17.022 0 0 1 4.859 6.383 19.068 19.068 0 0 1 1.49 8.394 28.331 28.331 0 0 1-2.328 9.889 32.737 32.737 0 0 1-5.713 9.076 27.357 27.357 0 0 1-7.625 6.113 24.576 24.576 0 0 1-8.771 2.875 23.869 23.869 0 0 1-9.153-.667 20.184 20.184 0 0 1-7.792-3.957 17.215 17.215 0 0 1-4.778-6.555 20.372 20.372 0 0 1-1.374-8.569c.159-3.43.946-6.803 2.321-9.955Zm13.588 3.742a15.02 15.02 0 0 0-1.084 4.083 9.737 9.737 0 0 0 .346 3.513 6.19 6.19 0 0 0 1.586 2.668 6.373 6.373 0 0 0 2.729 1.536 7.52 7.52 0 0 0 3.314.098 8.81 8.81 0 0 0 3.173-1.334 12.3 12.3 0 0 0 3.044-2.635 16.059 16.059 0 0 0 2.206-3.767 13.457 13.457 0 0 0 1.057-4.015 7.859 7.859 0 0 0-.321-3.253 6.158 6.158 0 0 0-1.638-2.531 6.008 6.008 0 0 0-2.725-1.503 7.97 7.97 0 0 0-3.321-.163 9.918 9.918 0 0 0-3.186 1.204 11.244 11.244 0 0 0-2.789 2.543 14.49 14.49 0 0 0-2.26 3.543l-.131.013Z"/>
  <path fill="#E5E8ED" d="m338.303 49.575-66.82 17.419-12.838-49.576 1.212-.316 12.523 48.357 65.607-17.102.316 1.218Z"/>
  <path fill="#E5E8ED" d="m284.155 37.23-7.861 2.048 6.128 23.662 7.861-2.05-6.128-23.66Zm12.95-14.803-7.861 2.05 8.9 34.365 7.861-2.05-8.9-34.365Zm16.073-12.007-7.861 2.049 10.797 41.688 7.861-2.049-10.797-41.688Z"/>
  <path fill="#00F0B5" d="M466.06 387.064a36.832 36.832 0 0 0 5.994 20.166 36.668 36.668 0 0 0 16.039 13.561 36.521 36.521 0 0 0 20.825 2.507 36.58 36.58 0 0 0 18.782-9.366 36.777 36.777 0 0 0 10.581-18.17 36.86 36.86 0 0 0-1.091-21.015 36.74 36.74 0 0 0-12.404-16.97 36.56 36.56 0 0 0-19.65-7.359v36.646H466.06Z"/>
  <path fill="#D7DADD" d="M462.096 382.799h39.076v-36.686a31.026 31.026 0 0 0-2.44-.087c-4.813 0-9.578.952-14.024 2.8a36.633 36.633 0 0 0-11.888 7.972 36.768 36.768 0 0 0-7.94 11.93 36.848 36.848 0 0 0-2.784 14.071Z"/>
  <path fill="#B3B7BC" d="m545.027 237.579 41.556-13.852-10.62-31.933-7.611-3.918-35.877 11.959 12.552 37.744Z"/>
  <path fill="#fff" d="m545.59 237.861 44.541-14.847a.262.262 0 0 0 .151-.13.27.27 0 0 0 .014-.199l-11.383-34.227a.274.274 0 0 0-.127-.149l-8.157-4.194a.265.265 0 0 0-.201-.017l-38.455 12.819a.26.26 0 0 0-.164.329l13.454 40.456a.26.26 0 0 0 .13.148.241.241 0 0 0 .197.011Zm44.131-15.259-44.027 14.676-13.291-39.962 38.08-12.693 7.971 4.101 11.267 33.878Z"/>
  <path fill="#fff" d="m539.242 205.956 36.719-12.24a.26.26 0 0 0 .034-.48.26.26 0 0 0-.199-.014l-36.718 12.24a.26.26 0 0 0-.164.329.258.258 0 0 0 .328.165Zm1.958 5.88 36.719-12.24a.26.26 0 0 0 .034-.48.257.257 0 0 0-.198-.014l-36.719 12.239a.26.26 0 0 0-.164.33.258.258 0 0 0 .328.165Zm1.938 5.836 36.718-12.24a.262.262 0 0 0 .151-.13.26.26 0 0 0-.315-.364l-36.719 12.239a.262.262 0 0 0-.034.481.26.26 0 0 0 .199.014Zm1.948 5.857 36.719-12.239a.262.262 0 0 0 .164-.33.264.264 0 0 0-.049-.09.272.272 0 0 0-.08-.063.264.264 0 0 0-.2-.012l-36.719 12.24a.264.264 0 0 0-.154.13.257.257 0 0 0 .119.351c.062.03.134.035.2.013Zm1.949 5.859 36.719-12.24a.258.258 0 0 0 .15-.131.26.26 0 0 0 .014-.198.255.255 0 0 0-.329-.165l-36.718 12.239a.257.257 0 0 0-.09.05.236.236 0 0 0-.064.08.25.25 0 0 0-.028.099.25.25 0 0 0 .012.102.268.268 0 0 0 .334.164Zm25.63-38.649 5.99-1.997a.262.262 0 0 0 .132-.321.265.265 0 0 0-.298-.178l-5.744 1.914-2.085-5.949a.277.277 0 0 0-.335-.163.263.263 0 0 0-.145.135.271.271 0 0 0-.012.198l2.168 6.196a.265.265 0 0 0 .329.165Z"/>
</svg>
