<svg width="48" height="48" viewBox="0 0 48 48" fill="none" xmlns="http://www.w3.org/2000/svg">
<g clip-path="url(#clip0_6511_2361)">
<path d="M33.2986 37.0005C32.9801 36.6697 32.3923 36.5748 31.9602 36.9883C31.9572 36.9912 31.9541 36.9942 31.951 36.9972C31.5246 37.4165 31.6017 38.0069 31.9226 38.3354C32.093 38.51 32.3389 38.6175 32.5965 38.6175C32.8238 38.6175 33.06 38.5338 33.2612 38.3385C33.6905 37.9222 33.6175 37.3311 33.2986 37.0005Z" fill="#7772F1"/>
<path d="M41.7882 18.9519C41.6082 18.4663 41.069 18.2188 40.5835 18.3984C40.0981 18.5782 39.8503 19.1174 40.0301 19.603C40.8394 21.7877 41.2496 24.088 41.2496 26.4399C41.2496 37.294 32.419 46.1245 21.565 46.1245C17.5373 46.1245 13.6655 44.9169 10.3679 42.632C9.94251 42.3371 9.35836 42.443 9.06352 42.8686C8.76858 43.2941 8.87452 43.8781 9.30014 44.1729C12.9129 46.6762 17.1539 47.9993 21.5651 47.9993C27.3238 47.9993 32.7378 45.7567 36.8099 41.6845C40.8819 37.6125 43.1245 32.1985 43.1245 26.4398C43.1243 23.865 42.6747 21.3457 41.7882 18.9519Z" fill="#7772F1"/>
<path d="M28.8232 6.13401C26.4975 5.30245 24.055 4.88086 21.5634 4.88086C15.8046 4.88086 10.3906 7.12345 6.31852 11.1954C2.24649 15.2676 0.00390625 20.6816 0.00390625 26.4403C0.00390625 30.9061 1.35728 35.1906 3.91796 38.8308C4.1004 39.0903 4.39055 39.2289 4.68549 39.2289C4.87177 39.2289 5.05993 39.1735 5.2239 39.0581C5.64736 38.7602 5.74918 38.1755 5.45133 37.7521C3.11406 34.4294 1.87862 30.5179 1.87862 26.4402C1.87862 15.5861 10.7092 6.75557 21.5633 6.75557C23.8393 6.75557 26.0694 7.14032 28.1918 7.89923C28.6793 8.0736 29.2159 7.81973 29.3901 7.33223C29.5644 6.84482 29.3106 6.30839 28.8232 6.13401Z" fill="#7772F1"/>
<path d="M47.9227 7.77379C47.7775 7.42344 47.4358 7.19516 47.0566 7.19516H42.1313L42.661 6.66548C43.027 6.29948 43.027 5.70585 42.661 5.33976C42.2949 4.97376 41.7014 4.97376 41.3352 5.33976L40.7988 5.8762V0.937456C40.7988 0.558426 40.5703 0.21652 40.2202 0.0713954C39.8698 -0.0737293 39.4666 0.0065205 39.1987 0.274551L30.9352 8.53804C30.7594 8.71382 30.6606 8.95222 30.6606 9.20085V12.4526C27.9568 10.6839 24.8397 9.75538 21.5601 9.75538C12.36 9.75538 4.875 17.2404 4.875 26.4405C4.875 35.6406 12.36 43.1256 21.5601 43.1256C24.6137 43.1256 27.6012 42.2928 30.1995 40.7175C30.6421 40.4491 30.7833 39.8726 30.515 39.4299C30.2467 38.9873 29.6702 38.8459 29.2275 39.1144C26.9223 40.5121 24.271 41.2508 21.5601 41.2508C13.3937 41.2508 6.74972 34.607 6.74972 26.4404C6.74972 18.2739 13.3937 11.63 21.5601 11.63C24.8948 11.63 28.0399 12.7108 30.6606 14.7556V16.0142L28.9524 17.7224C26.9575 16.0283 24.3764 15.0044 21.5601 15.0044C15.2543 15.0044 10.1242 20.1345 10.1242 26.4403C10.1242 32.7461 15.2543 37.8762 21.5601 37.8762C27.8659 37.8762 32.996 32.7461 32.996 26.4403C32.996 23.6242 31.9723 21.043 30.278 19.048L31.993 17.3331H33.24C35.2608 19.9229 36.3704 23.1446 36.3704 26.4403C36.3704 29.2038 35.6046 31.8992 34.1558 34.235C33.8829 34.6748 34.0184 35.2527 34.4584 35.5256C34.6123 35.621 34.7829 35.6665 34.9515 35.6665C35.2652 35.6665 35.5716 35.5091 35.7491 35.2232C37.3822 32.5904 38.2452 29.5534 38.2452 26.4403C38.2452 23.2025 37.2942 20.0278 35.5407 17.3331H38.7929C39.0416 17.3331 39.2799 17.2343 39.4557 17.0585L47.7192 8.795C47.9875 8.52725 48.0677 8.12404 47.9227 7.77379ZM31.1215 26.4405C31.1215 31.7125 26.8323 36.0017 21.5603 36.0017C16.2883 36.0017 11.9991 31.7125 11.9991 26.4405C11.9991 21.1685 16.2883 16.8793 21.5603 16.8793C23.8595 16.8793 25.9715 17.6952 27.6226 19.0525L25.4878 21.1874C24.3921 20.3661 23.0321 19.879 21.5604 19.879C17.9423 19.879 14.9989 22.8225 14.9989 26.4405C14.9989 30.0586 17.9424 33.0021 21.5604 33.0021C25.1785 33.0021 28.122 30.0585 28.122 26.4405C28.122 24.9688 27.6348 23.6088 26.8135 22.513L28.9484 20.3782C30.3056 22.0293 31.1215 24.1413 31.1215 26.4405ZM20.8975 27.1034C21.0806 27.2865 21.3204 27.378 21.5603 27.378C21.8002 27.378 22.04 27.2865 22.2231 27.1034L25.4686 23.8579C25.96 24.599 26.2471 25.4867 26.2471 26.4405C26.2471 29.0248 24.1446 31.1273 21.5603 31.1273C18.976 31.1273 16.8735 29.0248 16.8735 26.4405C16.8735 23.8562 18.976 21.7537 21.5603 21.7537C22.5142 21.7537 23.4018 22.0408 24.143 22.5322L20.8975 25.7777C20.5314 26.1437 20.5314 26.7372 20.8975 27.1034ZM32.5355 14.1396V9.58916L38.9242 3.20048V7.75091L32.5355 14.1396ZM38.4049 15.4586H33.868L40.2567 9.06988H44.7936L38.4049 15.4586Z" fill="#7772F1"/>
<path d="M7.62347 40.3401C7.44918 40.1658 7.2074 40.0654 6.96084 40.0654C6.71325 40.0654 6.47147 40.1657 6.29812 40.3401C6.12281 40.5145 6.02344 40.7563 6.02344 41.0028C6.02344 41.2494 6.12281 41.4912 6.29812 41.6655C6.47241 41.8399 6.71334 41.9402 6.96084 41.9402C7.2074 41.9402 7.44918 41.8399 7.62347 41.6655C7.79784 41.4912 7.89825 41.2494 7.89825 41.0028C7.89825 40.7563 7.79793 40.5154 7.62347 40.3401Z" fill="#7772F1"/>
</g>
<defs>
<clipPath id="clip0_6511_2361">
<rect width="48" height="48" fill="white"/>
</clipPath>
</defs>
</svg>
