<svg width="24" height="25" viewBox="0 0 24 25" fill="none" xmlns="http://www.w3.org/2000/svg">
<g id="Group">
<g id="Group_2">
<path id="Vector" d="M16.5533 12.3778H16.1674C17.0456 11.3914 17.5805 10.093 17.5805 8.6715V6.69919V5.78672V5.58141C17.5805 2.50378 15.0769 0 11.9993 0C8.92179 0 6.4181 2.50378 6.4181 5.58131V5.78662V6.69909V8.6715C6.4181 10.0929 6.95304 11.3913 7.83119 12.3778H7.44532C3.61994 12.3778 0.507812 15.4899 0.507812 19.3153V24C0.507812 24.5178 0.927532 24.9375 1.44531 24.9375H22.5533C23.071 24.9375 23.4908 24.5178 23.4908 24V19.3153C23.4908 15.4899 20.3787 12.3778 16.5533 12.3778ZM11.9993 1.875C13.8583 1.875 15.4021 3.25078 15.6658 5.03766L14.0115 4.06575C13.6167 3.83372 13.1121 3.92109 12.818 4.27191C12.0247 5.21869 10.8614 5.76159 9.62613 5.76159H8.2931V5.58131C8.2931 3.53766 9.95566 1.875 11.9993 1.875ZM8.2931 7.63669H9.62613C11.1472 7.63669 12.5931 7.06894 13.6993 6.057L15.7055 7.23572V8.67159C15.7055 10.7153 14.043 12.3779 11.9993 12.3779C9.95566 12.3779 8.2931 10.7152 8.2931 8.67159V7.63669ZM21.6158 23.0625H2.38281V19.3153C2.38281 16.5238 4.65391 14.2528 7.44532 14.2528H11.0618V16.125C11.0618 16.6428 11.4816 17.0625 11.9993 17.0625C12.517 17.0625 12.9368 16.6428 12.9368 16.125V14.2528H16.5533C19.3447 14.2528 21.6158 16.5238 21.6158 19.3153V23.0625Z" fill="#7772F1"/>
</g>
</g>
</svg>
